<svg xmlns="http://www.w3.org/2000/svg" fill="none" viewBox="0 0 4710 4000"><path fill="#000" d="m2412.6.133 3.44-.02c2.4-.012 4.8-.02 7.2-.024 3.6-.011 7.19-.048 10.78-.085 15.14-.082 29.58 1.092 44.46 3.9l4.18.785c3.43.68 6.84 1.406 10.25 2.158 9.41 2.074 9.41 2.074 18.9 3.776 22.45 3.558 43.19 12.324 61.65 25.463 5.47 3.856 11.13 7.293 16.87 10.718 9.18 5.525 17.62 11.542 25.9 18.323 1.18.933 2.35 1.866 3.56 2.828 16.41 13.276 32.01 28.566 44.71 45.443 1.08 1.381 2.15 2.76 3.23 4.139 7.37 9.546 14.08 19.409 20.56 29.573a284.461 284.461 0 0 0 12.49 17.945c5.92 7.904 10.9 16.147 15.53 24.871.48.914.97 1.828 1.47 2.77 2.75 5.202 5.48 10.418 8.18 15.645 2.09 4.017 4.22 8 6.41 11.958 16.06 29.121 27.29 63.388 28.68 96.782.04 1.03.09 2.059.13 3.12.67 19.203-1.16 37.908-3.66 56.925-.19 1.455-.37 2.91-.56 4.408-.55 4.421-1.14 8.837-1.73 13.253-.25 2.01-.25 2.01-.51 4.062-1.68 11.995-5.46 22.54-11.04 33.245l-2.49 4.87c-.42.815-.84 1.629-1.27 2.467a329.066 329.066 0 0 0-3.53 7.182c-7.62 15.789-16.56 30.339-27.44 44.096-3.88 4.922-7.56 9.986-11.26 15.043a1474.589 1474.589 0 0 1-21.98 29.188c-1.16 1.495-2.31 2.991-3.46 4.49-10.16 13.212-20.97 25.805-32.18 38.141-3.58 3.953-7.01 7.998-10.37 12.142-3.39 4.165-6.79 8.303-10.3 12.362-.73.839-1.45 1.679-2.2 2.543-2.14 2.093-2.14 2.093-4.52 3.16-4.26 2.351-6 7.026-8.36 11.143-3.18 4.44-6.53 6.105-11.63 7.805-1.2 2.194-1.2 2.194-2.12 4.859-2.41 5.786-5.58 9.583-10.02 13.942-.7.714-1.41 1.428-2.14 2.163a538.71 538.71 0 0 1-4.49 4.451c-2.29 2.26-4.54 4.549-6.8 6.843-1.46 1.452-2.91 2.902-4.37 4.35l-2.03 2.066c-4.23 4.108-6.8 5.302-12.77 6.065-2.13 3.756-2.13 3.756-3.34 6.637-5.35 10.823-15.49 19.948-23.74 28.684-1.24 1.361-1.24 1.361-2.5 2.75-2.21 1.96-2.21 1.96-6.04 2.254l-3.24-.294c-.18 1.493-.18 1.493-.36 3.017-.94 4.675-1.89 8.173-4.35 12.288-2.2.672-2.2.672-4.71 1.03-2.52.325-2.52.325-4.7 1.325-1.35 2.521-1.95 4.966-2.66 7.731-2.82 9.194-11.59 17.049-19.71 21.703-3.9.257-3.9.257-7.07 0 .11 1.079.21 2.159.32 3.271-.32 3.793-.32 3.793-2.44 6.052-.97.631-1.95 1.262-2.96 1.912-1.07.705-2.14 1.41-3.25 2.137-1.13.711-2.27 1.422-3.44 2.154-1.1.725-2.2 1.45-3.34 2.196-6.17 3.987-12.04 7.089-19.03 9.357.58 3.497.58 3.497 1.18 7.064 20.57-3.629 40.2-8.812 60.04-15.305a9050.68 9050.68 0 0 1 7.34-2.396c2.52-.823 5.05-1.644 7.57-2.465 3.26-1.058 6.51-2.127 9.75-3.205 1.48-.483 2.95-.966 4.47-1.464 1.97-.65 1.97-.65 3.97-1.313 3.4-.931 3.4-.931 8.11-.931v-3.532c.8-.264 1.61-.528 2.44-.801 35.57-11.746 70.27-25.491 103.77-42.293 5.79-2.905 11.6-5.782 17.4-8.66 6.56-3.251 13.11-6.511 19.67-9.772 2.19-1.091 4.38-2.18 6.57-3.269 4.14-2.058 8.27-4.124 12.41-6.191 1.26-.625 2.51-1.25 3.81-1.894 1.16-.583 2.33-1.167 3.53-1.768 1.01-.507 2.03-1.014 3.07-1.537 2.7-1.489 5.02-3.191 7.46-5.053a127.48 127.48 0 0 1 6.26-2.575c6.51-2.633 12.58-5.743 18.74-9.105 5.05-2.744 10.16-5.232 15.4-7.599 15.92-7.278 30.88-16.207 45.53-25.744.89-.577 1.79-1.154 2.71-1.749 1.18-.776 1.18-.776 2.39-1.567 1.99-1.11 1.99-1.11 4.34-1.11v-2.354c4.61-2.406 9.22-4.809 13.83-7.212 1.29-.671 2.57-1.341 3.9-2.033 7.52-3.913 15.06-7.746 22.69-11.441 3.32-1.777 6.29-3.806 9.32-6.026 9.1-6.536 16.71-8.562 27.97-7.432 6.54 1.419 9.04 4.186 12.65 9.566 3.37 5.688 5.59 11.158 7.36 17.513h7.06c-.26 1.344-.52 2.687-.8 4.071-.73 5.863.84 10.185 3.01 15.577 5.62 14.577 8.19 32.416 3.02 47.609-1.31 2.893-1.31 2.893-2.87 5.74-.6 1.121-1.2 2.243-1.82 3.398-5.36 9.186-11.16 14.859-21.07 18.751-5.58 2.315-8.85 5.838-12.97 10.173-10.01 10.025-21.87 17.737-33.9 25.091-8.47 5.19-16.17 10.917-23.62 17.496-15 12.741-32.78 22.01-49.81 31.691-8.02 4.582-15.83 9.323-23.26 14.808-4.49 3.201-8.22 4.142-13.69 4.569v5.887c-17.16 9.147-34.47 18.022-51.84 26.771-4.08 2.057-8.16 4.119-12.23 6.198-4.02 2.052-8.05 4.086-12.08 6.11a560.45 560.45 0 0 0-4.51 2.295c-10.61 5.444-20.79 8.959-32.36 11.607-.22 1.406-.22 1.406-.44 2.841-.74 3.045-.74 3.045-3.12 4.678-1.05.422-2.11.844-3.2 1.279l-3.67 1.491c-1.34.514-2.68 1.028-4.07 1.558l-4.27 1.686c-13.2 5.153-26.64 9.589-40.11 13.977-9.24 3.016-18.44 6.115-27.57 9.461a1612.097 1612.097 0 0 0-15.78 5.852c-23.1 8.601-46.9 14.364-71.01 19.307-50.98 10.505-95.6 25.184-137.58 56.783-1.78 1.329-3.55 2.659-5.33 3.989l-4.09 3.07c4.25 2.57 8.26 2.99 13.16 3.54.81.09 1.62.19 2.46.29 2.59.3 5.18.59 7.78.88 2.58.3 5.16.59 7.75.89 2.34.28 4.7.54 7.05.81 4.18.66 4.18.66 7.49 1.86 4.05 1.24 7.33 1.46 11.56 1.49 1.53.02 3.06.03 4.63.05.81 0 1.62.01 2.45.01 2.55.01 5.1.03 7.65.06 5.42.06 10.83.1 16.24.13 6.28.04 12.55.09 18.83.16 2.5.03 5 .04 7.5.05 1.53.01 3.07.03 4.64.04l4.07.03c3.89.31 3.89.31 7.7 1.44 30.89 8.57 69.27 3.78 101.05 3.85 8.72.02 17.43.05 26.15.08 24.75.08 49.5.15 74.25.21 13.73.04 27.46.08 41.19.13 8.63.03 17.27.05 25.91.06 5.39.01 10.78.03 16.18.06 2.47.01 4.94.01 7.42.01 11.55.01 22.91.23 34.4 1.54 17.96 1.98 36.08 1.47 54.12 1.41 5.47-.01 10.94-.02 16.42-.02 9.45 0 18.91-.02 28.36-.04 13.68-.03 27.36-.04 41.03-.05 22.21-.02 44.42-.05 66.63-.08 1.32 0 2.65 0 4.01-.01 9.42-.01 18.83-.02 28.25-.04 10.78-.01 21.57-.03 32.36-.05h4.02c22.16-.03 44.31-.06 66.46-.07 13.65-.01 27.3-.03 40.95-.06 9.34-.02 18.67-.03 28.01-.04 5.39 0 10.78-.01 16.16-.03 4.93-.01 9.86-.02 14.79-.01 1.79 0 3.57-.01 5.36-.02 2.42-.01 4.84-.01 7.27 0 2.02 0 2.02 0 4.08-.01 3.94.31 7.09 1.29 10.79 2.65 2.99.41 2.99.41 6.02.48 1.16.05 2.31.09 3.5.14l3.78.12c1.98.08 1.98.08 4 .15 4.34.16 8.67.29 13.01.43 1.48.05 2.97.1 4.49.16 24.07.81 48.11 1.08 72.19.79 26.94-.28 49.67 3.56 69.76 23.11 20.02 20.31 25.58 45.44 30.59 72.61.53 2.87 1.07 5.74 1.62 8.61 4.91 26.28 6.56 52.58 7.15 79.27.03 1.07.05 2.14.08 3.24.86 38.2.54 76.43.44 114.65 1.47-.01 2.94-.02 4.46-.02 65.7-.25 131.39.45 197.08 1.07 9.42.09 18.84.18 28.26.26 10.27.08 20.55.18 30.82.28 5.08.06 10.15.11 15.23.15 4.62.03 9.25.08 13.88.14 1.66.01 3.31.03 4.97.04 2.23.01 4.46.04 6.69.07 1.24.02 2.47.03 3.74.04 3.34.32 3.34.32 5.96 1.47 5.07 1.87 10.15 1.75 15.52 1.92 1.2.04 2.4.09 3.63.13 11.4.4 22.8.56 34.2.64 3.61.02 7.22.06 10.83.09 7.68.07 15.36.13 23.04.19 57.58.46 57.58.46 81.26 1.11l2.41.06c16.06.41 31.73 2.28 47.46 5.45 11.73 2.21 23.94 2.15 35.84 2.34 3.52.05 7.05.12 10.58.19 2.6.05 5.2.07 7.79.09 24.64.37 24.64.37 30.93 6.66 1.73.11 3.47.15 5.2.16 11.74.2 21.69.68 32.64 5.28 5.87 2.3 12.06 3.19 18.23 4.34 24 4.66 45.05 14.54 64.57 29.21 3.62 2.68 7.35 5.16 11.14 7.6 5.47 3.76 9.65 7.73 13.77 12.94 3.44 4.37 3.44 4.37 7.24 8.42 1.44 1.51 1.44 1.51 1.44 3.86.7.24 1.39.47 2.11.71 4.69 2.97 6.27 8.36 8.63 13.23 2.34 3.94 4.52 5.65 8.1 8.43 2.3 2.71 4.35 5.57 6.4 8.47.86 1.19.86 1.19 1.73 2.4 3.47 4.83 6.9 9.68 10.12 14.68 1.31 2 2.65 3.98 4.01 5.94 13.93 20.61 24.99 43.17 30.72 67.41l.91 3.8c3.36 14.3 6.45 28.65 8.93 43.13.64 3.65.64 3.65 1.96 6.76 1.48 5.13 1.54 9.83 1.55 15.14.01 1.06.01 2.12.02 3.22.01 2.24.02 4.48.02 6.72 0 3.4.05 6.8.09 10.21.01 2.18.01 4.37.02 6.56.02 1.5.02 1.5.05 3.04-.05 6.44-1.3 11.12-4.21 16.87-3.27 6.81-2.31 14.74-2.08 22.09-.19 3.74-.19 3.74-1.36 6.91-1.39 4.57-1.56 8.83-1.59 13.57l-.06 2.76c-.05 2.9-.09 5.79-.13 8.69-.05 3.81-.11 7.62-.18 11.44l-.02 2.61c-.11 5.52-1.11 10.14-2.74 15.45-.38 2.77-.38 2.77-.4 5.33-.04.94-.07 1.87-.11 2.83-.03.95-.05 1.9-.08 2.88-.32 11.6-2.12 20.98-7.39 31.39-4.6 11.19-4.22 22.66-4.16 34.54v2.88c.07 16.44.68 32.08 6.08 47.77 3.76 11.11 4.72 21.49 5.03 33.17.08 2.64.17 5.29.28 7.93.09 2.37.16 4.74.23 7.11.32 4.35.32 4.35 2.23 8.23 2.32 5.5 2.82 10.6 3.37 16.51.18 1.73.18 1.73.37 3.49.38 3.65.74 7.3 1.1 10.96.36 3.66.73 7.33 1.11 10.99.24 2.27.47 4.55.68 6.82.59 5.9.59 5.9 2.29 11.55 1.76 4.42 1.79 8.9 2.06 13.63.11 1.56.11 1.56.21 3.15.22 3.31.43 6.62.64 9.93.21 3.3.42 6.59.64 9.89.13 2.04.26 4.09.38 6.13.38 5.67 1.25 10.96 2.57 16.48.82 3.88 1 7.73 1.19 11.69.05.82.09 1.64.13 2.49.19 3.46.35 6.92.51 10.38.07 15.78.07 15.78 5.23 30.2 2.02 3.66 2.15 5.94 2.15 10.09.02 1.34.03 2.68.05 4.06l.03 4.26c.2 10.23.59 19.07 4.21 28.69 2.33 6.24 3.05 12.9 4.01 19.46.94 6.2 2.19 11.86 4.29 17.78 2.22 6.77 2.68 12.96 2.87 20.02.23 8.11 1.09 14.94 3.82 22.66 2.07 6.22 3.64 12.55 5.23 18.91.31 1.21.61 2.42.93 3.67l.88 3.53c.26 1.04.52 2.07.79 3.14.88 4.27 1.39 8.51 1.89 12.84 1.28.26 2.57.52 3.89.79 13.11 2.74 25.68 6.36 38.34 10.69.93.31 1.85.62 2.8.95 22.6 7.64 44.31 16.7 66.07 26.49 4.83 2.16 9.68 4.27 14.59 6.27 12.03 4.93 22.98 10.5 33.94 17.5 5.25 3.34 10.68 6.27 16.16 9.2 9.29 5.06 17.41 10.83 25.53 17.59 1.3 1.06 2.59 2.11 3.89 3.16 11.92 9.81 22.67 20.35 32.31 32.44 3.64 4.46 7.52 8.68 11.42 12.91 2.29 2.5 4.51 5.04 6.72 7.61 4.48 5.12 9.22 9.92 14.06 14.71 1.33 1.31 1.33 1.31 2.68 2.66 2.79 2.78 5.59 5.56 8.4 8.34 3.69 3.66 7.38 7.33 11.07 11 .83.82 1.67 1.64 2.52 2.49 4.67 4.65 9.12 9.41 13.4 14.41 3.05 3.49 6.34 6.74 9.65 9.99.64.64 1.29 1.28 1.95 1.94 1.27 1.25 2.53 2.5 3.8 3.75 1.56 1.55 3.07 3.13 4.58 4.71 7.29 6.95 14.69 11.37 24.03 15.06 1 .41 1.99.82 3.02 1.24 3.75 1.53 7.49 3 11.33 4.28v32.97h-11.77v9.42h11.77c.02 91.35.04 182.7.05 274.05v4.09c.01 29.36.01 58.71.01 88.07.01 14.39.01 28.79.01 43.18v4.34c0 46.48.01 92.95.02 139.43.01 47.73.02 95.47.02 143.21 0 6.73 0 13.47.01 20.2v4.02c0 21.38 0 42.76.01 64.14.01 21.47.01 42.94.01 64.41 0 12.77 0 25.55.01 38.32v40.13c.01 4.42 0 8.83 0 13.24 0 2.36 0 4.72.01 7.07-.01 1.38-.01 2.76-.01 4.17v3.63c-.15 2.67-.15 2.67-1.32 3.84-1.83.18-3.67.28-5.5.35-1.17.05-2.34.1-3.55.14-1.28.05-2.56.1-3.87.14-1.31.05-2.62.1-3.97.16-2.78.1-5.56.21-8.34.31-4.23.15-8.47.31-12.7.48l-8.11.3c-1.26.05-2.52.1-3.82.15-6.54.24-13.06.38-19.61.33v5.88h-133.04v5.89c-11.18.41-22.37.8-33.55 1.18-.82.03-1.65.05-2.49.08-24.49.83-48.95 1.49-73.45 1.1-.78 1.94-1.56 3.88-2.36 5.88h-5.88v44.74h-5.89c-.11 2.05-.11 2.05-.22 4.14-.55 10.41-1.18 20.8-2.14 31.18h-5.88V3649h-7.07l.09 1.96c.21 9.33-1.07 18.27-2.44 27.48h-5.89v21.19h-5.89c-.77 4.66-1.55 9.32-2.35 14.13h-5.89v15.3h-7.06c-.11 1.72-.11 1.72-.22 3.48-.1 1.5-.19 3-.3 4.54-.09 1.49-.19 2.98-.29 4.51-.37 3.95-.37 3.95-1.55 7.49h-5.88v9.42h-5.89c-.78 4.66-1.55 9.32-2.35 14.12h-5.89v9.42h-7.07c-.17 1.51-.34 3.01-.51 4.56-.32 2.81-.57 4.68-1.84 7.22h-5.89v8.24h-5.88c-.78 3.11-1.56 6.21-2.36 9.42h-5.88v11.77h-9.42v8.24h-5.89c.17 1 .34 1.99.51 3.02-.67 5.26-2.72 7.18-6.53 10.7-2.22 1.59-2.22 1.59-5.68 2.1-.8-.17-1.6-.34-2.43-.51.17.8.34 1.6.52 2.43-.72 4.78-3 6.82-6.46 10.07-3.19 2.25-5.57 2.27-9.36 1.63v5.88h-8.25v9.42h-5.88v5.89c-1.67.4-3.34.79-5.01 1.18-.93.21-1.85.43-2.81.66-2.78.51-2.78.51-7.49.51v5.89h-5.89v5.89h-8.24v9.41H4188v5.89c-3.88.78-7.77 1.56-11.77 2.36v5.88h-8.24v5.89c-5.09 1.86-9.92 2.89-15.31 3.53v5.89h-8.24v5.89c-1.36.15-1.36.15-2.75.3-1.77.25-1.77.25-3.58.51-1.17.15-2.35.3-3.56.45l-3.06 1.09c-.78 1.94-1.55 3.89-2.35 5.89h-14.13v5.88c-2.53 2.53-7.75 2.05-11.26 2.43-1.42.16-1.42.16-2.88.33l-7.05.78v5.88h-14.13v5.89c-2.6.4-5.2.79-7.8 1.18-1.45.22-2.9.43-4.39.66-3.84.46-7.49.61-11.36.51v5.89h-27.08v5.89c-2.08 2.08-5.15 1.6-7.99 1.81-1.37.1-2.75.2-4.17.31-1.45.1-2.9.2-4.4.31-2.18.16-2.18.16-4.4.32-3.61.27-7.22.52-10.83.78v5.89h-56.51v5.88c-11.93.03-23.87.05-35.8.06l-16.62.03c-5.34.02-10.69.02-16.03.03-2.04 0-4.09 0-6.13.01-2.85.01-5.7.01-8.56.01-.85 0-1.7.01-2.57.01-5.86-.01-5.86-.01-8.48-1.32v-4.71h-48.27c-.58-2.92-.58-2.92-1.18-5.89-.95-.07-1.9-.13-2.88-.2-4.29-.29-8.58-.6-12.87-.9-2.24-.16-2.24-.16-4.53-.31-1.43-.11-2.85-.21-4.32-.31-1.32-.1-2.64-.19-4-.28-3.19-.35-3.19-.35-5.54-1.53v-5.89h-23.55v-5.89c-.7-.05-1.39-.11-2.11-.17-10.37-.98-10.37-.98-14.37-3.36-.74-2.44-.74-2.44-1.18-4.71-1.11.04-2.21.08-3.36.13l-4.44.09c-1.45.04-2.89.09-4.39.13-4.67-.38-7.4-1.39-11.36-3.88-2.86-4.29-2.54-6.72-2.35-11.77h-15.31v-8.24h-8.24v-5.89c-.84.09-1.68.19-2.54.29-8.97.59-8.97.59-13.06-1.92-3.85-3.71-6.6-6.93-6.77-12.5-1.21-.24-2.43-.49-3.68-.74-5.13-1.47-8.62-4.27-11.62-8.68-.44-3.38-.44-3.38 0-5.89h-7.07l-1.17-5.88-7.07-1.18v-8.24h-5.89v-5.89h-5.88v-8.24c-1 .15-1.99.29-3.02.44-4.96-.54-7.03-2.06-10.62-5.38-2.55-3.25-2.76-6.33-2.85-10.36-1.94-.39-3.88-.78-5.88-1.18v-7.07c-1.12.03-2.24.05-3.39.08-3.68-.08-3.68-.08-6.03-1.25v-10.6c-1.94-.39-3.89-.78-5.89-1.18v-8.24l-3.46.08c-3.6-.08-3.6-.08-4.78-1.26-.05-2.35-.05-4.71 0-7.06-2.33-.39-4.66-.78-7.06-1.18-.27-1.5-.54-3.01-.81-4.56-.56-2.58-.56-2.58-1.55-4.86-2.92-1.88-2.92-1.88-5.88-2.35v-8.24l-5.89-1.18v-7.06c-1.71.03-1.71.03-3.46.07-3.61-.07-3.61-.07-4.78-1.25-.09-2.38-.1-4.76-.08-7.14.01-1.3.02-2.6.04-3.94.01-1.01.02-2.01.04-3.05-2.33-.39-4.67-.78-7.07-1.18-.15-1.23-.15-1.23-.31-2.49-.24-1.61-.24-1.61-.5-3.25-.15-1.06-.3-2.13-.45-3.23-.36-.92-.72-1.85-1.09-2.8-1.94-.78-3.89-1.55-5.89-2.36v-14.12c-1.94-.39-3.88-.78-5.89-1.18-.77-3.5-1.55-6.99-2.35-10.6-1.94-.39-3.89-.77-5.89-1.17v-16.49c-2.33-.39-4.66-.77-7.06-1.17l-1.77-7.44c-.33-1.38-.65-2.76-.99-4.18-.77-3.69-.77-3.69-.77-7.22h-2.36v-15.31h-5.88v-14.13h-9.42v-23.54h-5.89v-4.71h-2.36c-1.7-5.34-2.63-9.63-2.35-15.31-1.75-.58-1.75-.58-3.53-1.18v-3.53h-2.36c-.4-2.77-.79-5.54-1.17-8.31-.12-.78-.23-1.55-.34-2.35-.71-5.12-.95-10.08-.84-15.24-1.75-.58-1.75-.58-3.53-1.18-1.4-9.44-2.69-18.68-2.36-28.25-2.33-.39-4.66-.78-7.06-1.18v-28.26c-1.94-.39-3.89-.77-5.89-1.18v-12.95h-10.6v5.89h-54.15v-5.89h-576.91v-4.71c-1.16-.58-1.16-.58-2.35-1.17v5.88h-54.16v-2.35h-2.36v-3.53h-25.9v5.88h-7.06v-5.88h-566.31v5.88h-323.77v5.89h-9.42v8.24h-5.89v68.29h-5.89c-.1 2.05-.1 2.05-.21 4.14-.56 10.41-1.18 20.8-2.14 31.18h-5.89c.07 1.4.14 2.81.21 4.25.05 1.85.11 3.69.16 5.54l.15 2.8c.05 2.6.05 4.89-.52 7.42-2.83 1.95-2.83 1.95-5.88 3.54-1.47 3.44-1.47 3.44-2.14 7.28-.27 1.28-.55 2.56-.83 3.88-.19.98-.37 1.96-.57 2.97h-5.88v15.3h-5.89c-.78 4.66-1.55 9.33-2.36 14.13h-5.88c.07.81.13 1.62.21 2.45.05 1.06.1 2.12.16 3.22.06 1.05.13 2.1.2 3.18-.19.97-.38 1.93-.57 2.92-.94.56-1.87 1.12-2.83 1.7-3.37 1.6-3.37 1.6-4.41 5.27-.26 1.27-.52 2.54-.78 3.85-.28 1.28-.55 2.56-.84 3.88-.18.98-.37 1.95-.56 2.96h-5.89c.07.87.14 1.74.21 2.63.44 9.49.44 9.49-3 13.93-1.02.75-2.04 1.51-3.09 2.28-.78.78-1.56 1.55-2.36 2.36h-5.89v14.12h-9.41v15.31h-5.89l-.15 3.75c-1.38 6-2.96 7.12-8.09 10.38-3.39.37-3.39.37-5.89 0v9.42h-7.06c-.17 1.5-.34 3.01-.52 4.56-.32 2.8-.57 4.67-1.84 7.21h-5.89v8.24h-8.24v5.89h-5.88v9.42h-7.07c-.17 1.14-.34 2.28-.51 3.46-.67 3.6-.67 3.6-1.84 4.78-1.96.05-3.93.05-5.89 0v5.89h-5.89c-.77 3.1-1.55 6.21-2.35 9.41h-5.89v5.89h-5.88v5.89h-9.42v8.24h-8.24v5.89h-5.89v9.41h-9.42v5.89c-.82.2-1.65.4-2.49.61-1.07.28-2.15.57-3.25.86-1.07.28-2.13.55-3.23.83-2.98 1-2.98 1-4.36 3.72-.26.73-.53 1.47-.8 2.22h-5.89v5.89h-15.3v9.42h-8.24v5.89h-15.31v8.24h-14.13v5.88c-2.52 2.53-7.75 2.05-11.25 2.43-.95.11-1.9.22-2.88.33l-7.06.78v5.88h-14.13v5.89c-3.14.4-6.28.79-9.42 1.18-.87.11-1.75.22-2.65.34-5.83.71-11.48.94-17.36.83v5.89h-23.55v5.89c-2.01 2.01-4.72 1.59-7.47 1.81-1.27.1-2.54.2-3.85.31-2.01.15-2.01.15-4.06.31-1.34.1-2.68.21-4.07.32-3.32.27-6.65.52-9.98.78v5.89h-50.63v5.88H1250.5v-5.88h-52.98v-5.89c-.95-.07-1.89-.13-2.86-.2-4.27-.29-8.54-.6-12.82-.9-1.48-.11-2.97-.21-4.5-.31-2.13-.16-2.13-.16-4.31-.31-1.31-.1-2.63-.19-3.98-.28-3.32-.35-3.32-.35-6.85-1.53v-5.89h-29.44v-8.24h-15.3v-5.89h-14.13v-9.42h-15.31v-5.88h-8.24v-5.89c-3.88-.78-7.77-1.55-11.77-2.35v-5.89h-9.42v-9.42h-5.89v-5.89h-8.24v-5.88c-3.11-.78-6.21-1.56-9.42-2.36v-5.89h-5.88v-7.06c-1.14-.17-2.29-.34-3.46-.51-3.61-.67-3.61-.67-4.79-1.84-.04-1.97-.05-3.93 0-5.89h-5.88v-5.89c-3.11-.77-6.22-1.55-9.42-2.35v-5.89h-5.888v-9.42h-5.886v-5.88h-8.242v-8.25h-5.887v-5.88h-9.418v-15.31h-7.065c-3.336-1.63-5.295-3.81-7.064-7.06-.577-4.39-.422-8.56 0-12.95h-5.887v-9.42h-9.418v-14.13h-5.887c-3.681-2.48-5.77-4.53-8.242-8.24-.23-3.18-.23-3.18-.147-6.7l.065-3.54.082-2.71h-7.064c-.777-4.67-1.554-9.33-2.355-14.13h-5.886l-1.178-14.13c-1.554-.39-3.108-.78-4.709-1.18l-.607-3-.865-3.91c-.273-1.29-.546-2.57-.828-3.89-1.01-3.88-1.01-3.88-5.942-5.68v-15.31h-5.886c-2.525-2.52-2.048-7.75-2.429-11.25l-.324-2.88c-.264-2.35-.522-4.71-.779-7.06h-5.887v-14.13H876.1c-2.703-16.05-2.703-16.05-2.355-23.54h-5.887v-21.2h-5.886c-2.013-2.01-1.591-4.71-1.808-7.47l-.31-3.85-.311-4.06-.324-4.06c-.264-3.33-.524-6.66-.779-9.99h-5.887l-1.177-47.09c-1.555-.78-3.109-1.56-4.71-2.36-1.232-3.83-1.232-3.83-2.06-8.39-.286-1.51-.571-3.01-.865-4.57l-.607-3.52c-1.274.18-2.549.36-3.862.54-6.358.79-12.719 1.07-19.118 1.32-1.937.08-1.937.08-3.913.15-13.304.47-26.566.29-39.871-.02l-7.726-.15c-6.71-.14-13.419-.28-20.128-.43-5.372-.12-10.744-.22-16.117-.33-30.594-.62-61.184-1.35-91.77-2.26v-5.89H434.591v-4.71l-4.41.15c-6.947 0-13.578-1.23-20.388-2.5-1.244-.22-2.487-.45-3.769-.68-3.038-.55-6.073-1.11-9.108-1.67v-5.89H381.61v-5.89c-4.662-.78-9.324-1.55-14.128-2.35v-11.78h-5.887v-9.42h-9.419v-14.12h-5.887c-.399-2.21-.79-4.42-1.177-6.63l-.662-3.72c-.5-3.67-.604-7.15-.515-10.85h-5.887v-14.12h-5.887c-1.863-5.1-2.886-9.93-3.532-15.31h-5.887v-23.55h-5.886v-14.13h-8.242v-23.54h-5.887c-2.018-2.02-1.593-4.74-1.807-7.5l-.312-4.01c-1.542-21.52-1.524-42.4-.309-63.92l.155-2.78c.148-2.62.305-5.24.466-7.85l.28-4.66c.35-3.47.35-3.47 1.527-4.65h5.887v-43.56h-35.321v-5.89c-1.629.05-1.629.05-3.292.11-27.315.86-54.601 1.27-81.929 1.22-2.92 0-5.841-.01-8.761-.01-42.543-.04-84.9-.91-127.36-3.67v-5.89H14.274l-1.178-5.89c-.836-.15-1.672-.31-2.534-.47a599.95 599.95 0 0 0-3.279-.63c-1.079-.2-2.158-.41-3.27-.62-2.69-.63-2.69-.63-3.867-1.81a71.951 71.951 0 0 1-.142-4.97L0 3181.62l.013-3.59v-3.76c0-4.12.01-8.25.019-12.37l.005-8.55c.004-7.51.016-15.03.029-22.54.012-7.67.017-15.33.023-22.99.013-15.05.033-30.1.058-45.14 1.336-.04 1.336-.04 2.699-.07 22.334-.61 44.556-1.8 66.838-3.46 2.84-.22 5.68-.43 8.52-.64 1.845-.14 1.845-.14 3.728-.28 37.952-2.72 75.865-2.86 113.896-3.01 6.098-.03 12.195-.06 18.293-.08 18.85-.09 37.701-.16 56.551-.23 5.929-.03 11.858-.05 17.787-.07 83.429-.33 166.858-.6 250.287-.07 4.684.03 9.368.05 14.052.08 9.544.05 19.088.12 28.632.2l9.152.06c37.834.24 37.834.24 55.505 4.75 8.691 2.16 17.232 2.05 26.114 1.91 1.796-.02 3.591-.03 5.387-.05 4.762-.04 9.523-.1 14.284-.18l8.692-.12c9.78-.14 19.56-.29 29.339-.45.978-.02 1.957-.04 2.965-.05l15.004-.27c67.931-1.3 67.931-1.3 94.085 13.8v5.89c1.505.17 3.011.34 4.562.51 2.804.32 4.673.57 7.211 1.84.762 10.95-1.337 19.27-6.291 29.02-3.221 6.39-4.565 11.08-4.673 18.3-.3 7.3-.3 7.3-2.548 10.46-1.597 1.41-3.223 2.8-4.87 4.16-4.477 4.49-7.226 9.94-10.253 15.47-8.171 14.69-18.203 21.5-34.266 26.29-6.802 1.76-13.655 2.7-20.618 3.59-1.365.18-2.73.37-4.136.56-5.624.75-11.25 1.49-16.877 2.22-1.445.2-2.889.39-4.378.59-1.298.18-2.597.35-3.935.52-3.694.56-3.694.56-6.983 1.87-4.092 1.25-7.423 1.47-11.695 1.5l-2.318.03c-2.548.03-5.095.04-7.643.05l-5.503.06c-3.947.04-7.894.07-11.841.09-6.27.05-12.539.11-18.809.17-15.59.16-31.181.29-46.773.41-12.086.1-24.173.2-36.26.33-5.196.05-10.393.1-15.59.13-36.053-.13-36.053-.13-71.531 5.55-4.442 1.13-8.422 1.39-12.995 1.52-9.21.5-15.449 2.74-23.032 7.8-2.663.23-2.663.23-5.519.15-.952-.02-1.903-.05-2.884-.07-.723-.03-1.447-.05-2.193-.08l-.69 4.79a1868.74 1868.74 0 0 0-1.413 9.92c-.682 4.84-1.374 9.68-2.188 14.51-5.457 33.84-.233 68.5 7.087 101.61l.673 3.1c3.281 14.96 3.281 14.96 9.563 28.87 1.096 2.03 1.096 2.03 1.096 4.38 1.179.13 2.358.25 3.573.38 4.48.47 8.958.96 13.436 1.44 1.919.21 3.838.41 5.757.61 11.083 1.17 22.056 2.56 33.012 4.62 25.688 4.83 52.615 2.24 78.514.68l8.322-.48c2.685-.16 5.37-.31 8.055-.47 1.215-.07 2.429-.14 3.681-.22 5.737-.34 11.453-.76 17.174-1.3 9.161-.78 18.323-.74 27.509-.74 1.917-.01 3.835-.01 5.752-.02 3.998 0 7.997-.01 11.996 0 5.073 0 10.147-.02 15.221-.04 3.955-.01 7.91-.02 11.864-.02 1.869 0 3.737 0 5.605-.01 13.078-.06 25.74.65 38.595 3.28 4.265.83 8.574.95 12.905 1.17.98.05 1.96.1 2.97.15 2.072.1 4.144.21 6.217.31 3.131.15 6.262.32 9.393.48 5.723.29 11.447.55 17.173.78 1.322.06 2.644.12 4.006.18 6.902.18 12.338-.77 18.732-3.34 1.727-.67 3.455-1.34 5.183-2l2.566-1c2.284-.83 4.628-1.5 6.972-2.15 12.202-3.45 17.85-10.09 24.941-19.95 1.289-1.74 2.58-3.47 3.872-5.21a598.288 598.288 0 0 0 18.456-26.49c2.982-4.5 6.032-8.95 9.093-13.4.798-1.17.798-1.17 1.612-2.35 1.032-1.5 2.068-3 3.109-4.49 1.051-1.52 2.082-3.05 3.096-4.59 1.354-2.02 2.831-3.95 4.324-5.87 3.9-.51 3.9-.51 7.064 0l-.441-3.38c.062-7.73 5.025-14.05 10.182-19.42 1.999-1.92 4.001-3.84 6.006-5.75 3.31-3.46 6.003-7.16 8.683-11.11 6.033-8.79 13.05-16.4 20.487-24.02 2.244-2.32 4.447-4.67 6.648-7.03 1.452-1.52 2.905-3.04 4.36-4.56.663-.72 1.325-1.44 2.008-2.18 4.741-4.86 4.741-4.86 9.655-5.41 1.512.22 1.512.22 3.054.45l.901-3.19c4.156-11.08 15.573-18.89 24.433-26.31 3.68-3.08 7.21-6.3 10.72-9.58 5.4-4.96 11.1-9.3 17.02-13.62 3.43-2.63 6.55-5.42 9.69-8.38 7.28-6.66 13.41-8.71 23.18-9.56.48-1.57.48-1.57.96-3.17 2.36-6.59 4.53-10.26 10.91-13.65 3.53-1.32 6.8-1.15 10.5-.84-.11-.88-.22-1.76-.33-2.67.33-3.22.33-3.22 2.5-5.52 7.25-5.06 14.54-9.19 22.5-13 5.16-2.48 9.91-5.24 14.7-8.39 13.17-8.27 28.14-12.06 43.21-15.37 4.57-1.05 8.42-2.16 12.45-4.6 7.57-4.41 16.22-3.73 24.77-3.84 5.08-.17 8.86-.74 13.4-3.11 6.16-2.83 11.65-3.15 18.37-3.24 1.29-.04 2.58-.07 3.91-.11 4.69-.1 9.37-.16 14.06-.2.93-.01 1.87-.02 2.83-.02 15.62-.14 31.25-.15 46.88-.13 4.76.01 9.51 0 14.27-.01h20.56c11.78-.01 23.54.17 35.31.69 1.06.05 2.12.09 3.22.14 9.1.44 18.03 1.53 27.04 2.86 9.28 1.35 18.36 2.53 27.75 2.33 50.14-.74 105.67 35.54 144.74 63.61.78.55 1.56 1.11 2.37 1.69 4.15 3.16 4.91 5.12 5.87 10.08 2.79 2.1 2.79 2.1 6.33 3.75 6.86 3.74 12.19 8.11 17.82 13.5 2.5 2.36 5.05 4.43 7.78 6.52 3.29 2.73 3.39 3.33 4.49 7.87.03 1.21.05 2.43.08 3.68h5.88v5.89h5.89v5.88c.67.15 1.34.29 2.03.44 8.27 2.21 11.7 5.88 16.81 12.51 1.11 1.35 2.22 2.69 3.33 4.02 10 12.03 19.26 24.55 28.46 37.19 2.74 3.76 5.49 7.51 8.24 11.26.68.92 1.36 1.85 2.06 2.8 4.73 6.41 9.58 12.71 14.5 18.98 13.73 17.56 26.18 35.66 38.01 54.55 2.88 4.56 5.83 9.07 8.79 13.59 4.12 6.34 8.15 12.73 12.06 19.21.66 1.07.66 1.07 1.32 2.17 3.63 6.06 5.82 10.47 5.67 17.55 12.46.31 24.33-.57 36.65-2.28 2.41-.33 4.82-.66 7.23-.98 2.18-.29 4.36-.59 6.54-.89 13.84-1.68 27.58-1.9 41.49-1.86 2.13 0 4.25.01 6.38.01 5.8 0 11.6.01 17.4.03 6.27.01 12.54.01 18.82.02 10.85.01 21.71.03 32.57.04 17.18.03 34.36.05 51.54.06 5.88 0 11.77.01 17.65.01 1.47.01 2.94.01 4.46.01 16.72.01 33.44.03 50.16.05h4.63c24.75.03 49.5.06 74.25.1 25.45.04 50.89.06 76.34.08 15.67 0 31.35.02 47.03.06 10.75.02 21.5.03 32.25.03 6.19 0 12.38 0 18.58.03 5.68.02 11.36.02 17.05.01 2.04 0 4.08 0 6.12.01 17.04.1 33.28-2 49.89-5.82 8.24-1.8 16.74-1.85 25.14-1.83h3.2c3.54-.01 7.08 0 10.61 0 2.59 0 5.17 0 7.75-.01 7.1 0 14.19.01 21.28.01 4.49.01 8.98.01 13.48.02 21.92.01 43.84.06 65.76.12l11.7.03c25.3.07 50.61.15 75.92.27l6.34.03c1.04 0 2.08.01 3.16.01 7.3.04 14.61.06 21.92.08 9.01.03 18.03.07 27.04.12 4.64.03 9.27.05 13.9.06 18.19.04 36.06.57 54.15 2.73 38.38 4.46 77.17 4.1 115.75 4.03 6.95-.01 13.9-.01 20.85-.01 11.61 0 23.22-.01 34.83-.03 13.41-.02 26.82-.02 40.23-.02 14.37 0 28.74-.01 43.11-.02h12.35c6.44 0 12.88-.01 19.33-.02 2.36-.01 4.72-.01 7.08-.01 3.22 0 6.44 0 9.65-.01h2.84c4.51-.02 8.66-.32 13.05-1.34 2.6-.1 5.2-.14 7.8-.13h2.3c2.49 0 4.98.01 7.47.02h5.2a2832126.187 2832126.187 0 0 1 27.6.06c9.11.01 18.22.03 27.34.05v2.36c11.57-.05 23.15-.12 34.72-.22 5.38-.04 10.76-.08 16.13-.1 5.2-.02 10.4-.06 15.6-.12 1.97-.01 3.95-.02 5.92-.02 12.51-.02 23.33-.89 34.77-6.61 2-.26 4.01-.48 6.03-.66 1.07-.1 2.14-.2 3.25-.3.82-.07 1.64-.14 2.49-.21l.03-2.08c.1-7.12.22-14.25.34-21.37.05-2.66.09-5.32.13-7.98.05-3.82.12-7.64.19-11.46.01-1.19.03-2.38.04-3.61.04-1.66.04-1.66.07-3.36.02-1.46.02-1.46.05-2.95.33-2.53.33-2.53 2.68-6.06 1.9-8.67 2.52-17.59 2.99-26.43.08-1.38.08-1.38.15-2.79.48-9.38.64-18.76.74-28.16.03-1.85.05-3.71.07-5.57.07-4.97.12-9.94.18-14.91.06-5.23.12-10.45.19-15.67.12-9.86.23-19.72.35-29.57.13-11.24.26-22.47.4-33.71.28-23.08.55-46.16.82-69.24h5.88c0-1.07 0-1.07-.01-2.16-.39-56.1.26-112.18 1.04-168.28.07-4.82.13-9.65.2-14.48.13-10.24.28-20.49.42-30.73l.15-10.37c.21-15.67.45-31.35 1.04-47.01l.1-3.22c.47-10.95 1.72-17.84 8.84-26.33 1.61-4.44 2.45-9.07 3.36-13.7.21-.91.42-1.82.64-2.76.17-.83.33-1.65.5-2.5 2.24-3.63 5.69-4.69 9.63-5.77 3.31-.46 6.55-.5 9.88-.47 1.41 0 1.41 0 2.83-.01 1.98 0 3.95.01 5.92.02 2.95.02 5.9 0 8.85-.02 24.29-.03 49.63 3.57 68.21 20.63 10.21 11.16 9.43 26.26 9.39 40.41 0 1.99.01 3.98.01 5.97.01 5.45.01 10.9 0 16.36-.01 5.88 0 11.77.01 17.65.01 11.53.01 23.06 0 34.58-.01 9.38-.01 18.75 0 28.12V2942.57c.01 25.42 0 50.84-.01 76.25-.01 21.8-.01 43.59 0 65.39.01 25.32.02 50.63.01 75.95v12.14c-.01 9.35 0 18.7 0 28.06.01 11.41.01 22.81-.01 34.22v17.46c.01 5.33.01 10.66-.01 16 0 1.92 0 3.84.01 5.76.07 27.19.07 27.19-4.5 37.01-4.23 9.55-3.06 21.01-3.03 31.3.01 2.62 0 5.23 0 7.85v9.65c.17 4.72.68 9.22 1.33 13.89 3.96 1.32 4.39 1.2 7.95-.52 9.84-5.31 14.91-14.8 20.21-24.26 2.76-3.91 5.45-5.73 9.52-8.19 7.17-5.6 9.91-11.17 11.77-20.01.92-.1 1.83-.2 2.78-.3 3.19-.56 3.19-.56 4.64-2.9.39-.86.79-1.72 1.19-2.61 3.38-6.66 7.8-12.05 12.59-17.74.79-1.01 1.59-2.02 2.41-3.06 6.57-8.04 6.57-8.04 11.71-8.79 1.17.03 2.34.05 3.54.08l-.15-4.34c-.14-4.2.47-7.26 2.5-10.97 2.68-1.6 2.68-1.6 5.81-2.72 1.03-.38 2.07-.77 3.13-1.16 2.83-.83 2.83-.83 6.37-.83.17-1.11.34-2.23.51-3.38.66-3.68.66-3.68 1.84-6.04 1.05-.52 2.1-1.03 3.19-1.57 4.08-2.06 7.11-4.42 10.57-7.4 1.25-1.07 2.49-2.14 3.74-3.2.62-.53 1.24-1.06 1.87-1.61 1.66-1.39 3.37-2.71 5.08-4.03 6.63-5.11 12.11-10.63 17.49-16.99 9.36-11.04 19.51-19.24 31.29-27.6 6.7-4.8 12.8-9.92 18.76-15.62 7.83-7.44 15.81-14.24 24.72-20.36.99-.69 1.99-1.37 3.02-2.08 2.13-1.46 4.27-2.92 6.4-4.37 2.32-1.58 4.63-3.18 6.94-4.78 3.58-2.49 7.18-4.94 10.79-7.39 1.67-1.16 1.67-1.16 3.36-2.35 7.07-4.72 11.47-6.37 19.97-5.45v-7.06c17.07-8.8 34.23-17.26 51.87-24.87.73-.32 1.47-.64 2.22-.96 8.16-3.53 16.33-6.83 24.77-9.65 2.58-.81 2.58-.81 3.55-3.37 3.05-.67 3.05-.67 6.99-1.18 1.38-.2 2.77-.39 4.19-.59 1.36-.2 2.72-.39 4.13-.59 2.16-.34 4.32-.71 6.47-1.1 1.33-.24 1.33-.24 2.69-.48 2.76-.69 2.76-.69 5.42-2.56 9.2-5.21 22.56-2.85 32.71-2.07 4.74.34 9.47.63 14.22.77 1.44.05 2.88.11 4.36.17 1.78-.3 1.78-.3 3.59-.61l1.53-2.96c2-2.93 2-2.93 5.31-3.56 1.37.05 2.73.1 4.14.16.77.02 1.54.05 2.33.07 2.63.1 5.26.24 7.88.4l2.86.15c6.41.35 12.82.78 19.23 1.22 19 1.32 38 2.42 57.03 3.2 38.55 1.61 76.85 6.86 113.97 17.8v2.35c.73.21 1.45.42 2.2.63 21.83 6.38 42.25 16.33 62.55 26.45 1.04.52 2.07 1.03 3.13 1.56 31.45 15.78 59.45 35.74 85.18 59.67l2.6 2.28c2.11 2.42 2.11 2.42 2.7 5.47.3 2.95.3 2.95 2.56 4.51.85.47 1.71.94 2.59 1.42 11.72 7.31 20.16 18.09 28.45 28.92 3.83 4.99 7.85 9.81 11.87 14.64 6.49 7.83 12.66 15.81 18.69 23.99 1.08 1.44 2.16 2.88 3.25 4.31 6.99 9.27 13.86 18.62 20.62 28.06 3.81 5.29 7.72 10.48 11.75 15.61 7.51 9.7 14.06 19.86 19.92 30.63 5.39 9.9 11.59 18.91 18.3 27.97 3.16 4.27 6.17 8.63 9.13 13.04 9.2 14.5 9.2 14.5 23.76 22.37 5.05.61 10.04.87 15.13.99.97.05 1.95.11 2.95.16 5.54.14 5.54.14 10.38-2.24 1.71-1.77 3.32-3.63 4.92-5.5 4.14-1.38 7.37-1.29 11.74-1.25.81 0 1.61.01 2.44.01 3.44.02 6.88.05 10.32.09 13.73.33 13.73.33 27.3-1.21.74-.77 1.48-1.55 2.25-2.35 4.09-3.92 9.28-3.33 14.75-3.61 8.51-.47 13.8-1.05 20.61-6.45 2.95-2.09 5.88-3.13 9.26-4.36 13.3-5.51 18.33-15.1 23.77-27.97 2.13-6.29 2.69-11.71 2.66-18.26 0-.97.01-1.93.01-2.93.01-3.19.01-6.37 0-9.55 0-2.24 0-4.48.01-6.71 0-4.69-.01-9.38-.02-14.07-.01-5.96 0-11.91.01-17.86.01-4.63.01-9.25 0-13.88 0-2.19 0-4.38.01-6.57.03-15.23-.09-30.71-3.86-45.56-.11-2.21-.21-4.42-.28-6.64-.37-10.98-2.46-20.52-5.6-31.04-1.23-4.58-2.32-8.95-2.43-13.71-.26-11.59-5.04-19.95-10.52-29.85-.65-1.21-1.29-2.42-1.95-3.66-1.66-3.13-3.38-6.21-5.12-9.29-.58-1.04-1.16-2.09-1.76-3.16-2.69-4.7-5.23-8.8-9.2-12.51-3.17-3.17-3.17-3.17-3.64-6.19-.23-.95-.46-1.89-.7-2.86-2.19-1.25-2.19-1.25-5.08-1.84-6.78-2.12-12.27-5.41-18.26-9.18-12.7-7.8-25.9-14.37-39.29-20.89-22.94-11.21-45.27-22.77-66.88-36.38-2.24-1.38-4.48-2.75-6.72-4.13-6.02-3.69-12.02-7.43-18.01-11.18l-5.25-3.27c-3.16-1.97-6.32-3.94-9.46-5.92a593.89 593.89 0 0 0-7.58-4.68c-18.27-11.23-35.11-25.75-50.34-40.8l-1.76-1.73c-3.29-3.32-5.7-6.66-8.02-10.71a105.93 105.93 0 0 0-3.46-3.9c-4.05-4.61-7.8-10.05-8.66-16.24l-.83-2.23c-.88-.27-1.76-.55-2.66-.83-5.1-2.4-6.6-6.77-9.04-11.68-.52-1.01-1.03-2.02-1.56-3.06-18.4-36.98-20.52-77.61-23.24-118.17-.07-1.04-.14-2.08-.21-3.15l-.39-5.85c-.3-4.55-.65-9.1-1.07-13.63-.07-.84-.15-1.67-.23-2.52-.51-2.69-1.54-4.7-2.81-7.11-6.11-34.53-1.94-75.19 15.3-105.97.54-1.01 1.07-2.03 1.61-3.07 2.26-3.3 4.42-4.84 7.81-6.93 1.02-.65 2.04-1.29 3.09-1.95 12.65-6.91 24.89-10.04 38.92-12.66 9.55-1.81 18.25-3.89 27.05-8.21 10.14-4.83 21.84-4.71 32.85-5.55 9.27-.85 16.06-2.85 24.07-7.54 5.81-2.83 10.51-3.65 17-3.83 9.84-.51 17.51-4.14 26.38-8.04 14.43-6.16 29.69-9.71 44.89-13.38 12.24-2.97 24.1-6.51 35.89-10.96 4.17-1.47 4.17-1.47 7.7-1.47l-.75-2.25c-3.79-12.83-3.3-25.7-3.29-38.97-.02-13.78-.99-25.72-5.37-38.84-.54-1.7-.54-1.7-1.08-3.44-5.02-15.98-5.02-15.98-16.88-26.97-1.6-.68-1.6-.68-3.24-1.38-1.15-.52-2.3-1.05-3.49-1.6-9.88-4.15-20.23-6.6-30.65-8.99v-2.36c-6.61-.39-13.21-.77-20.02-1.18v2.36h-17.66v-3.53c-18.84-3.2-37.42-4.28-56.51-4.79-4.14-.11-8.28-.22-12.42-.36-2.55-.08-5.1-.15-7.65-.2-1.14-.04-2.29-.08-3.47-.11l-3.03-.08c-2.86-.35-2.86-.35-5.61-1.53-3.28-1.23-5.65-1.49-9.13-1.55l-3.67-.06-4.06-.04c-1.46-.03-2.92-.05-4.42-.07-4.18-.06-8.36-.11-12.55-.15l-8.31-.09c-69.14-.81-138.29-.61-207.43-.63-10.05 0-20.1 0-30.15-.01-34.55-.01-69.09-.03-103.63-.03h-29.07c-34.87-.01-69.73-.03-104.59-.05-37.06-.03-74.12-.05-111.18-.05H3683.12c-16.05 0-32.09-.02-48.14-.03-16.09-.02-32.18-.02-48.27-.02-9.53.01-19.07.01-28.61-.01-7.13-.02-14.26-.01-21.39 0-2.88 0-5.76 0-8.63-.01-24.33-.08-58.31.58-77.45 18.12-4.07 4.76-7.23 9.82-10.25 15.29-.66 1.15-1.32 2.29-2.01 3.47-8.12 14.93-12.43 31.54-17.22 47.78-2.71 8.81-6.09 15.83-11.53 23.3-2.32 3.13-2.32 3.13-3.89 6.8-2.45 4.54-5.04 7.17-9.97 8.94-2.5.7-5.01 1.29-7.55 1.84-1.31.31-1.31.31-2.64.62-2.13.49-4.27.97-6.41 1.44v3.54c-.99.07-1.98.14-3.01.21-1.29.1-2.58.2-3.91.3-1.28.1-2.56.19-3.89.29-3.26.17-3.26.17-5.67 1.55-2.36.05-4.71.05-7.07 0v3.53h-15.3c-.39-1.16-.78-2.33-1.18-3.53-2.62-1-2.62-1-5.81-1.62-10-2.53-18.6-5.65-24.51-14.5-6.42-11.89-7.54-23.33-7.47-36.56 0-1.19 0-2.38.01-3.61 0-3.78.02-7.56.03-11.33.01-2.58.01-5.15.02-7.72.01-6.28.03-12.57.05-18.85-1.94-.39-3.88-.78-5.88-1.18-.06-26.12-.1-52.25-.12-78.38-.02-12.13-.03-24.26-.06-36.39-.02-10.58-.04-21.15-.04-31.73-.01-5.59-.01-11.19-.03-16.79-.02-5.27-.02-10.54-.02-15.81 0-1.94 0-3.87-.01-5.8-.01-2.65-.01-5.29-.01-7.93v-4.48c.29-4.01.29-4.01 1.46-7.31 1.68-5.37 1.52-10.48 1.5-16.08.01-1.24.01-2.48.02-3.76.02-4.15.02-8.3.02-12.45l.03-8.93c.02-6.41.04-12.82.04-19.22.02-9.27.04-18.54.07-27.81.05-15.04.09-30.09.12-45.13v-2.73c.01-.9.01-1.8.01-2.73l.09-38.35v-2.73c.04-14.99.08-29.99.13-44.98.03-9.25.05-18.5.06-27.75.02-7.08.03-14.15.05-21.23.01-2.91.02-5.82.02-8.73 0-3.96.02-7.92.03-11.87v-3.53c0-1.05.01-2.11.01-3.2.01-1.37.01-1.37.01-2.77.15-2.37.15-2.37 1.33-5.9l-4.71-1.18v-621.64c1.94-.39 3.88-.78 5.88-1.18v-105.96c-1.94-.39-3.88-.78-5.88-1.18v-34.14c-1.94-.39-3.89-.78-5.89-1.18v-8.24c-1.12-.34-2.23-.68-3.38-1.03-3.68-1.33-3.68-1.33-6.04-3.68-24.35-5.39-50.84-3.77-75.63-4.25-10.15-.2-20.29-.46-30.42-.94-.88-.03-1.75-.07-2.65-.1-6.15-.32-6.15-.32-8.98-1.78-2.72-1.32-4.5-1.49-7.51-1.53l-3.13-.06-3.49-.03-3.79-.06c-4.35-.06-8.69-.11-13.04-.15-2.36-.04-4.73-.07-7.09-.1-11.65-.15-23.3-.27-34.94-.38l-11.35-.12c-72.37-.73-144.74-1.36-217.12-1.1l-1.17-3.53H2649.2v3.53h-15.31v-2.35c-.78.08-1.56.16-2.36.24-8 .79-15.95 1.17-23.99 1.3l-4.01.08-13.61.21c-.81.01-1.62.02-2.46.04-55.84.84-111.69.64-167.53.62H2368.56c-31.59 0-63.17-.01-94.75-.01-31.22-.01-62.43-.01-93.64-.02H2081.11c-48.79 0-97.57-.01-146.35-.02-16.9 0-33.8 0-50.7-.01h-3.18c-48.86 0-97.72-.01-146.59-.01h-9.53c-21.06 0-42.13-.01-63.19-.01-41.9 0-83.79 0-125.69-.01h-5.99l-268.88-.03h-2.54c-41.9 0-83.8-.01-125.71-.02v-3.53c-102.96-1.58-205.933-3.15-457.155-3.67-8.089-.01-16.177-.01-24.266-.01-18.599-.01-37.197-.02-55.795-.01H578.35c-27.615-.01-55.195.04-82.792 1.08-8.158.3-16.307.31-24.469.26v5.88h-14.128v5.89c-1.554.39-3.108.78-4.709 1.18-2.693 11.21-2.679 22.25-2.635 33.7a5916.031 5916.031 0 0 0 .014 23.69c.011 6.3.009 12.6.008 18.9 0 11.04.01 22.08.025 33.12.022 16.42.03 32.83.036 49.25.01 26.77.029 53.55.053 80.32.027 28.2.047 56.41.058 84.62l.001 2.57.011 28.5a463057.46 463057.46 0 0 0 .022 55.37 583249.884 583249.884 0 0 0 .072 133.81 1049348.13 1049348.13 0 0 0 .093 139.39l.002 2.79.02 27.79.006 8.33a374229.643 374229.643 0 0 1 .094 183.28 223085.666 223085.666 0 0 0 .009 28.44c.01 27.35.031 54.7.06 82.05.03 28.31.047 56.61.051 84.92.002 16.32.015 32.65.041 48.97.017 10.9.021 21.79.015 32.69-.004 6.22-.001 12.43.017 18.64.016 5.65.016 11.31.003 16.96-.002 2.03.002 4.06.013 6.09.061 12.28-.576 23.66-5.254 35.2-1.194 3.03-1.359 5.23-1.336 8.48l.005 3.41.043 3.7.016 3.93c.013 2.81.031 5.63.054 8.44.036 4.45.055 8.91.071 13.36.041 11.07.102 22.13.175 33.19.062 9.35.111 18.69.139 28.04.012 2.95.031 5.9.058 8.85.036 4.13.051 8.26.062 12.39l.049 3.68c-.008 6.85-.734 11.65-3.945 17.72-16.445.92-32.855 1.43-49.326 1.46-3.608.02-7.215.05-10.823.09-15.205.08-30.365.02-44.121-7.36-1.094-.57-2.188-1.14-3.316-1.72-8.642-5.27-8.642-5.27-9.929-10.42l-.221-3.24c-2.914-.58-2.914-.58-5.886-1.18-4.465-11.65-4.439-23.37-4.857-35.68l-.28-7.41c-1.469-40.39-1.79-80.81-2.18-121.22l-.113-11.62c-.113-11.6-.223-23.2-.319-34.79-.206-30.47-.206-30.47-.971-60.93l-.104-3.36c-.201-4.62-.334-7.16-2.95-11.08-.295-3.34-.295-3.34-.297-7.5l-.01-2.33c-.009-2.59-.001-5.19.007-7.79a4784.011 4784.011 0 0 1-.01-21.26c.005-5.65-.004-11.3-.011-16.94-.01-9.92-.011-19.83-.007-29.74.006-14.74-.001-29.48-.011-44.23-.018-27.85-.02-55.71-.017-83.57.002-21.51 0-43.03-.005-64.54l-.002-9.26-.003-13.96c-.01-43.28-.015-86.55-.01-129.83v-2.47l.003-27.31v-2.49l.002-9.97c.006-52.54-.003-105.08-.025-157.62l-.016-39.69-.001-2.47c-.01-25.12-.015-50.24-.016-75.35v-2.39c-.001-18.09-.001-36.19.001-54.28l.001-18.57.001-4.62c.001-23.02-.007-46.04-.019-69.07-.015-26.18-.016-52.37-.002-78.56.008-14.66.006-29.32-.01-43.97-.01-9.8-.007-19.59.007-29.38.007-5.58.009-11.16-.004-16.74-.013-5.08-.009-10.16.008-15.24.003-1.82.001-3.64-.009-5.46-.048-10.11.7-19.51 3.154-29.36 3.145-14 2.324-29.23 2.572-43.55.662-36.81.662-36.81 10.922-46.98 2.368-1.85 4.797-3.44 7.354-5.01 1.207-.85 1.207-.85 2.438-1.71 22.355-14.84 47.65-16.49 73.594-17.26 8.65-.41 16.564-2.26 24.84-4.7 16.322-4.69 32.441-4.92 49.27-4.86h7.274c6.625 0 13.25.01 19.875.03 7.159.02 14.318.02 21.476.02 12.392.01 24.784.02 37.176.04 17.921.03 35.843.05 53.764.06 8.357 0 16.715.01 25.072.01h2.535l59.65.06h2.634c13.23.02 26.459.03 39.688.05 14.129.02 28.258.03 42.386.05h2.639l59.621.06h2.53c8.332 0 16.665.01 24.997.01 17.906.01 35.813.03 53.719.06 13.042.02 26.084.04 39.125.04 7.069 0 14.137.01 21.205.03 6.463.01 12.923.02 19.393.02 2.34 0 4.68 0 7.03.01 3.17.01 6.35.01 9.52 0 .92.01 1.84.02 2.79.02 4.49-.02 7.75-.26 11.59-2.66 15.58-2.84 32.21-2.57 48.01-3.01.91-.02 1.81-.05 2.74-.07 27.84-.74 55.7-.56 83.55-.49l24.28.03c14.46.01 28.91.03 43.37.05.85 0 1.71.01 2.59.01 9.6.01 19.19.03 28.78.05h2.63c1.75 0 3.49.01 5.24.01.87 0 1.73 0 2.62.01h2.62c14.44.03 28.89.05 43.33.06 8.85 0 17.71.02 26.56.04 6.78.02 13.56.03 20.34.03 2.76 0 5.52.01 8.28.02 24.09 1.35 24.09 1.35 47.12-3.8 1.61-3.14 1.61-3.14 1.18-7.06-12.06-16.514-38.51-23.745-56.51-30.615-3-1.164-5.99-2.345-8.98-3.532l-4.15-1.647c-3.42-1.392-6.78-2.895-10.13-4.433-15.66-7.129-31.56-12.77-47.9-18.085-12.41-4.043-24.64-8.425-36.84-13.073-7.94-2.984-15.89-5.471-24.09-7.649-10.15-2.715-18.98-6.664-28.2-11.644-3.54-1.878-7.16-3.588-10.8-5.28-.71-.334-1.43-.668-2.17-1.012-6.8-3.136-13.72-5.99-20.63-8.858-6.58-2.75-13.02-5.716-19.44-8.821-9.59-4.64-19.35-8.783-29.24-12.743-9.2-3.735-17.99-8.115-26.83-12.598-8.23-4.143-16.52-8.152-24.8-12.187l-3.03-1.48a2059.085 2059.085 0 0 0-47.64-22.47c-152.658-69.738-152.658-69.738-192.009-119.393l-2.727-3.376c-15.044-19.193-20.682-38.22-19.642-62.556.595-4.895 1.753-8.566 4.635-12.657 3.535-5.569 4.594-11.556 5.961-17.955h5.887v-5.886c10.623-5.312 31.512.757 42.453 3.904 2.286.805 2.286.805 3.463 1.982.048 1.962.051 3.926 0 5.887l4.121.221c13.631 1.524 27.002 7.237 39.442 12.73 1.667.713 3.335 1.425 5.003 2.134l3.238 1.398v2.355l3.123.979c3.686 1.287 7.007 2.785 10.486 4.549 18.709 9.333 37.653 17.667 57.056 25.456 9.36 3.761 18.68 7.594 27.9 11.681.86.377 1.71.754 2.59 1.143a235.77 235.77 0 0 1 13.58 6.628c9.08 4.752 18.42 8.555 28 12.185l2.24.85c15.16 5.728 30.52 10.686 46 15.454a4205.995 4205.995 0 0 1 25.3 7.909c15.08 4.752 30.04 9.831 44.95 15.081l3.36 1.179c4.26 1.499 8.52 3 12.78 4.504 27.68 9.769 55.31 19.252 84.23 24.634 16.55 3.082 32.22 8.335 48.13 13.76 2.35.787 4.7 1.572 7.06 2.355-.8-3.872-1.38-6.175-3.53-9.419-2.88-1.805-2.88-1.805-6.33-3.238-7.07-3.127-11.62-7.031-17.03-12.364-5.73-5.535-12.01-9.867-18.79-14.033-5.88-3.77-5.88-3.77-7.34-8.238-.37-1.1-.75-2.201-1.14-3.334-3.62-1.851-3.62-1.851-8.02-2.87-12.82-3.747-23.53-9.681-33.76-18.295-3.14-2.532-6.4-4.691-9.8-6.871-14.35-9.439-26.19-20.947-37.25-34.028-6.53-7.646-13.68-14.672-20.81-21.75-1.27-1.268-2.55-2.536-3.82-3.805-2.34-2.332-4.69-4.661-7.03-6.989-8.22-8.17-8.22-8.17-11.2-11.263-5.35-5.513-11.06-10.325-17.05-15.13-3.58-2.987-6.83-6.17-10.03-9.548-2.18-2.152-4.41-4.132-6.73-6.125-8.67-7.57-16.75-15.784-24.91-23.893a1107.64 1107.64 0 0 0-6.27-6.172c-3.04-2.98-6.07-5.978-9.09-8.982-.94-.91-1.87-1.82-2.84-2.758-5.18-5.204-7.59-8.663-9.2-15.785-2.11-1.115-4.24-2.205-6.43-3.141-31.11-16.343-50.99-55.923-65.39-86.338-.4-.847-.81-1.693-1.22-2.566-6.71-14.131-12.408-28.593-17.845-43.249-2.199-5.919-4.376-11.781-7.056-17.501-2.37-5.207-3.643-10.402-4.71-16.009a3244.71 3244.71 0 0 1-.596-3.068c-1.934-10.575-2.503-21.082-2.715-31.811l-.143-4.567c-.167-8.961.786-17.264 2.498-26.044.4-2.329.792-4.659 1.177-6.991l.593-3.495c.412-2.57.786-5.147 1.132-7.727l.556-4.084.474-3.711c.849-3.741 2.015-6.246 4.309-9.313 3.164-.368 3.164-.368 5.887 0l.855-4.48c1.502-6.716 3.978-12.888 6.651-19.214.775-1.844.775-1.844 1.563-3.725 5.67-13.228 12.26-25.905 19.19-38.513.65-1.197 1.31-2.393 1.98-3.626 2-3.631 4.02-7.253 6.04-10.87.6-1.089 1.21-2.177 1.83-3.298 9.63-16.997 9.63-16.997 14.87-22.236 1.96-.048 3.93-.051 5.89 0l.15-2.796c2.59-10.761 10.57-19.525 17.31-28.068 2.6-3.261 2.6-3.261 4.91-6.812 3.68-.22 3.68-.22 7.06 0 .11-.833.22-1.666.33-2.525 5.17-20.533 28.38-35.932 44.32-47.738 3.68-2.76 7.29-5.606 10.91-8.457 27.84-21.556 63.66-43.054 97.94-51.951 6.2-1.648 10.5-3.652 15.28-7.924 3.75-2.887 7.98-2.828 12.57-2.92l3.41-.102c2.36-.061 4.72-.113 7.08-.156 6.23-.202 10.17-.524 15.38-4.204 6.41-2.257 12.09-2.693 18.85-2.66l3.13-.012c3.39-.01 6.79-.003 10.19.005l7.16-.007c5-.004 10.01.001 15.02.012 6.35.014 12.7.006 19.05-.008 4.93-.009 9.87-.006 14.81 0 2.33.002 4.67 0 7.01-.005 11.84-.022 23.59.223 35.39 1.352l2.88.269c10.6 1.133 19.63 4.608 28.61 10.4 5.29 3.378 10.62 5.152 16.56 6.99 16.56 5.227 29.69 14.536 43.55 24.752 4.05 2.971 8.16 5.78 12.38 8.508 18.08 11.915 33.62 26.64 48.93 41.87 1.41 1.406 1.41 1.406 2.86 2.84a310.605 310.605 0 0 1 16.2 17.543c1.51 1.723 1.51 1.723 3.06 3.482 13.37 15.497 25.12 32.262 36.85 49.015 2.28 3.251 4.57 6.494 6.87 9.728 8.33 11.708 16.44 23.553 24.41 35.509 1.95 2.932 3.92 5.858 5.88 8.785 11.71 17.498 22.36 35.391 31.98 54.117l2.22 4.261c5.29 10.226 5.29 10.226 5.29 12.884h2.35c.38.985.76 1.969 1.16 2.984 5.27 13.401 11.08 26.544 16.94 39.695 10.04 22.543 19.96 44.936 27.9 68.316 9.03 30.851 9.03 30.851 24.27 58.544 4.63 6.024 5.87 12.459 7.66 19.7 3.07 11.966 7.19 23.496 11.33 35.121 5.18 14.559 10.2 29.148 14.87 43.88.43 1.375.87 2.751 1.32 4.168 2.12 6.712 4.23 13.43 6.31 20.154 6.43 20.576 13.88 40.69 24.59 59.468.53.962 1.06 1.924 1.61 2.916 2.74 4.901 5.7 9.176 9.21 13.567.3 3.311.3 3.311 0 5.886l2.94.148c9.32 2.328 14.89 9.497 21.05 16.409 5.59 6.227 11.12 12.046 19.57 14.055 5.05-.625 7.33-3.275 10.6-7.064 1.36-2.721 2.21-5.411 3.07-8.325.27-.895.55-1.791.83-2.713.24-.835.48-1.67.72-2.53 1.27-2.915 1.27-2.915 3.96-6.493 4.22-5.731 6.58-12.199 9.15-18.792.52-1.31 1.03-2.62 1.56-3.97 5.06-13.072 9.23-25.739 9.94-39.85.48-7.719 2.15-14.806 4.32-22.186.31-1.05.61-2.1.93-3.182 1.06-3.626 2.13-7.249 3.19-10.872.62-2.09.62-2.09 1.24-4.222 5.14-17.54 10.49-34.957 16.71-52.15 2.06-5.762 4.06-11.457 5.38-17.434 1.05-4.458 2.83-8.412 4.71-12.583 2.9-6.553 5.02-13.017 6.84-19.941 2.2-8.267 4.34-16.165 9.21-23.322 4.83-7.184 6.77-13.86 8.24-22.289 2.57-13.898 9.65-26.6 15.68-39.272 2.1-4.433 4.2-8.872 6.29-13.312.61-1.29.61-1.29 1.23-2.607 7.12-15.12 13.75-30 18.66-46h2.36c.05-.923.09-1.846.15-2.796 1.63-6.793 5.6-12.4 9.52-18.134 3.52-5.435 4.31-10.873 5.17-17.247.46-3.031.46-3.031 1.64-5.385h5.89c.28-1.509.56-3.018.85-4.572 1.41-6.31 3.84-11.851 6.65-17.651.77-1.604.77-1.604 1.56-3.241 4.63-9.413 10.08-18.162 15.8-26.943 3.15-4.846 6.04-9.795 8.84-14.85.63-1.128.63-1.128 1.27-2.28 1.78-3.21 3.57-6.422 5.34-9.636 1.51-2.709 3.04-5.405 4.57-8.099.46-.823.91-1.646 1.37-2.493 2.95-5.125 6.11-8.466 10.71-12.154 2.86-2.535 4.49-5.498 6.32-8.827 4.7-7.995 10.29-14.717 16.4-21.666 2.34-2.718 4.55-5.542 6.78-8.356 4.49-5.532 9.35-10.527 14.44-15.504 3.19-3.134 6.24-6.3 9.11-9.736 4.81-5.663 10.38-10.515 15.86-15.512 5.61-5.11 10.9-10.385 15.85-16.13 3.15-3.617 6.34-7.184 9.64-10.669.83-.885 1.66-1.77 2.51-2.681 3.26-2.523 5.72-2.912 9.78-3.28.08-.876.16-1.753.24-2.656 2.11-7.26 11.31-11.182 17.54-14.724 3.71-1.963 7.45-3.858 11.21-5.725 7.85-3.925 15.37-7.888 22.6-12.877 4.51-2.968 9.31-5.357 14.12-7.8 1.95-.994 3.89-1.992 5.84-2.994.84-.43 1.69-.86 2.56-1.303 2.49-1.326 2.49-1.326 4.76-3.233 2.66-1.87 4.44-2.325 7.64-2.786l2.98-.448 3.08-.421 3.11-.462c7.4-1.083 7.4-1.083 10.28-1.083V9.79l2.4.004c18.05-.07 34.13-1.766 51.29-7.482 7.56-2.042 15.12-2.144 22.89-2.18ZM1269.9 149.946c-4.14 1.602-7.92 2.05-12.34 2.305l-.03 2.704c-1.14 3.183-1.14 3.183-5.05 5.262-1.66.607-3.32 1.189-5 1.747-.81.301-1.63.601-2.46.911-5.63 1.992-10.95 2.943-16.89 3.504v7.064c-.66.319-1.33.637-2.01.965-2.85 1.467-5.52 3.095-8.24 4.803-1.05.661-2.11 1.323-3.2 2.005-2.2 1.381-4.4 2.764-6.6 4.148-6.14 3.838-12.29 7.292-18.8 10.449-4.04 2.566-6.03 4.706-7.95 8.978-2.5 5.424-6.15 9.233-10.22 13.553-2.25 2.51-4.31 4.985-6.35 7.662-.56.739-1.12 1.478-1.7 2.239a377.8 377.8 0 0 0-3.24 4.38c-2.71 3.586-4.33 5.4-8.48 7.417-3.49 1.376-3.49 1.376-4.62 4.595-.26 1.177-.52 2.355-.78 3.569-1.9 7.205-4.68 13.439-8.03 20.088-3.77 7.56-6.36 14.147-6.9 22.706-.6 2.534-.6 2.534-2.93 4.001-.79.293-1.57.586-2.38.888-2.44 2.442-1.43 7.648-1.46 11.014l-.03 3.044c-.01 2.141-.03 4.282-.04 6.423-.02 3.22-.07 6.439-.12 9.658-.12 13.733.77 25.827 7.06 38.348 1.94 3.915 2.49 7.324 3.13 11.646 4.31 25.473 14.47 51.048 31.06 70.941 2.41 2.975 4.66 6.065 6.93 9.15 6.05 8.234 12.33 16.044 19.4 23.443.83.922 1.67 1.843 2.53 2.792 7.61 8.105 16.27 14.241 25.32 20.636 13.95 9.88 27.13 21.119 38.08 34.263 1.17.777 2.33 1.554 3.54 2.354.81 3.091.81 3.091 1.17 5.887h7.07c-.13 1.087-.26 2.174-.39 3.293.13 1.245.25 2.489.39 3.771 2.65 2.251 2.65 2.251 6.25 3.827 5.36 2.857 9.66 5.747 14.06 9.934 13.4 12.609 28.77 22.653 44 32.892 1.17.794 1.17.794 2.37 1.604 2.26 1.525 4.53 3.039 6.8 4.55.68.458 1.35.916 2.05 1.388 4.13 2.721 8.03 4.463 12.77 5.851 1.97.77 3.93 1.55 5.89 2.354v7.064c1.17.574 2.34 1.148 3.55 1.739 19.17 9.636 39.41 21.705 53.64 38.08 7.26 8.197 18.33 13.162 28.6 16.672 2.51 1.2 2.51 1.2 3.5 3.431 1.79 3.249 3.59 4.02 6.89 5.656 1.13.568 2.25 1.136 3.41 1.721 1.2.593 2.41 1.186 3.65 1.798 2.47 1.261 4.95 2.525 7.42 3.794 1.21.619 2.42 1.239 3.67 1.877 9.81 5.081 19.07 10.085 26.8 18.096 7.26 7.002 15.96 10.21 25.16 14.071 21.17 8.894 40.08 20.773 58.88 33.841 17.48 12.128 33.8 21.677 55.04 25.232 1.59.321 3.19.649 4.78.984l2.42.507 2.36.496c4.47.92 8.23 1.545 12.81 1.545v2.355c9.64 2.326 19.25 2.792 29.12 3.129l3.14.113 2.81.085c2.57.202 4.83.74 7.31 1.382 3 .208 5.98.378 8.98.515 7.38.389 14.44 1.236 21.63 3.017 4.29-4.566 5.78-7.834 5.89-14.128-1.33-4-3.06-7.392-5.1-11.075-3.99-7.477-6.61-14.63-8.88-22.774-3.91-13.789-10.06-25.65-17.18-38.018-5.45-9.495-9.78-19.116-13.58-29.386-1.44-3.854-2.89-7.704-4.34-11.553l-1.21-3.196c-2.53-6.66-5.23-13.219-8.07-19.755-8.06-18.555-15.1-37.461-22.13-56.423-.87-2.33-1.73-4.661-2.6-6.991-.42-1.141-.84-2.283-1.28-3.458a887.426 887.426 0 0 0-6.9-18.004c-.49-1.227-.97-2.454-1.48-3.718-.93-2.338-1.86-4.674-2.81-7.007-2.13-5.349-3.65-10.175-4.52-15.887-1.31-3.288-1.31-3.288-2.99-6.558-.61-1.239-1.21-2.477-1.83-3.753-.65-1.308-1.29-2.617-1.95-3.965-5.07-10.609-8.96-20.727-11.45-32.212-1.33-6.115-3.15-11.2-6.28-16.664-1.42-2.821-2.16-5.336-2.88-8.4-2.37-9.027-5.88-17.593-9.33-26.242-.52-1.293-.52-1.293-1.04-2.611-5.16-12.984-10.46-25.878-16.4-38.523-.45-.944-.89-1.889-1.35-2.861-2.94-6.245-5.92-12.472-8.91-18.696-1.52-3.17-3.02-6.348-4.51-9.528-4.5-9.565-9.07-19.026-14.15-28.298-4.8-8.769-8.58-17.855-12.18-27.171-2.27-5.803-4.66-10.798-8.35-15.876-4.28-6.649-7.96-13.498-11.41-20.604-5.32-10.842-11.58-21.002-18.03-31.2-.73-1.17-1.47-2.339-2.23-3.544-18.73-29.727-18.73-29.727-41.33-56.501-.94-1.003-1.88-2.007-2.86-3.04-7.17-7.455-15-13.744-23.2-20.006a1507.18 1507.18 0 0 1-11.32-8.743c-.7-.538-1.41-1.076-2.13-1.63-3.15-2.446-5.35-4.439-7.58-7.789-3.06-1.175-3.06-1.175-6.7-2.06-6.07-1.734-11.59-3.96-17.22-6.77-41.72-20.252-87.48-5.276-127.4 12.412Zm1073.19 2.305c-.99.474-1.99.949-3.01 1.438-21.99 10.584-43.54 23.108-60.57 40.947v2.355c-.68.279-1.37.558-2.07.846-3.19 1.824-4.9 3.954-7.2 6.806-4.39 5.163-4.39 5.163-8.69 6.402-3.37.883-3.37.883-4.34 3.491-.72 2.044-1.44 4.089-2.15 6.135-2.5 5.85-6.59 10.521-10.48 15.506-10.69 13.796-19.36 28.214-27.46 43.665-1.18 2.212-2.36 4.421-3.54 6.628l-1.82 3.427c-.59 1.068-1.19 2.136-1.8 3.237-.52.956-1.04 1.912-1.58 2.897-2.39 2.831-4.14 3.033-7.75 3.39-.19.842-.38 1.684-.58 2.552-.87 3.862-1.77 7.719-2.66 11.576-.3 1.325-.6 2.65-.9 4.015-2.3 9.808-5.28 17.377-11.03 25.603-4.59 6.731-7.5 14.088-10.59 21.597-1.23 2.961-2.48 5.919-3.72 8.876-.9 2.127-.9 2.127-1.81 4.297-2.09 4.855-4.35 9.605-6.68 14.348-4.22 8.635-7.46 17.562-10.55 26.658-2.62 7.56-5.28 13.225-11.09 18.891-5.15 5.961-5.02 15.597-5.28 23.142-.34 1.081-.69 2.161-1.05 3.275-1.35.552-2.71 1.105-4.11 1.674-1.36.613-2.72 1.226-4.13 1.858-1.25 3.933-1.25 3.933-1.25 8.536-.91 12.109-5.31 22.189-10.61 32.966-4.92 10.017-9.2 19.935-12.71 30.537-4.62 13.934-9.98 27.516-15.45 41.134a1271.605 1271.605 0 0 0-28.26 77.558c-1.69 5.128-3.39 10.254-5.08 15.38-.37 1.116-.73 2.233-1.11 3.383-2.75 8.29-5.89 16.389-9.11 24.508-3.99 10.381-6.92 21.057-9.78 31.799l-1.11 4.076c-.31 1.199-.63 2.398-.95 3.633-1.12 3.169-1.12 3.169-2.92 5.557-2.13 2.849-2.56 5.098-3.2 8.58-.23 1.191-.47 2.382-.71 3.608l-1.38 7.506c-.35 1.784-.35 1.784-.71 3.603-.3 1.629-.3 1.629-.6 3.291-1.24 3.433-2.86 4.212-5.73 6.344-.64 2.374-.64 2.374-.46 4.981.02.945.03 1.89.05 2.863l.12 2.973.06 3.015c.06 2.454.14 4.908.23 7.361 1.84.965 3.68 1.92 5.52 2.869 1.02.533 2.05 1.066 3.1 1.615 6.04 2.686 12 2.795 18.52 2.86l2.78.029c1.94.016 3.89.029 5.83.038 1.95.014 3.9.038 5.85.073 16.89.302 31.34-2.047 46.92-8.956 1.68-.719 3.37-1.436 5.05-2.152l2.61-1.12c3.85-1.618 7.73-3.139 11.62-4.665a458.448 458.448 0 0 0 32.31-14.138v-3.533c2.09-1.745 2.09-1.745 5.04-3.578l3.27-2.057c1.75-1.071 1.75-1.071 3.53-2.165a2298.538 2298.538 0 0 1 10.71-6.625c2.93-1.8 5.84-3.623 8.75-5.456 1.54-.954 3.07-1.906 4.61-2.856l2.06-1.307c4.19-2.545 7.78-3.706 12.65-4.212v-7.064c.95-.292 1.9-.583 2.87-.883 3.32-1.163 6.39-2.437 9.57-3.9 3.69-1.678 7.05-2.935 11.11-3.459 0-.848-.01-1.697-.01-2.571 1.87-5.228 6.03-6.721 10.75-9.276.88-.495 1.76-.991 2.67-1.501 1.75-.982 3.5-1.955 5.26-2.918 2.38-1.316 4.73-2.68 7.08-4.057 3.35-1.861 5.8-2.767 9.57-3.224.07-.886.14-1.773.21-2.687 1.31-4.342 3.13-5.082 7.03-7.307 1.26-.735 2.52-1.47 3.81-2.228 1.33-.75 2.67-1.501 4.04-2.274 2.58-1.488 5.16-2.98 7.75-4.475 1.28-.74 2.57-1.48 3.89-2.243 5.11-3.072 9.99-6.442 14.85-9.888 3.25-1.919 5.7-2.62 9.42-3.115 5.62-.782 7.6-2.736 11.28-6.908 3.24-3.189 6.81-5.523 10.64-7.956 1.02-.65 1.02-.65 2.05-1.313 3.55-2.227 7.11-4.201 10.9-5.999 5.25-2.567 9.7-5.96 14.35-9.465 8.59-6.299 16.66-10.223 26.94-13.025.06-1.085.13-2.17.2-3.288.97-3.776.97-3.776 3.71-5.97 1.14-.563 2.27-1.126 3.44-1.706 1.13-.578 2.25-1.156 3.41-1.752 3.12-1.309 5.92-2.072 9.25-2.589l.06-2.64c1.65-4.807 5.27-5.98 9.58-8.104 6.76-3.561 12.95-7.354 18.91-12.141l2.03-1.631c3.31-2.695 6.55-5.459 9.75-8.276 10.17-8.866 10.17-8.866 15.59-9.667l4.13-1.104c1.14-2.183 1.14-2.183 1.93-4.847 2.85-6.914 7.52-9.998 13.59-14.064 2.03-1.422 4.05-2.848 6.07-4.277.96-.671 1.92-1.342 2.9-2.034 4.73-3.403 8.94-7.298 13.18-11.276 1.59-1.378 3.19-2.752 4.78-4.12 9.7-8.531 17.64-17.841 25.49-28.046 5.87-7.615 11.92-14.99 18.4-22.098 2.15-2.369 2.15-2.369 4.31-5.781l2.91-.989c3.23-1.121 3.23-1.121 4.59-4.314.42-1.188.83-2.376 1.26-3.601 3.09-8.115 7.41-14.53 12.51-21.496 2.45-4.028 3.49-7.404 4.56-11.985 1.47-6.036 3.22-11.771 5.45-17.586 6.43-17.51 7.75-36.009 7.77-54.536.01-1.21.01-2.421.01-3.667.01-2.543.01-5.086.01-7.628.01-3.821.03-7.641.05-11.461.06-20.963-.61-39.968-8.21-59.723-.49-1.349-.99-2.697-1.49-4.087-3.46-9.336-7.48-18.344-11.76-27.334-1.9-4.041-3.79-8.089-5.66-12.142-.7-1.462-.7-1.462-1.41-2.955-2.79-6.066-4.23-11.2-4.7-17.869h-7.07l-.81-1.854c-2.5-4.641-5.78-8.771-8.93-12.985-2.59-3.533-4.63-6.719-6.14-10.842-1.4-3.899-1.4-3.899-4.59-5.349l-3.37-.98c-6.73-2.443-11.5-5.77-16.92-10.301-15.56-13.252-15.56-13.252-34.59-18.912-.38-1.942-.77-3.885-1.17-5.886-13.5-3.799-27.24-5.729-41.09-7.727l-4.02-.589-3.45-.482c-3.25-.621-3.25-.621-6.7-1.845-27.03-8.47-63.33 7.358-87.2 18.884Zm260.19 239.003v15.306h1.18v-15.306h-1.18Zm845.34 1085.526c-8.23 15.72-3.74 46.5-3.77 63.93 0 1.26 0 2.51-.01 3.81-.01 6.62-.03 13.24-.03 19.85-.01 6.82-.04 13.64-.07 20.45-.02 5.27-.03 10.55-.03 15.82 0 2.52-.01 5.03-.03 7.54-.02 3.51-.01 7.01-.01 10.51l-.03 3.12c.05 7.63 2.09 12.24 6.34 18.62 10.18 4.1 22.43 2.49 33.2 2.22 2.46-.06 4.92-.09 7.39-.13l4.38-.1c3.81.31 6.15.85 9.64 2.14 5.65 2.03 10.57 2.12 16.51 1.84l3.05-.09c3.16-.1 6.33-.23 9.5-.36 2.16-.08 4.32-.15 6.49-.22 5.27-.18 10.53-.38 15.8-.59v5.89h558.07v-5.89h14.13v-8.24h5.88v-80.06h-5.88c-.07-1.27-.15-2.53-.22-3.83l-.3-5.08-.14-2.51c-.31-5.28-.88-10.44-1.7-15.66h-5.88v-8.24h-5.89v-15.31h-9.42v-8.24h-8.24v-5.89h-15.31c-.39-2.33-.77-4.66-1.18-7.06-3.83-2.28-6.06-2.36-10.59-2.36v-2.35c-44.88.58-44.88.58-90.66 1.18v-3.54h7.07v-1.17c-43.74-.98-87.47-1.33-131.21-1.51-1.37-.01-2.73-.01-4.14-.02-15.73-.06-31.45-.12-47.18-.17-17.97-.07-35.94-.14-53.9-.22-1.49 0-2.98-.01-4.52-.01l-26.89-.12c-4.43-.02-8.87-.04-13.31-.05-93.37-.4-93.37-.4-137.14-.71-5.98-.04-11.95-.08-17.93-.11-6.77-.04-13.54-.08-20.3-.14-2.38-.02-4.76-.03-7.15-.04-3.15-.02-6.3-.05-9.46-.08h-2.73c-4.8-.07-8.38-.73-12.75-2.71-5.48-.49-10.96-.49-16.46-.5-2.65-.01-5.29-.07-7.93-.13-9.21-.11-17.92-.14-25.06 6.52Zm0 315.53c-.53 3.08-.53 3.08-.7 6.85-.09 1.44-.18 2.88-.28 4.37l-.27 4.75c-.09 1.63-.19 3.26-.29 4.89-.29 4.82-.55 9.64-.81 14.46-.07 1.21-.13 2.42-.2 3.66-.42 8.2-.71 16.4-.98 24.6l-.15 4.53c-1.18 36.88-1.2 73.76-1.18 110.66v26.54c-.01 16.76 0 33.53 0 50.29.01 14.28.01 28.57 0 42.85 0 16.73-.01 33.47 0 50.21v8.05c0 6.12 0 12.24-.01 18.36-.09 42.91-.09 42.91.62 85.81.03 1.45.07 2.9.1 4.39.23 6.56.54 12.49 2.98 18.62 11.13 9.4 30.5 5.86 44.14 5.17 3.11-.16 6.22-.3 9.33-.43 9.94-.47 19.76-1.18 29.62-2.52 18.71-2.47 37.29-2.72 56.11-2.66 4.63.01 9.27 0 13.9-.01 9.01-.01 18.03 0 27.05.01 10.52.02 21.04.02 31.56.01 18.76 0 37.53.01 56.29.04 18.19.02 36.38.03 54.56.02 19.87-.01 39.74-.01 59.6.01h9.51c7.32.01 14.65.01 21.98.01 8.92-.01 17.83 0 26.75.02 4.54.01 9.09.01 13.64 0 4.92 0 9.85.01 14.77.03l4.36-.02c1.32.01 2.64.02 4 .02 1.13 0 2.27.01 3.44.01 3.73.33 6.83 1.4 10.34 2.65 2.72.32 5.46.55 8.19.69 1.21.07 1.21.07 2.45.13 11.66.58 23.33.8 35 1.01l3.98.08c37.38.68 74.77.58 112.15.53 9.87-.02 19.74-.02 29.61-.03 20.19-.01 40.39-.03 60.58-.06.01-1.47.03-2.95.04-4.47l.03-2.52c-.1-3.48-.88-6.69-1.69-10.08-1.75-7.95-2.59-15.88-3.24-23.99-.1-1.21-.19-2.43-.29-3.68-.42-5.45-.78-10.89-.94-16.36-.29-9.3-1.32-16.91-5.5-25.41-2.31-5.03-2.7-10.01-2.96-15.49-.89-16.29-2.36-32.34-4.73-48.48-.12-.82-.23-1.63-.35-2.47-1.42-9.82-3.33-19.35-5.83-28.95-1.45-5.62-2.52-11.08-3.02-16.85-.09-.89-.17-1.78-.26-2.7-.9-9.97-1.19-19.98-1.47-29.98.32-12.25.32-12.25-2.71-23.74-1.81-3.95-2.14-8.06-2.66-12.33-.12-.93-.24-1.87-.37-2.84-.39-2.99-.76-5.99-1.14-8.99-.37-2.97-.75-5.95-1.14-8.93-.24-1.85-.47-3.7-.7-5.55-.54-4.19-1.21-8.22-2.31-12.3-1.32-5-1.72-9.9-2.02-15.05l-.42-5.95c-.2-3.06-.4-6.13-.59-9.19-.64-9.86-1.28-19.49-3.42-29.16-2.7-12.34-2.98-24.93-3.62-37.52-.17-3.25-.37-6.5-.56-9.75-.07-1.47-.07-1.47-.13-2.96-.38-5.97-1.63-10.32-4.6-15.54-1.67-3.11-2.23-6.23-2.86-9.69l-.83-4.55c-.32-1.82-.63-3.64-.93-5.46-.2-1.15-.39-2.3-.59-3.49-.85-5.06-1.7-10.13-2.52-15.2-.2-1.17-.39-2.34-.58-3.54-.17-1.05-.34-2.1-.51-3.17-.46-2.56-1.02-5.05-1.69-7.56-4.44-.77-8.88-1.53-13.32-2.28-1.24-.22-2.48-.43-3.75-.65-1.24-.21-2.47-.42-3.74-.64-1.12-.19-2.23-.38-3.38-.57-10.34-1.44-20.6-1.93-31.03-1.97l-4.14-.03c-3.8-.03-7.59-.05-11.39-.07-4.2-.02-8.39-.05-12.59-.07-8.44-.06-16.88-.1-25.32-.15l-21.13-.12c-81.08-.47-162.15-.8-243.23-1.12-8.31-.03-16.61-.06-24.92-.1-41.87-.17-83.75-.32-125.62-.43l-26.84-.09c-14.47-.05-28.94-.09-43.41-.11-6.66-.01-13.31-.03-19.97-.05-6.1-.02-12.21-.03-18.31-.04-2.21 0-4.42-.01-6.63-.02-18.43-.74-18.43-.74-35.91 3.8Zm1217.39 753.51v3.53h14.13v-3.53h-14.13Zm-158.94 173.58c-9.73 2.82-17.87 3.45-28.02 3.08-12.8-.27-25.63.21-37.97 3.76-10.24 2.63-21.09 3.11-31.61 3.79-1.44.09-2.88.19-4.36.28-2.84.18-5.69.35-8.54.5-11.51.71-23.03 2.2-33.14 8.09.39 2.72.78 5.44 1.18 8.25 1.22.19 1.22.19 2.46.4 13.01 2.73 19.65 10.95 26.75 21.68 4.01 7.55 4.23 14.73 4.49 23.1.05 1.2.09 2.4.14 3.64.11 2.96.21 5.91.3 8.87-2.9-.47-5.79-.96-8.68-1.48-1.24-.19-1.24-.19-2.49-.39-5.99-1.09-5.99-1.09-8.22-3.65-.83-3.62-.85-6.96-.77-10.67l.06-4.18.09-3.18h-8.25c-.07-.81-.14-1.62-.21-2.45-.1-1.06-.2-2.12-.3-3.22-.1-1.05-.19-2.1-.29-3.18-.3-3.07-.3-3.07-1.55-6.46h-2.35c-.06 4.94-.11 9.88-.13 14.82-.02 1.67-.03 3.35-.05 5.02-.13 10.48.36 20.48 2.53 30.79h3.53c.19.66.38 1.32.57 2 4.8 16.49 9.43 30.19 21.51 42.67 5.95 6.33 9.9 13.22 13.85 20.93 2.76 5.33 5.52 9.16 9.99 13.28 1.65 1.94 3.27 3.9 4.86 5.89.78.97 1.56 1.94 2.36 2.94 2.2 2.95 2.2 2.95 3.79 5.94 2.47 3.69 5.52 5.75 9.22 8.04.74.46 1.47.92 2.22 1.39 17.04 10.37 36.47 16.51 55.25 22.9 1.08.37 2.16.75 3.27 1.14 1.01.33 2.03.66 3.07 1.01.88.3 1.77.59 2.67.9 2.87.67 2.87.67 6.14-.17 4.62-.66 7.38.33 11.77 1.89l2.25.79c2.35.83 4.69 1.68 7.04 2.53 1.59.57 3.18 1.13 4.78 1.69 11.33 4.01 11.33 4.01 14.35 5.52.06-8.63.1-17.26.12-25.89.01-4.01.03-8.02.06-12.03.15-24.22-.89-47.73-4.82-71.65-2.81-18.23-2.69-36.88-3.07-55.28-.07-2.9-.13-5.8-.2-8.7-.02-1.29-.02-1.29-.05-2.61-.14-11.8-.14-11.8-3.81-22.81-.43-2.98-.43-2.98-.62-6.31-.09-1.22-.17-2.43-.25-3.69-.16-2.54-.31-5.08-.46-7.62-.67-12.33-.67-12.33-7.14-22.34-8.62-3.26-14.83-2.25-23.32.44ZM1253 3204.25c-1.42.37-2.84.73-4.31 1.11-10.57 2.74-20.95 5.83-31.21 9.56-2.2.78-4.43 1.49-6.66 2.2-22.73 7.65-44.48 21.21-63.93 35.11-1.15.82-2.29 1.64-3.47 2.48-2.15 1.55-4.29 3.11-6.42 4.68-2.05 1.52-4.11 3.01-6.2 4.48-6.81 4.84-13.22 10-19.57 15.42-3.77 3.23-7.55 6.42-11.43 9.51-.78.62-1.56 1.24-2.36 1.88-2.35 1.58-2.35 1.58-5.26 2.49-4.2 2.04-5.93 5.31-8.28 9.17-4.4 6.95-9.11 13.48-14.2 19.94-6.87 8.83-12.73 17.91-18.17 27.67l-1.31 2.28c-17.78 31.13-26.86 64.98-32.68 100.09-1.69 10.12-3.92 19.75-7.09 29.51-1.39 4.66-2.12 9.33-2.63 14.16-.1.91-.19 1.81-.29 2.75-1.06 10.79-1.14 21.59-1.12 32.42.01 3.48-.02 6.95-.05 10.43-.07 21.71 3.1 42.09 8.59 63.04.4 1.56.8 3.12 1.2 4.67.98 3.83 1.97 7.66 2.98 11.48.63 2.41 1.25 4.83 1.87 7.24.42 1.59.83 3.18 1.24 4.77l1.11 4.3c1.37 4.6 3.19 7.9 5.81 11.91 3.01 5.26 4.96 10.1 6.53 15.97 4.79 17.76 12.46 35.57 24.08 49.96 1.1 1.4 2.21 2.8 3.31 4.21 3.04 3.83 6.1 7.63 9.18 11.42 2.13 2.65 4.24 5.32 6.35 7.99 14.3 17.8 29.64 32.67 47.56 46.91 6.37 5.25 6.37 5.25 7.7 9.68 1.74 4.72 4.41 5.45 8.78 7.63 3.28 1.76 6.07 3.8 9.03 6.06 7.36 5.46 15.17 9.78 23.21 14.15 2.66 1.47 5.28 3 7.9 4.54 26.31 15.31 54.86 24.59 84.19 32.23 1.76.48 1.76.48 3.54.97 16.37 4.45 31.35 5.64 48.27 4.91 2.06-.05 4.13-.1 6.2-.16 13.02-.4 25.81-1.63 38.41-5.17 6.2-1.72 11.97-2 18.37-2.1 29.77-1.11 61.24-16.94 85.29-33.77.94-.65 1.88-1.31 2.85-1.98 1.98-1.38 3.97-2.76 5.95-4.14 3.09-2.15 6.2-4.28 9.31-6.41 10.27-7.05 20.19-14 29.06-22.79l2.49-2.41c3.71-3.62 7.21-7.31 10.53-11.28 4.12-4.8 8.69-9.03 13.32-13.32.78-.72 1.56-1.44 2.36-2.19 3.22-2.99 6.45-5.97 9.7-8.92 7.94-7.47 13.48-16.32 19.29-25.46 3.34-5.18 6.58-10.16 10.74-14.72 2.64-2.94 4.06-5.5 5.45-9.2 2.92-7.21 8.54-12.34 14.42-17.29 1.16-.39 2.33-.78 3.53-1.18a96.43 96.43 0 0 0 4.78-9.05c.69-1.45.69-1.45 1.38-2.94 12.3-27.25 19.37-55.76 23.23-85.31.13-.93.25-1.86.39-2.81.15-1.23.15-1.23.32-2.48.51-2.19.51-2.19 2.87-5.72.24-3.31.36-6.5.35-9.81.01-.98.01-1.95.02-2.96v-6.21c0-3.11.02-6.23.05-9.34.06-15.42-1.71-29.07-7.49-43.5-1.35-5.18-1.35-10.32-1.38-15.64-.03-1.95-.05-3.89-.08-5.84-.01-1.01-.02-2.03-.04-3.07 1.48-28.21 1.48-28.21-6.74-53.16-1.96-.04-3.92-.05-5.89 0-.18-2.22-.18-2.22-.36-4.49-.87-7.82-2.29-15.98-6.7-22.59-.3-1.66-.54-3.33-.74-5-2.19-11.89-9.83-22.61-16.11-32.75-1.68-2.92-3.23-5.85-4.75-8.86l-1.52-2.98c-.99-1.96-1.97-3.93-2.94-5.9-2.96-5.82-6.1-10.08-11.01-14.4-2.09-2.26-2.78-4.16-3.7-7.08-.8-2.11-.8-2.11-1.61-4.26-.96-.19-1.91-.38-2.89-.58-3-.6-3-.6-4.41-2.54-.36-.84-.72-1.68-1.09-2.55-6.53-12.88-19.11-23.15-29.29-33.19-.99-1.06-1.98-2.12-3-3.22-2.84-2.62-4.25-3.52-7.96-4.21-1.44-.27-2.87-.53-4.35-.81.17-.82.34-1.65.52-2.5-.65-4.28-2.47-5.85-5.79-8.48-4.43-2.94-9.09-5.39-13.83-7.78-4.16-2.1-8.03-4.38-11.87-7.02-5.78-3.92-11.83-7.15-18.03-10.35-1.07-.55-2.13-1.11-3.22-1.68-4.45-2.32-8.86-4.57-13.51-6.44-3.73-1.66-3.73-1.66-6.41-3.89-4.77-3.7-10.11-5.8-15.64-8.15-1.12-.49-2.23-.99-3.38-1.5-1.07-.46-2.14-.92-3.25-1.39-1.46-.63-1.46-.63-2.95-1.28-3.08-.86-4.4-.41-7.42.42-2.4-.46-2.4-.46-4.95-1.31-.95-.3-1.9-.61-2.88-.92-1.01-.34-2.02-.67-3.06-1.01-19.02-5.99-37.71-8.72-57.66-8.73l-4.49-.02c-3.13 0-6.26-.01-9.38 0-3.17 0-6.34-.01-9.51-.03-22.75-.11-43.58.68-65.69 6.42Zm2605.31 1.51c-3.33.8-6.64 1.06-10.05 1.29-1.82.13-1.82.13-3.68.27-1.35.08-1.35.08-2.72.17v5.89h-29.43v5.89c-2 .23-2 .23-4.04.47l-5.23.63c-.88.1-1.76.2-2.67.31-4.78.51-4.78.51-9.25 2.12v5.88h-14.13v5.89c-1.44-.02-2.87-.05-4.34-.07-5.59-.05-5.59-.05-10.97 1.25-1.62 2.91-1.62 2.91-2.35 5.89l-11.78 1.17v5.89h-9.42v8.24c-6.99.58-6.99.58-14.12 1.18-.25 1.04-.49 2.09-.74 3.16-1.94 4.67-4.19 7.53-8.68 9.79-3.93.8-7.77 1.09-11.78 1.18-.77 2.72-1.55 5.44-2.35 8.24h-5.89v7.06h-9.42v5.89h-5.88v8.24h-5.89c-.78 2.72-1.55 5.44-2.36 8.24h-5.88l.03 2.59c-.28 9.06-.28 9.06-2.92 12.75-4.27 3.79-6.57 4.69-12.42 5.85v15.31h-5.88c-1.17 6.99-1.17 6.99-2.36 14.13h-5.89v15.3h-5.88c-1.4 9.41-2.71 18.79-3.53 28.26l-5.89 1.18v23.55h-5.89c-1.68 13.81-2.7 27.28-2.35 41.2h-5.89v95.37h5.89c.08 2.05.08 2.05.17 4.15.6 13.21 1.74 26.28 3.36 39.41h5.89v29.43h5.88v15.31h8.24v14.13h5.89c.78 6.99 1.56 13.99 2.36 21.19h7.06v14.13h5.89v7.06l8.24 1.18v15.31c1.86.36 1.86.36 3.75.73 4.06 1.2 6.66 2.97 9.28 6.41 2.13 4.42 2.17 9.22 2.27 14.05h5.89l1.18 9.42h7.06v8.24h5.89v5.89h9.42v9.42h5.88v5.88h8.25c.07 1.24.14 2.48.22 3.75.69 4.5.69 4.5 3.09 7.95 5.7 3.69 11.26 2.9 17.88 2.43.17 1.12.34 2.23.51 3.39.46 3.55.46 3.55 1.84 6.03h5.89v5.89h15.31v8.24h5.88v5.88h14.13c.78 3.11 1.55 6.22 2.36 9.42h12.95v5.89h14.12v5.89c2.6.4 5.2.79 7.8 1.17 1.45.22 2.9.44 4.39.67 3.85.46 7.5.61 11.36.51v5.89h38.85v5.88c8.7 3.26 17.32 3.72 26.49 3.73.93.01 1.86.01 2.83.02 1.96 0 3.93.01 5.89.01 2.94 0 5.88.02 8.81.04 20.3.84 20.3.84 39.58-3.8v-5.88h38.85v-5.89c1.07.11 2.13.23 3.23.34 9.21.84 17.68 1.57 26.2-2.69v-5.89h14.13v-7.06c5.05-.78 10.1-1.56 15.31-2.36v-5.89h14.13v-5.88c.7-.29 1.4-.59 2.13-.89 2.95-1.68 4.32-3.31 6.11-6.18v-2.35h7.06v-5.89c4.66-.78 9.33-1.55 14.13-2.35v-5.89h9.42v-5.89h5.89v-9.42h8.24v-5.88h5.88v-8.24h9.42v-5.89h5.89v-9.42l8.24 1.18v-9.42h5.89v-11.77h9.42v-8.25h5.88v-9.41h5.89c.78-3.89 1.55-7.78 2.35-11.78h5.89v-8.24h5.89c1.16-4.66 2.33-9.32 3.53-14.13 1.94-.39 3.89-.78 5.89-1.18v-14.12h5.88c.78-7 1.56-13.99 2.36-21.2h5.89v-23.54h5.88c3.87-8.52 3.69-17.26 3.61-26.42l-.02-3.29c-.01-2.66-.03-5.31-.06-7.97h5.89v-98.9h-5.89l.06-2.93c.07-4.39.12-8.79.16-13.18l.09-4.62.04-4.45c.03-2.02.03-2.02.05-4.09-.45-4.18-1.19-6.39-3.93-9.58h-5.88v-29.43h-5.89c-.06-.86-.12-1.71-.18-2.59-.54-8.98-.54-8.98-3.35-17.43l-4.71-1.18c-.39-5.44-.78-10.87-1.18-16.48-1.55-.39-3.11-.78-4.71-1.18-1.75-6.99-1.75-6.99-3.53-14.12h-5.89v-11.78H4188v-8.24h-8.24v-15.31h-7.06c-.17-1.14-.34-2.28-.52-3.45-.28-3.45-.28-3.45-1.84-4.79-1.96-.04-3.92-.05-5.88 0v-5.88h-5.89v-9.42h-8.24v-5.89h-5.89v-8.24h-9.42v-5.89h-5.88v-2.35c-1.72-1.31-1.72-1.31-3.46-2.65-3.13-2.47-3.56-3.04-4.64-7.14l-.14-3.16h-5.89v-5.89c-1.67-.4-3.34-.79-5.01-1.18-.92-.22-1.85-.43-2.81-.66-3.08-.66-3.08-.66-7.49-.51v-5.89h-8.24v-5.89c-5.09-1.86-9.92-2.88-15.3-3.53v-5.89h-14.13v-8.24h-15.31v-5.89h-14.13v-5.88c-7.83-1.72-15.55-2.89-23.54-3.53v-5.89h-27.08v-5.89c-3.37-1.68-6.32-1.42-10.08-1.52-.8-.03-1.6-.05-2.41-.08l-7.95-.21-5.57-.15c-3.92-.11-7.84-.21-11.76-.31-4.94-.13-9.88-.26-14.82-.4-17.12-.48-34.25-.95-51.37-1.08l-3.13-.04c-5.77-.01-10.97.64-16.57 2.06Zm-399.09 193.64v5.89h-5.89v4.71h-2.35c-1.26 4.07-1.3 7.82-1.25 12.07l.03 3.84c.01.97.03 1.93.04 2.93h-5.88v34.14h5.88v-29.44h8.24v-21.19h5.89v-12.95h-4.71Z"/><path fill="#FFBF00" d="M1645.54 1656.7c4.64 0 9.27-.02 13.9-.04 3.64-.01 7.28-.02 10.91-.02 1.71 0 3.41 0 5.12-.01 25.53-.13 43.29 3.63 63.63 19.12 1.01.75 2.01 1.51 3.05 2.28 20.81 16.07 37.98 35.46 53.46 56.59.78 1.05.78 1.05 1.57 2.11 20.8 28.44 33.3 61.71 44.14 94.92 2.85 8.71 5.92 17.26 9.4 25.74 4.45 13.89 4.13 28.04 4.12 42.46 0 2.32 0 4.64.01 6.97.01 4.85.01 9.71 0 14.56 0 6.16.02 12.31.04 18.46.02 4.79.02 9.59.02 14.39 0 2.26 0 4.52.02 6.79.1 21.59-2.38 42.46-7.81 63.38-.35 1.39-.71 2.77-1.07 4.2-5.08 19.33-10.86 38.92-24.46 54-5.42 6.12-8.18 12.24-10.88 19.89-2.89 8.14-6.6 15.73-10.46 23.45-8.04 16.32-14.1 33.24-16.41 51.37-.14.91-.29 1.83-.43 2.78-2.01 15.75-1.93 36.44 3.96 51.37 3.04 3.52 5.12 5.57 9.42 7.36 3.95 2.31 4.25 3.21 6.03 7.21 3.19 6.34 7.4 7.64 13.85 9.98 26.95 9.97 44.67 38.32 56.21 63.18 3.44 8.59 5.93 17.51 8.45 26.41 1.15 4.02 2.53 7.92 3.98 11.84 4.26 12.72 4.81 25.65 3.95 38.92l-.18 3.09c-.14 2.48-.3 4.96-.46 7.44-6.76.06-13.53.1-20.3.13-2.3.01-4.6.03-6.9.05-3.31.03-6.62.04-9.93.05-1.03.01-2.05.02-3.11.04-5.3 0-9.01-.46-13.91-2.62-2.62-.34-5.25-.59-7.88-.76-1.57-.11-3.15-.23-4.72-.35l-2.5-.18c-19.74-1.45-38.63-4.72-57.9-9.31l-3.96-.93c-1.26-.3-2.52-.6-3.81-.91-1.13-.27-2.25-.54-3.4-.82-5.16-1.52-8.43-3.99-12.23-7.79-1.75-3.3-1.58-5.89-1.32-9.57-.98-.21-1.95-.43-2.95-.66-9.16-3.76-16.37-11.62-20.6-20.53-.52-3.02-.39-5.16 0-8.24-.97-.22-1.94-.44-2.95-.66-14.2-5.84-23.39-21.75-32.12-33.66-2.48-3.2-5.14-6-7.98-8.87-3.44-3.72-4.63-5.95-4.63-11.04.19-1.53.38-3.06.58-4.64-.85-.19-1.7-.39-2.57-.59-4.75-2.53-6.87-6.42-9.2-11.18v-2.36h-5.89v-8.24c-1.94-.39-3.88-.77-5.88-1.17v-4.71c-2.01.03-2.01.03-4.05.07-4.19-.07-4.19-.07-5.37-1.25-.09-2.38-.1-4.76-.08-7.14.01-1.3.03-2.6.04-3.94.01-1.01.02-2.01.04-3.05h-8.24c-.39-1.94-.78-3.88-1.18-5.89-5.25-1.74-5.25-1.74-10.6-3.53v-4.71l-4.04.08c-4.2-.08-4.2-.08-5.38-1.26-.04-2.74-.05-5.49 0-8.24h-5.88v-5.88h-8.24v-9.42c-1.48-.48-2.95-.96-4.47-1.46-6.52-2.17-12.95-4.58-19.38-7-1.22-.46-2.44-.92-3.71-1.39-6.1-2.29-12.18-4.62-18.22-7.07-1.09-.43-2.18-.87-3.31-1.32-2.04-.81-4.07-1.65-6.1-2.5-6.66-2.64-12.99-3.92-20.17-2.81-.77.78-1.55 1.55-2.35 2.36-.95.21-1.89.43-2.87.66-4.19 2.35-4.54 4.91-5.81 9.38-.25.96-.49 1.92-.74 2.91-.24.92-.48 1.84-.73 2.79-.57 2.2-1.1 4.41-1.62 6.62h-5.89c-1.21 8.24-2.38 16.48-3.53 24.73-.11.79-.22 1.59-.34 2.41-4.49 32.29-8.23 64.5-9.96 97.07-.07 1.39-.14 2.79-.22 4.23-.37 7.01-.73 14.02-1.05 21.03l-.39 7.82c-.05 1.18-.1 2.36-.14 3.58-.5 9.35-1.86 19.98-7.92 27.51-16.38 10.12-37.55 10.04-56.14 10.67-3.2.11-6.39.23-9.58.36-1.97.08-3.93.15-5.9.21-4.58.18-8.02.52-11.97 2.89-15.07 2.01-35.63 4.41-49.3-3.02-7.26-8.32-5.2-22.61-5.17-33.06 0-1.95 0-3.9-.01-5.85 0-4.1 0-8.21.01-12.31.02-5.03.01-10.07 0-15.1-.05-20.33.23-40.58 1.34-60.87 1.29-24.12 1.58-48.16 1.44-72.3a6601.1 6601.1 0 0 1-.1-34.47c-.01-1.2-.01-2.39-.01-3.62-.05-26.38.18-52.76.47-79.13l.12-10.94c.13-12.41.27-24.82.41-37.24.3-26.46.58-52.91.84-79.37l.04-4.01c.37-38.01.56-76.02.5-114.02v-6.49c-.03-19.09-.07-38.18-.18-57.27-.04-7.23-.06-14.46-.08-21.7-.02-4.1-.03-8.21-.07-12.31-.16-19.28.05-36.82 7-55.03.51-1.37 1.03-2.74 1.56-4.16.38-.98.76-1.97 1.16-2.98 1.48-.22 2.96-.44 4.49-.66 43.06-6.2 43.06-6.2 85.7-14.73 10.18-2.25 20.27-2.44 30.66-2.48 2.99-.02 5.97-.05 8.95-.07.78-.01 1.55-.02 2.35-.02 31.47-.27 62.62-1.67 93.99-4.48 24.12-2.15 48.15-2.51 72.36-2.5ZM1515.39 1785c-1.34 1.37-2.66 2.75-3.95 4.16-2.04 2.09-4.17 3.68-6.56 5.36-18.56 13.81-27.9 38.75-31.4 61.04-1.35 11.24-1.83 22.32-1.84 33.64 0 1.6-.01 3.2-.01 4.8-.01 3.33-.01 6.67-.01 10 0 3.38-.01 6.76-.02 10.14-.24 23.72-.24 23.72 2.01 47.3 1.03 6.96 1.29 13.99 1.69 21.01 1.47 30.07 1.47 30.07 15.38 55.93 3.36 2.15 3.36 2.15 7.06 3.82 1.82.89 1.82.89 3.68 1.79 5.01 2.15 9.05 2.78 14.5 2.78 1.28.01 2.56.01 3.88.01h8.48c3 0 6 0 9-.01 4.59 0 9.19 0 13.79.01h12.91c1.29 0 2.57 0 3.89-.01h3.41c2.74-.14 5.07-.55 7.7-1.33v3.53c1.17-.07 2.35-.14 3.56-.21l5.12-.3c1.38-.08 1.38-.08 2.79-.17 5.91-.33 11.82-.56 17.74-.71 1.36-.04 2.73-.08 4.13-.11 2.71-.08 5.42-.14 8.13-.18 1.26-.04 2.51-.07 3.81-.11 1.11-.02 2.23-.05 3.38-.07 3.71-.58 5.84-2.09 9.03-4.02 3.67-.94 3.67-.94 7.75-1.64 1.49-.28 2.97-.56 4.5-.84 2.34-.42 4.67-.83 7.01-1.23 11.75-1.69 11.75-1.69 21.53-7.81 3.97-6.5 5.57-14.14 7.48-21.45.46-1.66.93-3.32 1.39-4.98 1.17-4.16 2.29-8.33 3.39-12.51.67-2.53 1.35-5.05 2.03-7.57 4.09-15.34 7.35-30.69 8.64-46.54.18-1.99.35-3.99.53-5.98.07-.85.14-1.7.21-2.57.29-2.26.29-2.26 1.47-5.8 1.94-.38 3.89-.77 5.89-1.17.89-37.41-4.3-74.94-27.08-105.97-2.17-2.69-2.17-2.69-5.45-2.5-1.38.08-1.38.08-2.79.15.25-1.79.25-1.79.51-3.61-.74-6.68-3.66-8.78-8.75-12.87-1.14-.92-2.27-1.83-3.43-2.77-37.15-28.66-107.2-45.11-146.11-10.43ZM2158.05 1656.76h2.4c2.63-.01 5.26 0 7.89 0h5.61c5.03-.01 10.05 0 15.08.01h9.39c35.37.03 70.72.39 106.08 1.25l9.22.21c16.83.38 33.64.95 50.44 1.93 2.33.14 4.66.26 6.99.38 1.38.09 2.77.18 4.19.27 1.22.07 2.44.14 3.7.22 2.89.6 2.89.6 5.25 4.13 2.53 1.2 2.53 1.2 5.52 2.06 1.11.35 2.23.7 3.38 1.06l3.53 1.07 3.45 1.09c6.82 2.11 13.62 3.86 20.62 5.31v5.89h5.88c2.69 9.93 2.69 9.93 2.36 15.31 1.07-.15 2.13-.29 3.24-.44 3.82.44 3.82.44 6.62 3.23 2.54 5.67 3.06 9.94 1.91 16.04-5.98 15.5-18.14 27.09-32.96 34.15-6.87 2.7-13.99 4.37-21.2 5.89-1.24.26-1.24.26-2.51.54-23.37 4.85-47.53 5.38-71.31 6.22-.95.03-1.91.07-2.89.1-8.91.32-17.82.63-26.73.91-4.93.15-9.87.33-14.8.51-1.86.07-3.72.13-5.57.18-2.58.07-5.16.17-7.74.27-1.45.04-2.91.09-4.42.14-4.62.61-8.12 2.2-12.37 4.08-3.12.45-3.12.45-6.08.47-1.12.01-2.25.03-3.41.05h-3.63c-1.26.01-2.53.03-3.83.04-4.04.05-8.08.08-12.12.1-22.11.12-22.11.12-44.17 1.59-1.4.14-1.4.14-2.83.29-13.74 1.52-28.41 5.77-38.65 15.48-8.17 14.06-9.34 27.79-9.27 43.86v2.37c.03 9.87.51 19.38 2.48 29.06 1.5 7.55 1.98 15.05 2.45 22.73 2.34 36.13 9.71 71.51 19.18 106.4.29 1.04.57 2.09.86 3.17l.76 2.77c.54 2.38.54 2.38.54 5.91 3.75-.03 7.5-.12 11.25-.22 1.06-.01 2.11-.01 3.2-.02 1.03-.04 2.07-.07 3.14-.1l2.86-.06c3.67-.92 5.93-2.83 8.92-5.09 4.66-3.04 9.95-4.54 15.2-6.27 1.81-.61 1.81-.61 3.66-1.24 2.54-.86 5.08-1.71 7.62-2.56 3.9-1.29 7.8-2.61 11.69-3.93 2.47-.84 4.95-1.67 7.42-2.5 1.17-.39 2.33-.79 3.53-1.19 1.09-.36 2.17-.72 3.28-1.09.95-.31 1.9-.63 2.88-.96 2.47-.67 2.47-.67 6-.67v-2.36c.67-.16 1.34-.33 2.02-.5 15.32-3.83 29.72-8.5 44.08-15.09 9.15-3.73 20.78-3.41 30.43-2.07 4.4 1.96 6.65 4.36 9.42 8.24.63.73 1.25 1.45 1.9 2.19 8.31 9.99 11.97 22.24 14.88 34.68.45 1.85.45 1.85.91 3.73 3.69 15.28 3.69 15.28 3.57 22.83-.01 1.38-.01 1.38-.03 2.79l-.04 2.07h-5.89c-.43 4.22-.84 8.44-1.25 12.66-.12 1.19-.24 2.39-.37 3.62-.16 1.73-.16 1.73-.33 3.5-.1 1.06-.21 2.12-.32 3.21-.08 2.82.26 4.95 1.1 7.62-1.95-.77-3.89-1.55-5.89-2.35v-2.36h-2.35c.69 3.56 1.44 7.09 2.35 10.6-1.94-.39-3.88-.78-5.89-1.18-.6.85-1.21 1.7-1.84 2.58-6.49 7.49-12.56 10.12-22.07 11.7-1.02.19-2.05.37-3.1.57-5.1.92-10.21 1.76-15.32 2.59-1.39.22-1.39.22-2.81.45-1.72.28-3.44.55-5.17.8-4.4.68-8.46 1.66-12.69 3.09-6.87 2.08-13.52 2.51-20.66 2.8-1.31.07-2.62.14-3.97.21-4.15.21-8.3.41-12.44.6-4.18.2-8.36.4-12.54.61-2.59.13-5.18.26-7.78.37-1.74.09-1.74.09-3.52.18-1.03.04-2.06.09-3.11.14-2.74.18-2.74.18-4.84 2.75-2.15.57-2.15.57-4.78.96-.99.16-1.98.31-2.99.47-1.08.16-2.15.31-3.25.47-1.11.18-2.22.35-3.37.52-3.57.55-7.13 1.09-10.7 1.62-26.29 2.05-26.29 2.05-49.08 12.44-10.27 14.68-8.65 34.44-8.62 51.54.01 3.56-.02 7.11-.05 10.67-.07 19.54 2.19 37.03 8.81 55.52.46 1.31.93 2.61 1.4 3.96 6.45 17.73 14.53 36.21 30.24 47.55 4.64 3.35 4.64 3.35 5.38 7.88-.22.99-.44 1.99-.67 3.01 1.59.13 1.59.13 3.21.26 4.13.58 7.73 1.85 11.61 3.35 37.31 14.04 76.29 9.53 114.69 2.28 4.2-.77 8.39-1.53 12.59-2.28 1-.18 2-.37 3.03-.56 8.08-1.43 16.2-2.5 24.34-3.52a2154.796 2154.796 0 0 1 21.33-2.62c13.15-1.6 25.77-3.95 38.55-7.41 6.96-1.86 13.8-3.13 20.96-1.94 4.48 2.93 5.14 7.39 6.36 12.44.4 3.54.38 6.99.28 10.54l-.04 3.03c-.06 3.33-.15 6.65-.24 9.98l-.1 3.58c-.21 7.65-.48 15.3-.78 22.95-.15 3.96-.29 7.91-.43 11.87-.48 12.85-1.06 25.47-3.4 38.13-.15.85-.29 1.69-.44 2.57-1.08 5.72-2.4 10.95-6.7 15.05-3.03 1.91-6.05 3.35-9.34 4.75-1.05.51-2.09 1.03-3.17 1.55-8.06 3.74-16.25 5.74-24.92 7.46-.87.18-1.74.35-2.64.53-1.16.22-1.16.22-2.34.45-2.31.53-2.31.53-4.42 1.78-9.92 4.61-24.55 2.65-35.36 2.85-3.32.06-6.64.12-9.96.19-9.42.2-18.84.38-28.26.55-5.78.11-11.57.23-17.36.35-2.19.05-4.39.09-6.58.12-3.07.06-6.14.12-9.2.19l-2.72.03c-5.55.14-10.21 1.16-15.55 2.79-2.91.3-2.91.3-5.58.3-1.01.01-2.03.02-3.07.02-1.6 0-1.6 0-3.24-.01-1.68 0-1.68 0-3.4.01-2.36 0-4.72-.01-7.08-.02-3.6-.01-7.2 0-10.8.02-2.3 0-4.6-.01-6.9-.01-1.07 0-2.14.01-3.25.01-1.01 0-2.02-.01-3.06-.02h-2.66c-2.76-.3-2.76-.3-6.17-1.47-3.87-1.26-6.99-1.53-11.04-1.61-2.16-.06-2.16-.06-4.36-.11l-4.68-.09-4.85-.12c-6.85-.18-13.69-.33-20.53-.47-4.2-.09-8.4-.19-12.6-.3-2.35-.06-4.7-.1-7.04-.14-9.41-.26-17.85-1.55-26.86-4.23-1.35-.39-2.71-.78-4.11-1.17-3.73-1.17-7.47-2.35-11.19-3.54-.74-.23-1.47-.46-2.23-.69-21.67-6.73-21.67-6.73-27.21-12.26-.05-1.97-.05-3.93 0-5.89l-3.97.88c-4-.01-5.27-.72-8.28-3.45-3.15-3.75-6.07-7.59-8.94-11.56-1.1-1.48-2.19-2.96-3.28-4.44-11.21-15.34-11.21-15.34-10.85-26.17h-5.89c-13.47-24.66-21.33-51.08-24.18-78.96-.15-1.47-.3-2.94-.45-4.46-1.76-18.05-2.42-36.14-3.11-54.26-.23-5.97-.46-11.94-.71-17.92-.1-2.33-.18-4.66-.27-6.99-.61-16.66-.61-16.66-4.24-32.85-2.71-25.69-2.46-51.99-2.56-77.81-.01-1.98-.03-3.96-.04-5.94-.02-2.79-.03-5.57-.03-8.35-.01-.83-.02-1.65-.02-2.5.02-5.07 1.02-8.96 2.65-13.72.34-3.08.59-6.08.74-9.16.08-1.31.08-1.31.15-2.64.1-1.83.2-3.66.29-5.5.14-2.75.29-5.5.45-8.26 1.99-17.28 1.99-17.28-.43-33.87-1.67-5.74-1.73-11.28-1.9-17.23-.04-1.29-.09-2.59-.13-3.92-.49-15.2-.74-30.4-.98-45.61l-.15-9.3c-.11-6.46-.21-12.91-.31-19.36l-.36-22.09-.36-21.61c-.04-3.01-.09-6.03-.14-9.04-.12-6.95-.22-13.91-.3-20.87-.06-5.71-.19-11.42-.34-17.13-.06-2.89-.11-5.79-.16-8.68-.05-1.34-.1-2.67-.15-4.05-.12-9.29-.12-9.29 3.42-13.68 1.49-1.15 1.49-1.15 3.01-2.32 1.09-3.16 1.83-5.89 2.43-9.13.29-1.37.29-1.37.58-2.76 1.1-5.41 1.92-10.81 2.58-16.29 3.2-25.25 13.01-51.68 32.09-69.54 4.16-3.03 8.53-5.62 12.95-8.25 1.27-.83 2.55-1.66 3.86-2.52 1.3-.84 2.6-1.68 3.94-2.55 1.77-1.16 1.77-1.16 3.58-2.34 11.07-5.64 23.19-4.65 35.27-4.55 2.02.01 4.04.02 6.06.02 5.29.02 10.58.05 15.87.08 8.47.05 16.94.08 25.4.11 2.94.01 5.88.03 8.82.05 16.9.94 16.9.94 31.42-5.96 4.65-1.29 9.13-1.32 13.94-1.33ZM2851.45 1656.63c6.14-.01 12.27-.04 18.4-.07 4.83-.02 9.66-.03 14.49-.03 2.26 0 4.53-.01 6.79-.03 17.7-.11 36.24.27 51.23 11.01 1.37 2.16 1.37 2.16 2.13 4.34.47 1.29.93 2.57 1.4 3.9 1.34.41 2.67.82 4.05 1.25 3.44 1.22 4.11 2.11 5.78 5.45 4.42 13.88 5.64 31.16.77 45.1-1.32 2.51-2.77 4.9-4.24 7.32-2.16 4.29-3.42 8.7-4.81 13.29-2.48 7.94-5.64 15.04-9.86 22.22l-1.47 2.52c-2.88 4.71-5.72 7.86-10.23 11.17-.39.77-.78 1.55-1.18 2.35-8.56 2.52-16.73 2.71-25.61 2.65-1.96.01-1.96.01-3.96.03-1.26-.01-2.52-.01-3.82-.01-1.13-.01-2.27-.01-3.44-.01-3.2-.31-3.2-.31-5.8-1.47-4.11-1.49-7.59-1.55-11.96-1.64l-2.58-.06c-1.85-.04-3.7-.07-5.55-.1-2.95-.05-5.91-.12-8.86-.18-6.31-.14-12.62-.27-18.93-.39-8.24-.16-16.48-.33-24.71-.51-1-.02-2-.05-3.03-.07-14.75-.34-29.36-1.2-44.05-2.7-18.27-1.78-36.11-.52-54.13 2.7-1.88.34-3.77.66-5.65.97-12.52 1.9-12.52 1.9-21.91 9.85-.52.92-1.04 1.85-1.57 2.8-2.23 3.01-3.98 2.88-7.57 3.45-.08.68-.16 1.37-.24 2.08-.82 7.24-1.67 14.48-2.52 21.72-.32 2.7-.63 5.39-.93 8.08-3.22 28.31-3.22 28.31-8.08 41.11-3.37 8.87-4.49 17.26-5.3 26.71l-.66 7.01c-.38 4.06-.74 8.13-1.11 12.2-.43 4.86-.87 9.72-1.33 14.57-.28 3.02-.56 6.03-.81 9.05-.84 8.87-2.59 16.42-5.86 24.66-3.41 9.63-3.08 19.28-3.03 29.34-.01 2-.01 4-.02 6-.01 5.4 0 10.81.02 16.21.01 5.68.01 11.36.01 17.04-.01 9.55.01 19.09.03 28.64.02 10.99.03 21.97.02 32.96-.01 10.62 0 21.24.01 31.86.01 4.49.01 8.99.01 13.48 0 5.32.01 10.63.02 15.95.01 1.93.01 3.86.01 5.8-.06 36.41 9.87 67.43 24.53 100.58.5 1.16 1 2.32 1.51 3.51 6.56 14.42 17.68 22.8 32.24 28.62 8.75 3.02 16.8 4.55 26.08 4.66l4.44.1c18.8-.77 37.2-7.35 55.1-12.62 13.11-3.84 25.97-7.36 39.51-9.29 6.09-1.26 10.74-3.79 15.45-7.77 12.2-9.25 28.79-13.1 44-13.1v-5.88c15.04-.89 15.04-.89 20.49 2.82 6.02 6.04 12.48 15.51 12.48 24.26 1.06-.11 2.13-.21 3.23-.32 3.83.32 3.83.32 6.37 2.44 12.62 16.66 16.95 33.69 16.74 54.46.01 1.39.03 2.77.04 4.2-.07 22.3-7.86 38.5-23.35 54.11-20.4 19.83-53.38 33.54-82.03 33.58-1.69-.06-1.69-.06-3.42-.13v2.36c-44.01.18-88.02-.06-132.03-.48-4.02-.04-8.04-.07-12.06-.11-6.41-.05-12.83-.11-19.25-.18-2.38-.02-4.77-.05-7.15-.07-33.3-.28-33.3-.28-43.79-3.87-3.04-.3-5.99-.51-9.04-.62-1.77-.08-3.54-.17-5.31-.25-2.74-.12-5.48-.23-8.22-.34-22.7-.94-44.44-3.25-62.2-18.81-.95-.8-1.91-1.6-2.89-2.42-12.65-10.9-27.73-26.02-29.39-43.38-.46-2.69-.46-2.69-3.05-4.06-2.34-1.94-2.34-1.94-2.89-4.32.01-.93.03-1.86.05-2.82l.03-3.33c.05-1.84.05-1.84.11-3.73l.06-4c.05-3.05.11-6.09.18-9.14.13-5.72.23-11.44.32-17.16.19-11.14.42-22.28.67-33.43.14-5.85.25-11.71.37-17.56.09-4.55.19-9.09.29-13.64.05-2.16.1-4.32.14-6.48.05-3 .12-5.99.2-8.98.01-.89.03-1.78.04-2.69.12-4.36.32-6.34 2.8-10.06 2.02-13.39 1.53-27.45 1.8-40.98.02-1.21.05-2.41.07-3.66.2-9.53.37-19.07.54-28.61.03-1.45.05-2.89.08-4.38 1.46-81.26 1.36-162.52 1.28-243.79-.02-15.78-.02-31.56-.02-47.34v-6.4c0-19.47-.01-38.94-.02-58.42v-20.41c-.01-8.2-.01-16.4-.02-24.6-.01-4.17-.01-8.34-.01-12.51 0-4.51-.01-9.01-.01-13.52v-4c0-1.2-.01-2.4-.01-3.64v-3.14c-.05-2.84-.05-2.84-1.33-6.16-.2-2.38-.31-4.76-.37-7.14-.04-1.25-.08-2.51-.13-3.8.69-5.98 1.6-11.2 5.21-16.14 4.25-2.18 8.47-2.44 13.17-2.95 1.94-.21 1.94-.21 3.91-.42 31.04-3.23 62.07-4.08 93.24-4.34 21.59-.18 43.19-.36 64.77-.94 2.39-.07 4.78-.12 7.16-.17 7.55-.23 14.19-.86 21.43-2.96 19.17-2.65 38.95-2.58 58.27-2.99 1.13-.03 2.26-.05 3.43-.08 25.26-.54 50.53-.72 75.8-.74ZM1071.21 1656.89c12.01-.08 24.02-.14 36.03-.17 3.11-.01 6.22-.02 9.33-.04 63.29-.33 63.29-.33 85.15 18.5 3.06 3.18 5.01 6.92 7.06 10.8.45.84.9 1.68 1.37 2.55.89 1.66 1.78 3.33 2.66 5 .99 1.85 2.02 3.68 3.05 5.51 9.67 17.55 9.31 37.44 4.69 56.37-2.38 7.56-6.44 14.58-10.08 21.6-24.66.14-49.26-.01-73.9-1.03-3.34-.13-6.69-.25-10.03-.37-1.73-.07-3.45-.15-5.18-.22l-4.14-.18c-4.47-.56-4.47-.56-6.99-1.37-13.06-4.13-26.68-3.23-40.22-3.19-2.8 0-5.59-.01-8.38-.01-5.83-.01-11.66 0-17.5.02-7.43.02-14.87.01-22.31-.01-5.75-.02-11.51-.01-17.27 0-2.74 0-5.484 0-8.224-.01-25.722-.12-25.722-.12-49.971 7.81-1.968.91-1.968.91-4.323.91-.437 1.39-.437 1.39-.883 2.8-1.134 3.29-2.38 6.38-3.753 9.56-20.274 50.08-1.707 112.34 10.645 162.06l.685 2.76c.428 1.72.857 3.44 1.29 5.16 1.435 5.78 1.435 5.78 1.435 8.39h5.887v5.89c1.165.12 2.331.24 3.532.37 3.368.45 5.355 1.11 8.541 2.59 7.741 2.96 16.177 2.33 24.347 2.34 1.839.01 3.678.03 5.517.04 3.855.02 7.705.03 11.555.02 4.87 0 9.75.05 14.62.11 3.81.04 7.61.05 11.41.05 1.79 0 3.59.02 5.38.04 12.05.17 21.72-1.7 32.91-6.21 7.7-3.03 15.91-3.9 24.06-5.02l4.9-.72c4.45-.66 8.9-1.26 13.35-1.85.99-.14 1.98-.27 3.01-.41 7.12-.88 14.24-1.11 21.42-1.21 1.19-.04 2.39-.09 3.62-.13 8.69-.11 8.69-.11 13.3 3.22 2.97 4.35 3.61 7.52 4.57 12.66h5.88c2.67 12.14 2.68 23.99 2.58 36.35l-.03 6.16c-.1 18.47-.59 36.84-2.55 55.21h-5.88v9.42c-12.04 2.99-23.5 4.24-35.84 4.78-2.49.11-4.98.23-7.48.36-2.23.11-4.47.22-6.71.32-4.11.28-4.11.28-7.8 1.58-5.28 1.55-10.5 1.73-15.98 1.92-1.08.04-2.16.09-3.28.13-10.18.39-20.35.52-30.54.56-3.18.01-6.35.04-9.53.06-9.02.07-18.03.14-27.05.18-5.57.02-11.14.06-16.71.12l-6.266.03c-17.972.03-35.781 1.4-52.764 7.76-1.723.62-3.448 1.24-5.174 1.85-1.155.41-1.155.41-2.334.84-2.637.86-5.279 1.43-8.018 1.88l.075 1.95c.396 12.34.428 24.56-1.124 36.82-3.328 26.57-4.13 52.83-4.104 79.58.002 2.86 0 5.72-.003 8.58-.008 20.91.504 41.68 1.949 62.54.825 12 1.291 23.94 1.289 35.97.005 3.04.048 6.08.092 9.12.129 19.09-2.803 38.26-14.657 53.89-4.125 2.94-8.074 4.6-12.951 5.88-.658.21-1.316.41-1.994.61-3.795.8-7.582.9-11.444 1.03l-2.58.09c-2.755.1-5.51.18-8.265.26-.934.03-1.869.06-2.832.08-23.736.65-50.663.86-69.548-16.06-15.163-16.45-15.296-38.88-15.163-60.1.04-14.17-.353-28.33-.754-42.49l-.229-8.35c-.16-5.79-.321-11.58-.484-17.37-.207-7.35-.409-14.7-.61-22.05-.157-5.73-.316-11.46-.476-17.2l-.223-8.12c-.236-8.59-.497-17.19-.779-25.78l-.115-3.73c-.116-3.59-.246-7.19-.382-10.79l-.1-3.28-.124-3.02-.095-2.64c-.217-2.48-.217-2.48-1.549-4.53-1.736-3.9-1.491-7.77-1.466-11.96l-.011-2.88c-.01-3.18-.002-6.36.005-9.55l-.012-6.85c-.011-6.21-.007-12.43.001-18.65.006-6.54 0-13.09-.004-19.64-.004-11.03.002-22.07.013-33.1.013-12.65.009-25.29-.004-37.93-.011-10.92-.012-21.83-.006-32.75.003-6.49.004-12.98-.004-19.47-.028-26.97.342-53.8 1.944-80.73l.158-2.66.156-2.62c.839-14.43 1.076-28.88 1.379-43.33a18965.823 18965.823 0 0 0 .715-31.93 30816.096 30816.096 0 0 1 .667-30.04l.33-14.6.161-7.13c.799-35.31.798-35.31 1.319-52.74l.12-4.26c.782-24.53.782-24.53 5.146-30.76 14.564-12.29 43.773-9.78 61.76-9.9 2.224-.03 4.448-.05 6.672-.07 5.997-.07 11.995-.12 17.992-.16l19.127-.18c10.761-.11 21.522-.2 32.282-.29 10.884-.09 21.767-.19 32.65-.3l4.017-.04c2.669-.02 5.337-.05 8.006-.07 32.453-.32 64.913-.57 97.373-.79Zm92.17 346.17v9.42h1.17v-9.42h-1.17Z"/><path fill="#000" d="M2886.2 3060.26c19.72-.03 39.43-.05 59.15-.07 12.9-.01 25.79-.03 38.69-.06 8.73-.02 17.46-.03 26.19-.04 5.02 0 10.04-.01 15.06-.02 58.87-.19 58.87-.19 73.88 13.94 5.59 5.92 9.97 12.16 13.9 19.28.52.93 1.04 1.86 1.57 2.83 8.21 16.44 12.42 35.43 13.74 53.68.1 1.41.1 1.41.21 2.85.2 5.81-.49 11.61-1.09 17.39-.11 1.19-.11 1.19-.22 2.42-.68 5.74-2.16 9.48-5.97 13.84-6.54 3.76-13.26 4.49-20.67 5.37l-6.48.81c-1.42.17-1.42.17-2.87.35-3.02.45-3.02.45-6.01 1.72-4.92 1.44-9.29 1.5-14.38 1.48-1.04 0-2.07.01-3.14.01-3.49.01-6.98.01-10.46.01-2.52 0-5.05.01-7.57.02-6.94.01-13.88.02-20.82.02-7.49 0-14.98.02-22.46.04-13 .03-26 .04-39 .05-13.69.02-27.38.03-41.08.06h-2.59l-13.01.03c-30.8.05-61.59.09-92.39.13-29.68.03-59.36.07-89.04.12-.9 0-1.81 0-2.75.01-8.22.01-16.44.02-24.65.04-81.04.13-162.07.25-243.11.32-3.84 0-7.68.01-11.52.01-13.72.02-27.44.03-41.16.03-3.94 0-7.89 0-11.83.01-77.34.06-77.34.06-100.13-2.33-17.21-1.79-34.5-2.33-51.77-3.05-4.6-.19-9.19-.39-13.79-.59-8.94-.39-17.89-.77-26.83-1.14v2.36h-74.17v-2.36c-.94.07-1.88.14-2.84.22-8.25.57-16.49.99-24.76 1.22l-2.36.06c-3.94.11-7.87.21-11.8.29-17.63.38-17.63.38-34.77 4.1-4.13.4-8.28.49-12.42.64l-4.03.15c-19.08.63-38.17.65-57.25.67-5.52 0-11.03.03-16.55.07-4.32.02-8.64.02-12.96.03-2.03 0-4.06.01-6.1.02-17.85.13-34.66-1.42-50.81-9.82-1.06-.5-2.11-.99-3.2-1.5-4.44-2.68-7.87-5.18-9.22-10.42-.86-6.45-.72-12.89-.5-19.38.11-3.47.14-6.94.15-10.42.21-17.14 2.3-32.59 10.85-47.76.43-.81.85-1.61 1.29-2.45 7.24-13.28 18.07-22.59 32.56-27.43 9.57-2.45 19.39-2.91 29.22-3.46 1.27-.08 2.55-.15 3.86-.23 1.14-.05 2.28-.11 3.46-.17 3.34-.25 3.34-.25 6.21-1.59 6.08-1.7 11.93-1.5 18.22-1.48 2.14-.01 2.14-.01 4.33-.01 3.98-.01 7.96-.01 11.93-.01 4.33 0 8.66-.01 12.99-.02 7.6-.02 15.19-.02 22.79-.02 11.3 0 22.61-.02 33.91-.04 19.07-.03 38.14-.05 57.21-.06 19.03-.01 38.05-.03 57.07-.05 1.19 0 2.38 0 3.6-.01 6.04 0 12.08-.01 18.12-.02 42.92-.05 85.83-.1 128.74-.13l123.51-.12c1.25-.01 2.5-.01 3.8-.01 11.35-.01 22.7-.03 34.06-.04 65.21-.07 130.41-.15 195.62-.21h3.37c25.25-.03 50.49-.05 75.74-.06 2.15-.01 4.31-.01 6.46-.01 8.6 0 17.21-.01 25.81-.01 27.76-.02 55.51-.05 83.26-.1ZM455.789 2755.39h625.181v5.88c1.33-.01 2.67-.02 4.05-.04 36-.3 71.84.65 107.79 2.4v5.88c1.1-.02 2.19-.05 3.32-.08 15.42-.22 15.42-.22 21.41 2.44 3.75 3.87 4.86 7.65 4.82 12.96 0 .89 0 1.79-.01 2.71l-.03 2.8c0 .94-.01 1.88-.01 2.84l-.06 6.95h5.89v88.3h-50.63v5.88c-8.86.16-17.71.31-26.57.46-4.11.07-8.23.14-12.35.22-55.79.99-55.79.99-80.07-.09-1.38-.05-2.76-.11-4.19-.17-3.29-.13-6.57-.27-9.86-.42v-5.88c-.73.02-1.46.03-2.21.05-17.79.45-35.58.89-53.366 1.33-8.603.21-17.205.42-25.807.64-7.502.19-15.004.37-22.506.56-3.968.1-7.937.2-11.905.29-4.441.12-8.883.23-13.324.33-1.301.04-2.601.07-3.942.1-7.453.19-14.898.27-22.353.23v2.35h-15.306v-5.88h-4.71v5.88c-26.27 1.45-52.53 1.35-78.831 1.34h-15.944c-14.507.01-29.014 0-43.521-.01-10.7 0-21.4 0-32.099-.01-88.109-.01-176.216-.21-448.894-1.32v-3.53c-.836.01-1.672.03-2.533.04-25.925.32-51.656-.82-77.528-2.39v-4.71c-1.434.05-2.868.11-4.346.16-1.911.05-3.823.09-5.735.13l-2.853.12c-6.912.11-10.869-1.04-16.499-5.12-7.811-13.61-3.039-34.24-1.767-49.3l.511-6.24c.412-5.04.831-10.07 1.256-15.1h5.886v-17.66h5.887v-5.89h9.419v-5.89c26.845-2.81 26.845-2.81 37.675-2.35v-5.89h74.174v-5.89c4.375-.99 8.525-1.38 13.006-1.52l4.336-.15c1.578-.04 3.155-.09 4.733-.13 1.672-.05 3.344-.11 5.017-.16l13.627-.39c2.841-.07 5.682-.15 8.522-.23 44.414-1.24 88.822-1.19 133.249-.95v-5.88ZM3870.12 3373.5h97.72v5.88c1.07.07 2.13.14 3.23.22 7.98.55 15.91 1.18 23.85 2.14v7.06h14.13v5.89c1.21.1 1.21.1 2.45.21 1.59.15 1.59.15 3.21.3 1.06.1 2.11.19 3.19.29 2.92.38 2.92.38 6.45 1.55v5.89h8.24v5.89c5.06.77 10.11 1.55 15.31 2.35v7.06h5.89v8.25h8.24v15.3h7.06c.78 3.89 1.56 7.77 2.36 11.78h5.88v31.78h5.89v50.63h-5.89v44.74h-5.88c-.78 4.66-1.56 9.32-2.36 14.13h-7.06v15.3h-8.24v5.89h-5.89v8.24h-9.42v7.07c-3.88.77-7.77 1.55-11.77 2.35v5.89h-8.24v5.88c-9.93 2.7-9.93 2.7-15.31 2.36v5.89h-8.24v7.06c-.82.2-1.65.4-2.49.61-1.61.43-1.61.43-3.25.86-1.6.41-1.6.41-3.23.83-3.38 1.13-3.38 1.13-5.16 5.94h-15.3v5.89c-7.15 1.45-13.9 2.68-21.2 2.35v5.89h-20.01v5.89h-54.16v-5.89h-20.02v-5.89c-.8-.07-1.61-.14-2.45-.21-1.59-.15-1.59-.15-3.21-.3-1.05-.1-2.11-.19-3.19-.29-2.92-.37-2.92-.37-6.45-1.55v-5.89h-9.42v-5.88c-4.66-.78-9.32-1.56-14.13-2.36v-5.89c-.82.13-1.65.25-2.5.37-4.85-.53-6.98-2.94-10.45-6.25-2.6-3.9-2.62-5.12-2.5-9.64l.06-3.22.09-2.45h-5.89c-.78-5.83-1.55-11.65-2.36-17.66h-5.88v-14.13h-5.89c-2.7-19.67-2.7-19.67-2.35-29.43-1.42.04-1.42.04-2.87.07-3.02-.07-3.02-.07-4.2-1.25-.12-2.34-.15-4.68-.15-7.03-.01-.75-.01-1.51-.01-2.29 0-2.58.01-5.17.01-7.75.01-.89.01-1.79.01-2.7.04-29.91.73-59.82 1.32-89.72h5.89c.1-1.22.1-1.22.21-2.45.1-1.07.2-2.13.3-3.22.14-1.58.14-1.58.29-3.19.37-2.92.37-2.92 1.55-6.45h5.89v-14.13l5.88-1.17c.78-2.34 1.56-4.67 2.36-7.07h7.06v-5.89h5.89c.17-1.11.34-2.23.52-3.38.66-3.68.66-3.68 1.83-6.03h5.89v-5.89h9.42c-.07-.92-.15-1.85-.22-2.8.11-1.53.11-1.53.22-3.09 3.77-2.51 4.73-2.62 9.05-2.5l2.89.06 2.19.09v-5.89h15.3v-7.06c9.91-1.17 9.91-1.17 20.02-2.36v-5.88ZM1274.05 3373.5h103.61v5.88c6.99.78 13.98 1.56 21.19 2.36v7.06h14.13v8.24h9.41v5.89c.86-.08 1.71-.16 2.59-.25 8.95-.5 8.95-.5 12.8 1.53 3.74 3.4 4.57 5.2 5.07 10.35-.22 1.82-.22 1.82-.44 3.67 1.82-.21 1.82-.21 3.68-.44 5.15.5 6.95 1.34 10.34 5.08 2.53 4.8 1.79 10.12 1.29 15.38h5.88v9.42h8.24v14.13h7.07c.78 9.71 1.55 19.42 2.35 29.43h5.89v65.93h-5.89c-.77 10.49-1.55 20.98-2.35 31.79h-7.07v11.78h-5.88c-.07.8-.15 1.61-.22 2.45-.1 1.06-.2 2.12-.3 3.21-.14 1.58-.14 1.58-.29 3.19-.37 2.92-.37 2.92-1.55 6.45h-5.88v8.24h-9.42v7.07c-3.89.77-7.77 1.55-11.78 2.35v5.89h-8.24v5.88c-4.85 1.53-9.03 2.67-14.13 2.36v5.89h-9.42v7.06c-3.88.78-7.77 1.55-11.77 2.36v5.88h-14.13v5.89c-9.92 2.69-9.92 2.69-15.3 2.35v5.89h-23.55v7.06c-19 2.47-37.41 2.31-56.51 1.18l-3.13-.18c-4.85-.29-9.69-.61-14.53-1v-5.88l-3.58.12c-17.94.44-17.94.44-24.61-5.79-1.25-2.57-1.25-2.57-1.25-9.64h-15.3v-9.42h-5.89v-5.88h-8.24l-1.18-12.95c-1.94-.39-3.88-.78-5.89-1.18-.77-5.05-1.55-10.1-2.35-15.31h-5.89v-14.13h-5.88c-1.48-9.87-2.78-19.42-2.36-29.43h-5.89c-1.43-20.75-1.31-41.49-1.25-62.28.01-4.67.01-9.34.02-14.02.01-9.1.03-18.2.06-27.31h7.06c.07-1.13.14-2.27.22-3.44.1-1.48.19-2.97.3-4.5.14-2.22.14-2.22.29-4.47.28-3.11.65-5.81 1.55-8.78h5.88v-14.13h5.89c.78-5.05 1.55-10.1 2.35-15.3h5.89v-8.25h9.42c-.18-1.16-.18-1.16-.37-2.35.56-5.32 2.09-9.45 6.26-12.95 4.8-.82 9.3-.55 14.13 0 .07-1.04.14-2.09.22-3.16 1.48-6.07 4.98-8.64 10.15-11.85 4.5-1.77 8.36-2.24 13.17-2.65.39-1.17.78-2.33 1.18-3.53.82-.1 1.64-.21 2.49-.31 1.07-.17 2.15-.33 3.25-.5 1.06-.15 2.13-.3 3.23-.46.92-.36 1.85-.72 2.8-1.09.78-1.94 1.56-3.88 2.36-5.88Z"/><path fill="#FFBF00" d="M2735 1923.22c2.5 2.13 2.5 2.13 2.87 5.3-.12.9-.24 1.79-.37 2.72 1.41-.22 2.82-.44 4.27-.66 2.63 0 2.63 0 5.15.66 1.8 1.98 1.8 1.98 3.42 4.63.6.96 1.2 1.93 1.82 2.92l1.82 3.05c.58.92 1.15 1.85 1.74 2.81 1.75 2.85 3.47 5.72 5.18 8.59.62 1.03 1.23 2.06 1.86 3.12 1.79 3.01 3.57 6.02 5.35 9.02.7 1.17.7 1.17 1.41 2.37 10.97 18.4 19.26 36.87 24.49 57.68.24.92.47 1.85.71 2.8 1.82 7.97 1.92 15.68 1.8 23.84-.01 1.29-.03 2.59-.04 3.92-.02 3.16-.06 6.31-.11 9.47h-8.24v5.89h-5.89v8.24c-.98.17-1.96.34-2.98.52-12.95 2.58-20.15 7.39-29.62 16.33-22.68 21.35-47.66 26.49-78.07 27.89-1.15-1.93-2.27-3.87-3.39-5.82-.62-1.08-1.25-2.15-1.9-3.27-4.94-10.77-4.5-22-4.48-33.59-.01-1.87-.01-3.73-.02-5.59-.01-3.9-.01-7.8 0-11.7.01-4.94-.01-9.88-.04-14.81-.02-3.86-.02-7.71-.02-11.56 0-1.81 0-3.63-.02-5.45-.09-15.92.83-32.58 7.66-47.22.35-.75.7-1.51 1.07-2.29 10.24-21.58 24.85-48.83 47.06-60.03 6.05-1.42 11.67-2.19 17.51.22Zm44.89 136.35-1.18 4.71c.78-.39 1.55-.78 2.35-1.18-.39-1.16-.77-2.33-1.17-3.53Z"/></svg>