<svg xmlns="http://www.w3.org/2000/svg" fill="none" viewBox="0 0 4000 4000"><path fill="#000" d="M1912 282h163v5h88v5l2.76.076c18.08.503 36.16 1.059 54.24 1.924v6h43v5l2.84-.07c13.12-.212 26.1.886 39.16 2.07v5h38v5l3.7.184c9.45.477 18.87 1.021 28.3 1.816v6h25v5l1.99-.07c9.45-.18 18.65.906 28.01 2.07v5h20v5l25 2v6h20v5l2.92.184c1.27.083 2.53.167 3.83.254l3.8.246c2.63.241 4.93.559 7.45 1.316v5h25v8h17v5h20v7h18v5h15v5l17 2v6h18l2 5 2.08.184 2.73.254 2.71.246C2655 406 2655 406 2658 407v5h17v8h13v5h12v5l2.08.184 2.73.254 2.71.246C2710 431 2710 431 2713 432v5h12v5l18 2v6h7v5l2.16-.07c5.68-.107 10.56-.13 15.84 2.07.45.675.9 1.351 1.37 2.047 1.48 2.186 1.48 2.186 4.04 2.422l5.31.062 2.28.469c.68 1.326 1.35 2.66 2 4 2.39 1.129 2.39 1.129 5.12 1.75l2.76.734 2.12.516v6h13l2 4c2.39 1.129 2.39 1.129 5.12 1.75l2.76.734 2.12.516v5h13l2 4c2.39 1.129 2.39 1.129 5.12 1.75l2.76.734 2.12.516v6h7v5l2.08.184 2.73.254 2.71.246C2860 506 2860 506 2863 507v5h12v8h5v5h13v7h7v5h13v8h7v5l2.41-.211c8.38-.428 8.38-.428 11.72 1.336 1.74 1.609 2.86 2.726 3.87 4.875v6h12v8h8v5l2.23-.176c8.07-.373 8.07-.373 11.89 2.614L2974 580c.5.495.5.495 1 1 .04 2 .04 4 0 6h8v5l10 2v6h7v7h8v5l2.2-.211c7.59-.425 7.59-.425 10.87 1.301 3.17 2.883 3.88 4.411 4.31 8.785-.13 1.031-.25 2.063-.38 3.125h13v7h5v5h7v8h8v5h10v7h7v5c.85-.144 1.69-.289 2.56-.438 4.46.568 6.1 2.257 9.09 5.481 1.87 2.717 1.9 4.756 1.35 7.957h7v5l3.88.438c2.38.268 3.96.484 6.12 1.562v5h8v8h5v5h7v7h8v5h5c.5 2.475.5 2.475 1 5l6 2v6h5v5l2.88.438C3156 731 3156 731 3158 732v5h5c.5 2.475.5 2.475 1 5l6 2v6h5v5l2.88.438C3181 756 3181 756 3183 757v5h5c.5 2.475.5 2.475 1 5l6 2v6h5v7h5v5h8v8h5v5h7v7h5v5h8v8h5c1.32 3.62 2 6.096 2 10h5v7h5v8h8v9h5v8h7v13l3.12-.375c4.41.426 5.9 1.183 8.79 4.375 2.06 3.78 1.53 7.833 1.09 12l5 1v8h7l2 11 4 1 2 13h5v12h5c2.29 8.429 2.29 8.429 2 13h5v12h6l2 13h5v17h5c1.26 6.742 2.26 13.13 2 20h5v25h6l2 18h5c.87 5.23 1.15 10.25 1.13 15.54 0 .8 0 1.6.01 2.43 0 1.69-.01 3.39-.01 5.08 0 2.55 0 5.09.01 7.64 0 9.16-.24 18.19-1.14 27.31h-5v37h5v37h5c.34 1.87.67 3.75 1 5.62.19 1.05.37 2.09.56 3.17.43 3.12.52 6.07.44 9.21l5 2v18h6l2 12h5v13h5v12h7v13h5v12h8v13h5c1.29 4.12 2.26 7.67 2 12h5v11l6 2 2 17h5v20h5v13h7v20h6l2 17h5v13h5c.17 1.2.34 2.41.52 3.65.24 1.57.48 3.15.73 4.73.11.79.22 1.58.33 2.4.19 1.14.19 1.14.37 2.31.11.7.21 1.4.32 2.12.72 2.34.72 2.34 4.73 3.79v18h6l2 18h5v20h5c1.26 6.74 2.26 13.13 2 20h5v17h6l2 20h5v30h5c2.06 23.27 2.17 46.66 2 70h5v26h-5v4h5v8h13v5h12v7h13v5h7v5l10 2v6h8v5l2.12.18c1.36.13 1.36.13 2.76.26.9.08 1.8.16 2.74.24 2.38.32 2.38.32 4.38 1.32v5h13v5l17 2v6h15v5c.96.06 1.93.12 2.92.18 1.9.13 1.9.13 3.83.26 1.25.08 2.51.16 3.8.24 2.63.25 4.93.56 7.45 1.32v5h12v5l20 2v6h13v5c1.46.09 1.46.09 2.96.18 1.27.09 2.54.17 3.85.26 1.27.08 2.53.16 3.83.24 3.36.32 3.36.32 6.36 1.32v3l13 2v5l12 2v6h13v7h12v5c.85-.14 1.69-.29 2.56-.44 4.44.57 6 2.29 9.12 5.32 1.32 2.12 1.32 2.12 1.32 8.12h12v7h5v5h8v8h5v5h8c.5 3.46.5 3.46 1 7h4l2 10h5v8c1.3-.19 1.3-.19 2.62-.38 4.14.46 5.52 1.65 8.26 4.65 1.68 2.59 1.55 4.74 1.12 7.73h5c.5 5.94.5 5.94 1 12l7 1v17h5c1.26 6.74 2.26 13.13 2 20h5v30h6c.29 6.33.57 12.66.85 18.99l.3 6.45c1.04 22.92 1.04 22.92.85 32.56h5v188h-5c-.03.8-.05 1.61-.08 2.44-.49 15.86-1.04 31.71-1.92 47.56h-6v20h-5l.12 3.69c.02 6.2-1.07 12.22-2.12 18.31h-5c.05.89.09 1.78.14 2.7.05 1.76.05 1.76.11 3.55.05 1.16.09 2.32.14 3.52-.47 3.9-1.51 4.7-4.39 7.23-1.08 2.1-1.08 2.1-1.75 4.25-.41 1.24-.82 2.48-1.25 3.75h-5v8h-6l-.18 2.12c-.09.91-.17 1.82-.26 2.76-.08.9-.16 1.8-.24 2.74-.32 2.38-.32 2.38-1.32 4.38h-5v13h-7v7h-5c.08.63.16 1.26.25 1.91.39 5.29.05 8.52-3.37 12.71-1.76 1.98-1.76 1.98-3.88 3.38h-6v12h-7v5h-6v8h-7v7h-5v5h-5v5h-8v8h-7v5h-5v7h-13c.12 1.03.25 2.06.38 3.12-.43 4.38-1.14 5.91-4.31 8.79-4.08 2.15-8.6 1.52-13.07 1.09v5c-6.74 1.26-13.13 2.26-20 2v5h-20v5h-101v-5h-87v-5h-22v5h-8v13h-5c-.09 1.46-.09 1.46-.18 2.96-.09 1.27-.17 2.54-.26 3.85-.08 1.27-.16 2.53-.24 3.83-.32 3.36-.32 3.36-1.32 6.36h-5v13l-5 2c-1.04 3.09-1.04 3.09-1.31 6.62-.14 1.19-.28 2.38-.43 3.61-.08.91-.17 1.83-.26 2.77h-6v10h-5c-.09 1.66-.09 1.66-.18 3.36-.09 1.46-.17 2.93-.26 4.39l-.12 2.21c-.2 3.47-.53 6.69-1.44 10.04h-5v12h-8v13h-5v7h-5l-.18 2.08c-.09.9-.17 1.8-.26 2.73-.08.9-.16 1.79-.24 2.71-.32 2.48-.32 2.48-1.32 5.48h-5v10c-.78.12-1.57.25-2.38.38-2.81 1.35-2.81 1.35-3.4 3.98-.49 2.54-.9 5.07-1.22 7.64h-6v8h-7v12h-5v8h-5l-2 17h-6v8h-5l-.18 2.12c-.09.91-.17 1.82-.26 2.76-.08.9-.16 1.8-.24 2.74-.32 2.38-.32 2.38-1.32 4.38h-5v13h-5l-2 12h-6v11l-4 2c-1.13 2.39-1.13 2.39-1.75 5.12-.24.92-.48 1.83-.73 2.76-.17.7-.34 1.4-.52 2.12h-5v7h-5l-2 13h-6v12h-7v8h-3l.03 1.69c-.24 6.01-1.88 9.49-6.04 13.85-1.99 1.46-1.99 1.46-5.93 1.96-1.01-.17-2.02-.33-3.06-.5v13h-7v12h-5c.14.85.29 1.69.44 2.56-.57 4.44-2.29 6-5.32 9.12-2.12 1.32-2.12 1.32-8.12 1.32v12h-7v8h-5v5h-5l-2 12h-6c.14 1.03.29 2.06.44 3.12-.47 4.15-.72 4.68-3.63 7.32-2.49 1.91-3.57 2.53-6.75 2.94-.68-.13-1.36-.25-2.06-.38v7h-5v5h-8v8h-5c-.14 1.28-.29 2.56-.44 3.88-.27 2.38-.48 3.96-1.56 6.12h-5v7h-8v5h-5v8h-5c-.14.97-.29 1.94-.44 2.94-.56 3.06-.56 3.06-1.56 4.06-1.67.04-3.33.04-5 0v5h-5l-2 13h-6c.12.87.25 1.73.38 2.62-.46 4.14-1.65 5.52-4.65 8.26-2.59 1.68-4.74 1.55-7.73 1.12.14.85.29 1.69.44 2.56-.57 4.46-2.26 6.1-5.48 9.09-2.72 1.87-4.76 1.9-7.96 1.35v7h-5c-.14 1.26-.29 2.52-.44 3.81-.3 2.62-.72 4.66-1.56 7.19l-10 2-2 10h-6v7h-7v8h-5v5c-2.47.5-2.47.5-5 1l-2 6h-6v5h-5c-.14.95-.29 1.9-.44 2.88-.56 3.12-.56 3.12-1.56 5.12h-5v5c-2.47.5-2.47.5-5 1l-2 6h-6v5h-5c-.14.95-.29 1.9-.44 2.88-.56 3.12-.56 3.12-1.56 5.12h-5v5c-2.47.5-2.47.5-5 1l-2 6h-6v5h-5c-.14.95-.29 1.9-.44 2.88-.56 3.12-.56 3.12-1.56 5.12h-5v5c-2.47.5-2.47.5-5 1l-2 6h-6v6h-5l-2 7h-5v5c-2.47.5-2.47.5-5 1l-2 6h-6v5h-5c-.14.95-.29 1.9-.44 2.88-.56 3.12-.56 3.12-1.56 5.12h-5v5h-5v5h-8v7h-7v5h-5v8h-8v5h-5v7h-12v6c-1.83 2.93-4.16 5.05-7 7-3.44.44-3.44.44-6 0v5h-7v7h-10v5h-8v8h-7v5h-5v7h-13c.14 1.03.29 2.06.44 3.12-.47 4.15-.72 4.68-3.63 7.32-2.49 1.91-3.57 2.53-6.75 2.94-.68-.13-1.36-.25-2.06-.38.12.87.25 1.73.38 2.62-.45 4.01-1.34 5.56-4.25 8.26-4.35 2.29-9.36 1.54-14.13 1.12v5h-7v8h-8v5c-3.62 1.32-6.1 2-10 2l-2 5h-5v5h-13v8h-7v5c-3.62 1.32-6.1 2-10 2v5h-8v5h-12v8h-8v5c-3.62 1.32-6.1 2-10 2l-2 5h-10v5h-8v8h-12v5h-8v7h-12v6l-10 2v5h-13v5h-7v7h-13v5h-12v8h-13v5h-12v7h-13v6c-4.27 1.14-7.56 2-12 2v5h-13v5h-12v7h-18v6l-15 2v5h-12v5h-18v7h-20v6c-1.89.34-3.79.67-5.69 1-1.05.19-2.11.37-3.2.56-2.76.39-5.33.52-8.11.44v5h-20v5c-7.73 1.23-15.17 2.27-23 2v5h-20v6l-17 2v5h-15v5h-18v7h-12v6l-18 2v5h-7v5c-8.43 2.29-8.43 2.29-13 2v5h-7v5h-5v8h-8v5c-3.62 1.32-6.1 2-10 2v5h-7c.14.85.29 1.69.44 2.56-.57 4.46-2.26 6.1-5.48 9.09-2.72 1.87-4.76 1.9-7.96 1.35.12.87.25 1.73.38 2.62-.46 4.14-1.65 5.52-4.65 8.26-2.59 1.68-4.74 1.55-7.73 1.12.14.85.29 1.69.44 2.56-.57 4.46-2.26 6.1-5.48 9.09-2.72 1.87-4.76 1.9-7.96 1.35v7h-5v5h-7v8h-5v5h-8v7h-5v5h-7c.14.85.29 1.69.44 2.56-.57 4.46-2.26 6.1-5.48 9.09-2.72 1.87-4.76 1.9-7.96 1.35v5c-4.12 1.29-7.67 2.26-12 2v5h-13v5h-7v8h-18v5c-8.39 1.25-16.5 2.36-25 2v5c-5.74.99-11.31 1.15-17.12 1.12l-2.67.02c-4.2-.01-8.12-.07-12.21-1.14v6c-16.05 1.8-31.86 2.25-48 2v5h-53v-5l-2.29.03c-14.72.18-29.34.06-44.02-.97-1.26-.08-2.52-.17-3.81-.26-8.74-.66-8.74-.66-9.88-1.8v-5h-25l-1-5c-1.55-.09-1.55-.09-3.14-.18-1.37-.09-2.74-.17-4.11-.26-.68-.04-1.36-.08-2.07-.12-3.32-.21-6.48-.46-9.68-1.44v-5h-13v-5l-12-2v-6h-13v-7h-5v-5h-7v-8h-8v-5h-5v-5l-7-2v-5h-5v-8h-5v-5h-8v-12h-5c-3.13-2.11-4.9-3.85-7-7-.2-3.14-.2-3.14-.12-6.69.02-1.77.02-1.77.05-3.57.02-.91.05-1.81.07-2.74h-5c-1.32-3.62-2-6.1-2-10h-6v-13h-5c-.17-.84-.34-1.69-.52-2.55-.24-1.1-.48-2.2-.73-3.33-.23-1.09-.46-2.18-.7-3.3-.86-3.29-.86-3.29-5.05-4.82v-23h-5v-38h5v-20h5l2-13h6v-17h5l.18-2.08c.13-1.35.13-1.35.26-2.73.08-.9.16-1.79.24-2.71.32-2.48.32-2.48 1.32-5.48h5c-.05-.8-.09-1.59-.14-2.41-.36-10.7-.36-10.7 4.14-15.59 3-2 3-2 8-2v-12h8v-5h5v-8h7v-5h5v-7h8v-5h5v-8h12v-5c2.44-3.37 4.54-5.69 8-8 2.92-.2 2.92-.2 6.19-.12 1.08.01 2.17.03 3.29.05.83.02 1.66.05 2.52.07l1-5 8-2 1-5h13v-5c5.07-1.26 9.73-2.27 15-2v-5h17v-5c1.95-1.95 5.58-1.39 8.25-1.54.74-.04 1.47-.08 2.23-.13 1.56-.09 3.12-.17 4.68-.26 2.37-.13 4.73-.27 7.1-.41 1.52-.08 3.04-.17 4.56-.26.7-.04 1.39-.08 2.12-.12 4.69-.26 9.36-.31 14.06-.28v-5h71v5l2.22-.03c14.23-.18 28.33-.06 42.53.97 1.82.13 1.82.13 3.67.26 8.44.66 8.44.66 9.58 1.8v5h25v5c1.75.09 1.75.09 3.54.18 1.55.09 3.1.17 4.65.26l2.33.12c3.91.22 7.65.53 11.48 1.44v5h20v5c1.22.13 2.43.27 3.68.4l4.76.54c1.2.13 1.2.13 2.43.26 6.02.69 6.02.69 7.13 1.8v5h15v5l10 2v5h12l2 5c2.36 1 2.36 1 5.06 1.25 4.89.7 4.89.7 5.94 1.75.04 1.67.04 3.33 0 5h7v5l2.08.18c.9.09 1.8.17 2.73.26.9.08 1.79.16 2.71.24 2.48.32 2.48.32 5.48 1.32v5h12v8h8v5c.72-.07 1.45-.14 2.2-.21 7.63-.43 7.63-.43 10.87 1.33 2.92 2.71 3.86 4.23 4.31 8.26-.13.86-.25 1.73-.38 2.62h8c.5 2.47.5 2.47 1 5l9 3v5h24v-6l20-2v-5h25v-5c8.39-1.25 16.5-2.36 25-2v-5h25v-6l25-2v-5h25v-5c11.52-2.3 11.52-2.3 17-2v-5h20v-6l13-2v-5h12v-5h13v-7h11l1-6 13-2v-5h12v-5c8.43-2.29 8.43-2.29 13-2v-5h12v-6l13-2v-5h12v-5c8.43-2.29 8.43-2.29 13-2v-5h12v-6c2.09-3.17 3.83-4.88 7-7 3.14-.2 3.14-.2 6.69-.12 1.18.01 2.36.03 3.57.05.91.02 1.81.05 2.74.07v-5c3.62-1.32 6.1-2 10-2v-5h8v-6l12-2v-5h8v-5c3.37-1.5 5.2-2 9-2l-.06-2.44c.06-2.56.06-2.56 1.06-3.56 2.33-.04 4.67-.04 7 0v-5h7v-7h10v-5c8.43-2.29 8.43-2.29 13-2v-6h7l1-5h7v-7h12v-5h5l-.06-3.44c.06-3.56.06-3.56 1.06-4.56 2.02-.07 4.04-.08 6.06-.06 1.11.01 2.21.02 3.35.02.85.02 1.71.03 2.59.04-.07-.75-.13-1.49-.2-2.26.3-4.13 2.4-5.63 5.31-8.36 1.89-1.38 1.89-1.38 4.83-1.82.68.15 1.36.29 2.06.44v-5c8.43-2.29 8.43-2.29 13-2v-6h7l1-5h4v-7h8v-5c3.62-1.32 6.1-2 10-2v-6h7l.12-2.62c1.14-4.38 3.11-6.88 6.88-9.38 3.38-.38 3.38-.38 6 0-.14-.85-.29-1.69-.44-2.56.56-4.38 1.98-6.13 5.15-9.09 4.18-2.47 8.61-1.88 13.29-1.35l2-7h5v-5h5v-5h7l-.06-3.44c.06-3.56.06-3.56 1.06-4.56 2.33-.04 4.67-.04 7 0v-5h5v-7h7v-5h5l-.06-3.44c.06-3.56.06-3.56 1.06-4.56 2.02-.07 4.04-.08 6.06-.06 1.11.01 2.21.02 3.35.02.85.02 1.71.03 2.59.04v-7h5l2-10h5l-.06-3.44c.06-3.56.06-3.56 1.06-4.56 2.33-.04 4.67-.04 7 0v-5l10-2 2-10c3.62-1.32 6.1-2 10-2l-.06-2.44c.06-2.56.06-2.56 1.06-3.56 2.33-.04 4.67-.04 7 0v-7h5v-5h7v-7c2.47-.5 2.47-.5 5-1l1-5h7v-7h5v-5h7c-.01-.85-.02-1.71-.04-2.59 0-1.1-.01-2.21-.02-3.35l-.04-3.34c.1-2.72.1-2.72 1.1-3.72 2.33-.04 4.67-.04 7 0v-5h5v-7h7v-5h5l-.06-3.44c.06-3.56.06-3.56 1.06-4.56 2.33-.04 4.67-.04 7 0v-5h5v-7h7v-5h5l-.06-3.44c.06-3.56.06-3.56 1.06-4.56 2.33-.04 4.67-.04 7 0v-5h5v-7l2.31-.06c3.1-.74 3.1-.74 4.5-4.5.39-1.14.79-2.27 1.19-3.44h4l-.04-1.93c0-.83-.01-1.66-.02-2.51l-.04-2.49c.1-2.07.1-2.07 1.1-3.07 2.33-.04 4.67-.04 7 0v-7h5v-8h5v-5h7v-12h8v-8h5v-10h7v-7h5l-.06-3.44c.06-3.56.06-3.56 1.06-4.56h5l2-10h5v-7h7v-7c2.47-.5 2.47-.5 5-1-.08-.56-.16-1.11-.25-1.69-.41-5.03.14-7.9 3.37-11.87 1.76-2.01 1.76-2.01 3.88-3.44h6v-12h5l2-13h6v-17h5l.18-2.52c.09-1.09.17-2.17.26-3.29.08-1.08.16-2.16.24-3.27.32-2.92.32-2.92 1.32-5.92h5v-18h5v-4h-5v-13c-1.61-.14-3.22-.29-4.88-.44-4.87-.44-4.87-.44-7.12-1.56v-5h-13v-8h-7v-5h-5v-5l-2.08-.18c-.9-.09-1.8-.17-2.73-.26-.9-.08-1.79-.16-2.71-.24-2.48-.32-2.48-.32-5.48-1.32v-5h-5c-.12-.78-.25-1.57-.38-2.38-1.35-2.81-1.35-2.81-3.98-3.4-2.54-.49-5.07-.9-7.64-1.22v-6h-13v-5l-2.52-.18c-1.09-.09-2.17-.17-3.29-.26-1.08-.08-2.16-.16-3.27-.24-2.92-.32-2.92-.32-5.92-1.32-.5-2.47-.5-2.47-1-5h-16v-8c-.9.05-1.81.09-2.74.14-1.77.05-1.77.05-3.57.11-1.17.05-2.35.09-3.55.14-3.14-.39-3.14-.39-4.91-2.32-.41-.68-.81-1.36-1.23-2.07-1.66-1.01-3.33-2.01-5-3-4.9-4.14-4.9-4.14-5.31-7.81.15-1.09.15-1.09.31-2.19h-7v-5h-5v-7c-.85.01-1.71.02-2.59.04-1.1 0-2.21.01-3.35.02l-3.34.04c-2.72-.1-2.72-.1-3.72-1.1-.04-2.33-.04-4.67 0-7h-5v-5h-7v-7h-5l-2-10h-5c-1-1-1-1-1.1-3.72.01-1.1.03-2.21.04-3.34.01-1.11.02-2.21.02-3.35.02-.85.03-1.71.04-2.59h-5v-7h-7v-13h-5v-12l-3.44.06c-3.56-.06-3.56-.06-4.56-1.06-.09-1.42-.11-2.84-.1-4.25.01-.86.01-1.71.01-2.59.01-1.35.01-1.35.03-2.72 0-.9.01-1.81.01-2.73.01-2.24.03-4.47.05-6.71l-5-1c-.34-3.06-.67-6.12-1-9.19-.1-.86-.19-1.73-.29-2.62-.44-4.08-.85-8.08-.71-12.19h-5v-43h-5c-.71-7.89-1.25-15.77-1.56-23.69-.04-1.05-.09-2.11-.13-3.2-.43-11.7-.41-23.4-.31-35.11l-2.44.06c-2.56-.06-2.56-.06-3.56-1.06-.09-1.69-.12-3.38-.11-5.07v-3.28c0-1.17.01-2.35.01-3.56 0-1.2.01-2.39.01-3.63 0-3.84.01-7.68.03-11.52 0-2.6.01-5.2.01-7.79.01-6.39.03-12.77.05-19.15l-5-1c-1.78-35.7-2.26-71.26-2-107h-5v-239h5c-.01-.85-.01-1.71-.02-2.58-.02-8.36.14-16.69.46-25.04.06-1.83.06-1.83.13-3.7.14-3.85.29-7.7.43-11.56.1-2.63.19-5.26.29-7.9.23-6.4.47-12.81.71-19.22h5v-62l5-1c.06-.99.11-1.98.17-2.99l.63-11.1.27-4.78.39-6.91.12-2.13c.28-4.73.79-9.39 1.42-14.09h5v-42h5l.18-3.33c.47-8.24.99-16.46 1.82-24.67h5v-22h6c.09-1.66.09-1.66.18-3.36.09-1.46.17-2.93.26-4.39l.12-2.21c.2-3.47.53-6.69 1.44-10.04h5v-13h5l2-12h5v-13h8v-5h5v-7h7v-5h5v-8h13c.04-1.05.08-2.1.12-3.19.86-3.73 1.63-5.62 4.72-7.94 4.76-1.91 10.13-1.21 15.16-.87v-5c3.62-1.32 6.1-2 10-2l2-6h18v-5l17-2v-5h92v5c.92-.01 1.85-.02 2.8-.04 13.44-.11 26.84.47 40.26 1.04 2.33.1 4.67.19 7 .29 5.64.23 11.29.47 16.94.71v5h80v5h14v-5h12v-36h-7v-25h-5c-1.23-6.07-2.28-11.8-2-18h-6v-20h-5v-12h-7v-18h-5c-.16-.83-.32-1.66-.48-2.52-.35-1.63-.35-1.63-.71-3.29-.22-1.08-.44-2.16-.67-3.27-.85-3.13-.85-3.13-3.73-4.26-2.41-1.66-2.41-1.66-2.82-3.48-.08-2.31-.03-4.56.1-6.87.02-.79.04-1.59.07-2.41.05-1.97.14-3.94.24-5.9h-5v-13h-7v-12h-5v-13h-8v-12h-5v-13h-7v-12h-5c-2.29-8.43-2.29-8.43-2-13h-6v-12h-5l-2-13h-5v-12h-5c-.53-1.79-1.05-3.58-1.56-5.38-.29-.99-.58-1.99-.88-3.02-.56-2.6-.56-2.6.44-4.6h-5v-10l-6-2-2-18h-5c-1.07-9.02-1.1-17.94-1-27-.63.14-1.26.29-1.91.44-5.5 1.19-10.47 1.77-16.09 1.56v5h-26v-5c-.89-.06-1.78-.12-2.7-.18-1.17-.09-2.34-.17-3.55-.26-1.16-.08-2.32-.16-3.52-.24-2.54-.25-4.79-.6-7.23-1.32v-5h-20v-5c-1.22-.13-2.43-.27-3.68-.4l-4.76-.54c-.8-.08-1.6-.17-2.43-.26-6.02-.69-6.02-.69-7.13-1.8v-5h-12v-5c-.96-.06-1.93-.12-2.92-.18-1.27-.09-2.53-.17-3.83-.26-1.25-.08-2.51-.16-3.8-.24-2.63-.25-4.93-.56-7.45-1.32v-5c-.9.06-1.81.12-2.74.18-1.18.04-2.36.09-3.57.13l-3.55.18c-1.56-.24-1.56-.24-3.14-.49-1.62-2.44-1.62-2.44-3-5-2.24-1.02-2.24-1.02-4.69-1.31-.81-.14-1.61-.28-2.45-.43-.61-.08-1.23-.17-1.86-.26v-6h-13l-2-5c-2.39-1.03-2.39-1.03-5.12-1.31-1.37-.21-1.37-.21-2.76-.43-.7-.08-1.4-.17-2.12-.26v-5h-12v-8h-8v-5h-7v-5c-1.28-.14-2.56-.29-3.88-.44-2.38-.27-3.96-.48-6.12-1.56v-5h-8v-8h-5v-5h-7v-7h-8v-5h-10v-8h-7v-5c-1.03.14-2.06.29-3.12.44-4.79-.54-5.85-1.87-8.81-5.42-1.07-2.02-1.07-2.02-1.07-7.02h-12v-8h-5v-5h-8c-1.46-2.65-2-3.89-2-7h-5v-5h-10v-8h-8v-5c-1.3.19-1.3.19-2.62.38-4.14-.46-5.52-1.65-8.26-4.65-1.68-2.59-1.55-4.74-1.12-7.73h-8v-5l-10-2v-6h-7v-7h-5v-5h-8c-.5-2.47-.5-2.47-1-5l-6-2v-6h-10v-7h-8v-5c-1.05-.06-2.1-.12-3.19-.19-4.56-.97-6.1-2.04-8.81-5.81-.31-3.81-.31-3.81 0-7h-8v-5l-3.88-.438c-2.38-.268-3.96-.484-6.12-1.562v-5h-7v-8h-5v-5h-8v-5l-2.12-.184-2.76-.254-2.74-.246C2802 969 2802 969 2800 968v-5c-.85.144-1.69.289-2.56.438-4.44-.565-6-2.286-9.12-5.321C2787 956 2787 956 2787 950h-12v-7h-5v-5h-8v-5l-12-2v-6l-2.62.312c-4.6-.425-6.29-1.937-9.38-5.312-.88-3.812-.88-3.812-1-7h-12v-8h-5v-4l-2.16.141c-6.61.249-10.49-.159-15.84-4.141-2-3-2-3-2-9h-13v-8h-7v-5l-2.41.211c-8.41.43-8.41.43-11.72-1.371-1.68-1.581-2.85-2.773-3.87-4.84v-5l-12-1v-8h-13v-5h-7v-5l-3.88-.438c-2.38-.268-3.96-.484-6.12-1.562v-5h-13l-2-5c-2.39-1.033-2.39-1.033-5.12-1.312l-2.76-.426L2595 831v-6h-8v-5l-2.12-.184-2.76-.254-2.74-.246C2577 819 2577 819 2575 818v-5h-13v-8h-12v-5h-13v-7h-12v-5h-13v-8h-12v-5h-13v-7h-12v-5h-13v-5l-17-2v-6h-15v-5l-2.92-.184c-1.27-.083-2.53-.167-3.83-.254l-3.8-.246c-2.63-.241-4.93-.559-7.45-1.316v-5h-18l-2-4c-1.8-.817-1.8-.817-3.91-1.047l-2.31-.371-2.4-.332c-.81-.125-1.61-.25-2.43-.379A468.55 468.55 0 0 0 2375 731v-6h-13v-5l-3.5.125c-7.22.023-14.36-1.144-21.5-2.125v-5h-25v-5l-25-2v-6h-30v-5l-1.92.07c-10.11.196-20.04-.959-30.08-2.07v-5h-43v-5l-2.4-.076c-16.54-.526-33.07-1.117-49.6-1.924v-6l-3.73.492c-5.86.646-11.67.644-17.55.628l-3.68.003c-3.34.001-6.68-.002-10.02-.007-3.62-.004-7.23-.003-10.84-.002-6.26.001-12.51-.003-18.76-.008-9.05-.008-18.09-.011-27.13-.012-14.67-.002-29.34-.009-44.01-.019-14.24-.009-28.49-.016-42.74-.02l-2.66-.001-13.23-.004c-36.55-.01-73.1-.028-109.65-.05v5c-6.88.289-13.77.573-20.65.854l-7.01.292c-24.91 1.043-24.91 1.043-35.34.854v5h-37v5c-12.71 1.321-25.22 2.33-38 2v6h-25v5l-25 2v5h-20v5c-8.39 1.253-16.5 2.36-25 2v6h-17v5l-20 2v5h-18v5l-3.61.48c-1.57.235-3.14.471-4.7.708l-2.38.306c-2.22.349-4.22.704-6.31 1.506-.5.856-.99 1.712-1.5 2.594-.5.794-.99 1.588-1.5 2.406-2.9.652-5.73.47-8.69.312l-2.41-.068a310.94 310.94 0 0 1-5.9-.244v5h-13v7h-17v5c-1.42.339-2.83.671-4.25 1l-2.39.562C1462 770 1462 770 1458 770l-2 6h-13v5l-17 2v5h-13v5c-4.12 1.292-7.67 2.263-12 2v6h-8v5l-2.12.516-2.76.734c-.9.232-1.8.464-2.74.703-2.87.959-2.87.959-4.38 5.047h-13v5c-3.62 1.316-6.1 2-10 2v6h-12v5h-8v7h-12v5h-13v8h-12v5l-13 2v5h-7v5c-3.62 1.316-6.1 2-10 2v6h-8v5l-12 2v5h-8v5c-3.62 1.316-6.1 2-10 2v6h-7v5l-13 2v5h-7v5h-5v8h-13l-.12 3.188c-.88 3.833-1.75 5.578-4.92 7.945-3.82 1.687-7.88 1.23-11.96.867v5h-8v8h-7v5l-10 2v5h-8c.14.846.29 1.691.44 2.562-.57 4.474-2.31 6.098-5.55 9.09-1.89 1.348-1.89 1.348-4.83 1.786L1126 976v5l-13 2v5h-7v5h-5v8h-8v5l-10 2v5h-7c.12 1.08.12 1.08.25 2.19-.4 4.46-3.02 6.66-6.19 9.62-2.51 1.45-4.2 1.43-7.06 1.19v5l-12 2v5h-5v5h-8v8h-7v5h-5v7h-13v8h-5v5h-7c.14.68.29 1.36.44 2.06-.6 4-2.261 5.81-5.151 8.56-4.169 2.52-8.595 1.91-13.289 1.38l-2 8h-5v5h-8v5h-5v7h-12v5c-2.441 3.37-4.537 5.69-8 8-2.48.2-2.48.2-5.188.12-.901-.01-1.802-.03-2.73-.05-1.031-.03-1.031-.03-2.082-.07v5h-7v7h-8v5c-3.62 1.32-6.096 2-10 2l-2 6h-5v5h-13v7h-7v5c-3.62 1.32-6.096 2-10 2v6h-8v5h-12v7h-13v6c-1.651 3.25-3.822 5.23-7 7-4.398.58-8.592.42-13 0v5l-10 2v5h-7v5h-13v8h-7v5l-9 2-1 5h-8l.375 2.62c-.459 4.14-1.647 5.52-4.641 8.26-2.597 1.68-4.741 1.55-7.734 1.12v5h-8v8h-5v5h-7v7h-5c.144.85.289 1.69.438 2.56-.565 4.44-2.286 6-5.321 9.12C719 1288 719 1288 713 1288v12h-7v5h-5v8h-6l-.184 2.12-.254 2.76-.246 2.74C694 1323 694 1323 693 1325h-5v13h-7v7h-5v11l-5 2c-1.244 2.38-1.244 2.38-1.812 5.12-.234.92-.467 1.83-.708 2.76L668 1368h-5v13l-4 2c-1.129 2.39-1.129 2.39-1.75 5.12-.242.92-.485 1.83-.734 2.76L656 1393h-5v7l-5 1-3 12h-5v12h-5l-2 13h-5v12h-8v13h-5v18l-4 2c-.817 1.8-.817 1.8-1.047 3.91l-.371 2.31-.332 2.4c-.125.81-.25 1.61-.379 2.43A468.55 468.55 0 0 0 606 1500h-5v38l-5 1-.168 2.66c-.208 3.28-.419 6.55-.632 9.83-.091 1.41-.181 2.83-.27 4.24-.129 2.04-.261 4.08-.395 6.12l-.238 3.71c-.276 3.19-.722 6.29-1.297 9.44h-5v12h82v-5c5.648-.27 11.296-.53 16.943-.8l5.724-.27c5.766-.27 11.533-.54 17.299-.79 2.018-.09 4.036-.19 6.054-.28 17.382-.81 34.742-1.05 52.139-1.05 2.894 0 5.788 0 8.682-.02 43.166-.2 43.166-.2 61.159 3.21v5h25v5l20 2v6h18v7h7v5h13l1 5 9 3v5h7v5l2.082.18c1.352.13 1.352.13 2.73.26.894.08 1.787.16 2.708.24 2.48.32 2.48.32 5.48 1.32v5h5l2 13h5v7h5c1.316 3.62 2 6.1 2 10h6v8h5v12h7v18h5c1.197 6.32 2.276 12.61 3 19l5 1v20h5c.29 4.53.57 9.07.85 13.6l.3 4.62c.5 7.93.99 15.83.85 23.78h5v68h5v45h-5v42h5c.76 22.98 1.23 45.96 1.51 68.95.05 4.28.1 8.56.16 12.84.1 8.05.2 16.09.29 24.14.11 9.18.23 18.37.34 27.56.24 18.83.47 37.67.7 56.51h5v231c-2.47.5-2.47.5-5 1-.02.67-.05 1.35-.07 2.04-.24 7.06-.48 14.11-.73 21.17l-.27 7.88-.39 11.39-.12 3.51c-.28 7.69-.77 15.34-1.42 23.01h-5v35h-5l-2 20h-5v12c-2.475.5-2.475.5-5 1l-3 12h-5v12h-5l-2 13h-5v7c-2.475.5-2.475.5-5 1l-3 12h-5v5h-5l-2 12h-5c.144.85.289 1.69.438 2.56-.568 4.46-2.257 6.1-5.481 9.09-2.717 1.87-4.756 1.9-7.957 1.35v7h-5v5h-7c.144.85.289 1.69.438 2.56-.568 4.46-2.257 6.1-5.481 9.09-2.717 1.87-4.756 1.9-7.957 1.35l.375 2.62c-.459 4.14-1.647 5.52-4.641 8.26-2.597 1.68-4.741 1.55-7.734 1.12v6l-13 2v5h-7v5c-3.62 1.32-6.096 2-10 2v5h-13v6l-15 2v5h-17v5c-10.032 1.25-19.867 2.36-30 2v5h-59v-5l-3.5.12c-7.22.03-14.362-1.14-21.5-2.12v-3l-3.5.12c-7.22.03-14.362-1.14-21.5-2.12v-8h-12v-5h-18l-2-5c-1.279-.14-2.558-.29-3.875-.44-2.382-.27-3.97-.48-6.125-1.56v-5h-8v-5l-12-2v-6h-8v-5c-1.279-.14-2.558-.29-3.875-.44-2.382-.27-3.97-.48-6.125-1.56v-5h-7v-5l-8-2v-5c-.58.05-1.16.09-1.758.14-5.654.26-8.771-.32-13.242-4.14-2.29-3.44-2.178-4.99-2-9-.846.14-1.691.29-2.562.44-4.457-.57-6.103-2.26-9.09-5.48-1.871-2.72-1.895-4.76-1.348-7.96h-8v-5h-5v-7h-7v-5h-5l-2-8h-5v-5h-5l-.688-2.88c-.955-3.27-.955-3.27-3.562-4.12l-2.75-1c-2.351-1.75-4.322-3.59-6-6-.375-3.38-.375-3.38 0-6-.866.12-1.733.25-2.625.38-4.134-.46-5.513-1.65-8.25-4.65-1.685-2.59-1.553-4.74-1.125-7.73h-5v-8h-8v-5h-5v-7h-7v-10l-8-2v-6h-10c-.99-2.47-.99-2.47-2-5h-9v5h-8v6l-25 2v5h-71v-5l-3.297-.18c-25.319-1.44-25.319-1.44-26.703-2.82v-5h-25v-5l-2.922-.18c-1.263-.09-2.526-.17-3.828-.26-1.253-.08-2.506-.16-3.797-.24-2.636-.25-4.933-.56-7.453-1.32v-5h-15v-5l-12-2v-6h-13v-5l-10-2v-5h-7v-8h-8v-5h-10v-7h-7v-5h-5c-2.286-8.43-2.286-8.43-2-13h-6v-5h-5v-7h-7l-1-13-3.188-.12c-3.732-.86-5.62-1.63-7.945-4.72-1.908-4.76-1.203-10.13-.867-15.16h-5l-.262-2.12-.426-2.76c-.127-.9-.255-1.8-.386-2.74-.306-.78-.611-1.57-.926-2.38l-5-2v-13h-5c-1.316-3.62-2-6.1-2-10l-6-2v-18h-5l-2-20h-5c-.342-4.37-.672-8.75-1-13.12l-.289-3.7c-.624-8.42-.828-16.74-.711-25.18h-3c-.858-8.52-1.299-17.01-1.605-25.57-.201-5.16-.567-10.23-1.186-15.35-.323-3.22-.303-6.41-.271-9.64l.027-3.69.035-2.75-5-1v-88h6l-.07-3.65c-.215-17.18.897-34.23 2.07-51.35h5v-38h5l2-25h5v-19h6l.184-2.92c.083-1.27.167-2.53.254-3.83l.246-3.8c.241-2.63.559-4.93 1.316-7.45h5v-18l4-2c1.138-2.86 1.138-2.86 1.75-6.12l.734-3.33c.171-.84.341-1.68.516-2.55h5l-.035-2.59-.027-3.35-.036-3.34C149 1893 149 1893 150 1892c1.666-.04 3.334-.04 5 0l.184-2.12.254-2.76.246-2.74C156 1882 156 1882 157 1880h5v-11l4-2c1.129-2.39 1.129-2.39 1.75-5.12.242-.92.485-1.83.734-2.76L169 1857h5v-7h6l.184-2.08.254-2.73.246-2.71C181 1840 181 1840 182 1837h5l-.375-2.62c.459-4.14 1.647-5.52 4.641-8.26 2.597-1.68 4.741-1.55 7.734-1.12l.125-3.12c1.067-4.73 2.794-7.26 6.875-9.88 3.375-.38 3.375-.38 6 0v-7h5v-5h7v-5h8v-8h12v-5c4.497-2.25 8.079-2.17 13-2v-5h12v-5l4.375-1.5c.812-.28 1.624-.56 2.461-.84C278 1767 278 1767 280 1767l2-5h17v-5c6.068-1.23 11.799-2.28 18-2v-5h20v-5c1.508-1.51 2.978-1.32 5.078-1.54.832-.08 1.663-.17 2.52-.26.875-.09 1.75-.17 2.652-.26.86-.09 1.72-.18 2.605-.28 4.063-.41 8.055-.79 12.145-.66v-5h17v-5c8.429-2.29 8.429-2.29 13-2v-5h32v-5c2.423-1.21 4.314-1.3 7.016-1.54 1.004-.08 2.008-.17 3.043-.26 1.053-.09 2.106-.17 3.191-.26 1.038-.09 2.075-.18 3.145-.28 4.913-.42 9.66-.66 14.605-.66v-17h-17v6l-13 2v5h-13v-6h13v-7h7v-5h5v-8c5.75-3 5.75-3 8-3v-4h4l1-55h5l-.07-2.22c-.2-11.99.964-23.85 2.07-35.78h5v-20h5l2-17h5l-.141-3.83c-.037-1.66-.074-3.32-.109-4.98l-.102-2.53c-.099-6.17-.099-6.17 2.243-8.73C478 1529 478 1529 480 1529l2-17h5v-18l4-2c1.102-2.83 1.102-2.83 1.688-6.06 1.25-5.88 1.25-5.88 2.312-6.94h5v-17h5l.184-3.36.254-4.39.119-2.21c.204-3.47.528-6.69 1.443-10.04h5v-18h5l2-17h6v-15h5l.184-2.12.254-2.76.246-2.74C531 1382 531 1382 532 1380h5v-13h5l2-12h6v-11l4-2c1.129-2.39 1.129-2.39 1.75-5.12l.734-2.76.516-2.12h5v-7h5l2-13h6v-12h7v-8h5v-12h5l2-13h6v-12h5l.184-2.08.254-2.73.246-2.71C606 1245 606 1245 607 1242h5v-17h8v-13h5v-18l4-2c.817-1.8.817-1.8 1.047-3.91l.371-2.31.332-2.4c.125-.81.25-1.61.379-2.43.306-1.98.591-3.97.871-5.95h5v-20h4l.375-3.69c.414-3.37 1.171-6.21 2.625-9.31h6v-5h13v5c.855.13 1.709.27 2.59.4 1.105.18 2.209.36 3.348.54 1.102.17 2.204.35 3.339.52C675 1144 675 1144 676 1145v5h11v-4h-7v-8h-13v-5l-17-2v-13h-5v-118h5v-45h5l-.125-3.625c-.021-6.538 1.099-12.934 2.125-19.375h5l-.176-2.738-.136-3.574-.176-3.551L662 919c2.438-1.625 2.438-1.625 5-3 1.017-2.238 1.017-2.238 1.312-4.688l.426-2.449L669 907h6v-7h5l-.188-3.062c.219-4.599.953-6.948 3.188-10.938l4-1v-10h8v-5h5v-8h5l.184-2.117.254-2.758.246-2.742C706 852 706 852 707 850h5v-8h5v-5h8v-12h7v-5h5v-8h8v-5h5v-7h5l.438-2.875C756 794 756 794 757 792h5v-5l5-1 2-6h6v-10h7v-8h5l.125-3.188c.875-3.812.875-3.812 3.563-6.75 3.55-2.21 5.224-2.549 9.312-2.062l-.312-2.625c.425-4.598 1.937-6.287 5.312-9.375 3.812-.875 3.812-.875 7-1l.125-3.188c.875-3.812.875-3.812 3.563-6.75 3.55-2.21 5.224-2.549 9.312-2.062v-5h7v-8h5v-5c8.429-2.286 8.429-2.286 13-2v-5h5v-5h7v-8h8v-5c3.62-1.316 6.096-2 10-2v-5h7l-.438-2.562c.568-4.457 2.257-6.103 5.481-9.09 2.717-1.871 4.756-1.895 7.957-1.348v-5c4.12-1.292 7.668-2.263 12-2v-5h8v-5h5v-8h12l.125-3.188c.875-3.812.875-3.812 3.563-6.75 3.55-2.21 5.224-2.549 9.312-2.062v-6l12-2v-5h8v-5c3.62-1.316 6.096-2 10-2v-5h7v-6l13-2v-5h7v-5c3.62-1.316 6.1-2 10-2v-5h8v-6l12-2v-5h8v-5c3.62-1.316 6.1-2 10-2v-5h7v-6l13-2v-5h7v-5c3.62-1.316 6.1-2 10-2v-5h8v-5h12v-8h13v-5c4.12-1.292 7.67-2.263 12-2v-5h8v-6l2.12-.262 2.76-.426c.9-.127 1.8-.255 2.74-.386.78-.306 1.57-.611 2.38-.926l2-5h13v-5c3.62-1.316 6.1-2 10-2l2-5h13v-6l2.12-.262 2.76-.426c.9-.127 1.8-.255 2.74-.386.78-.306 1.57-.611 2.38-.926l2-5h13v-5c3.62-1.316 6.1-2 10-2l2-5h13v-6l2.12-.262 2.76-.426c.9-.127 1.8-.255 2.74-.386.78-.306 1.57-.611 2.38-.926l2-5h18v-6c2.46-2.927 4.82-4.881 8-7 2.92-.195 2.92-.195 6.19-.125l3.29.055 2.52.07v-5l17-2v-5h13v-5c5.76-1.298 11.09-2.257 17-2v-5h15v-5c2.14-2.145 6.58-1.74 9.56-2.062l2.45-.276c1.99-.224 3.99-.444 5.99-.662v-5h17v-5c1.42-.339 2.83-.671 4.25-1l2.39-.562C1401 380 1401 380 1405 380l2-5h18v-6l25-2v-5h20v-5c14.6-2.296 14.6-2.296 22-2v-5h20v-5c1.71-1.709 4.01-1.351 6.35-1.535l3.27-.264 3.44-.263 3.46-.276c2.82-.225 5.65-.445 8.48-.662v-5h25v-5c16.71-2.296 16.71-2.296 25-2v-5h30v-5c1.74-1.742 4.2-1.357 6.57-1.535l3.47-.264 3.65-.263 3.59-.276c5.26-.392 10.45-.713 15.72-.662v-5h32v-5c28.93-2.388 28.93-2.388 43-2v-5h42v-5c2.26-1.13 3.67-1.187 6.18-1.297l2.63-.121 2.84-.117 2.94-.13c2.06-.091 4.12-.179 6.18-.265 3.12-.131 6.24-.269 9.36-.408l6.02-.26 2.79-.123c6.36-.262 12.7-.323 19.06-.279v-5h87v-5Zm9 119-1 4-2.91.069c-9.13.218-18.26.438-27.4.661-4.69.115-9.38.229-14.08.34-4.54.108-9.09.218-13.63.331l-5.16.123c-11.95.28-23.88.789-35.82 1.476v5h-53v5l-2.03.076c-13.33.504-26.65 1.063-39.97 1.924v5h-38v6l-2.18-.07c-10.05-.176-19.85.891-29.82 2.07v5h-25v5l-3.77.184c-8.76.437-17.5.894-26.23 1.816v5h-25l-1 5-1.77.168c-2.66.253-5.32.511-7.98.77l-2.79.263-2.69.264-2.48.238c-2.16.28-4.19.721-6.29 1.297v5h-18v5l-20 2v5h-20v6l-3.69-.125c-6.2-.02-12.22 1.07-18.31 2.125v5h-20v5l-18 2v5h-20v6l-2.96.184-3.85.254c-1.9.121-1.9.121-3.83.246-3.35.188-3.35.188-6.36 1.316v5h-15v5l-18 2v5h-17v6l-3.06-.188c-4.6.219-6.95.953-10.94 3.188l-1 4h-18v5l-12 2v5h-13v5h-12v8h-13v5h-12v7h-13v6l-2.12.184-2.76.254-2.74.246c-2.39.186-2.39.186-4.38 1.316v5h-8v5l-2.12.297-2.76.453c-1.35.209-1.35.209-2.74.422-2.55.575-2.55.575-3.38 2.859l-1 1.969c-2.38.609-2.38.609-5.12.75-.92.057-1.83.113-2.76.172L1196 600v5h-8v8h-12v5h-13v7h-12v6l-2.08.184-2.73.254-2.71.246c-2.61.251-2.61.251-5.48 1.316v5h-7v5l-10 2v5h-8v6l-2.12.184-2.76.254-2.74.246c-2.39.186-2.39.186-4.38 1.316v5h-8v5h-5v7h-12v6l-2.08.184-2.73.254-2.71.246c-2.61.251-2.61.251-5.48 1.316v5h-5v5h-7v7h-13l-.94 3.312c-.64 2.242-1.32 4.475-2.06 6.688-2.07.949-2.07.949-4.56 1.688-.83.251-1.66.502-2.51.761-.63.182-1.27.364-1.93.551v5l-13 2v5h-7v5h-5v8h-8v5l-10 2v5h-7v5h-8v8h-10v5h-7v7h-8v5h-5v8h-7v5l-10 2v5h-8v8h-5v5h-7v7h-5v5h-8l-.938 3.312A167.62 167.62 0 0 1 885 835c-1.996.738-1.996.738-4.438 1.312-2.451.678-2.451.678-4.562 1.688-1.342 2.858-1.342 2.858-2 6-2.667 3.334-4.136 4.788-8.312 5.812L863 850l-.938 3.312A167.62 167.62 0 0 1 860 860c-1.996.738-1.996.738-4.438 1.312-2.451.678-2.451.678-4.562 1.688-1.342 2.858-1.342 2.858-2 6-2.667 3.334-4.136 4.788-8.312 5.812L838 875v8h-5v5h-7v12h-8v5h-5v8h-5c-1.724 8.428-1.724 8.428-2 17h-5l-.043 2.738-.145 3.574-.105 3.551L800 943l-2.469 1.375c-2.642 1.321-2.642 1.321-3.128 3.44-.343 2.293-.558 4.559-.715 6.873l-.221 2.416c-.177 1.963-.325 3.93-.467 5.896h-5v20h-5l-3 42-4 1v32h-5c-1.643 1.64-1.341 3.65-1.535 5.91l-.264 3-.263 3.15-.276 3.17c-.225 2.59-.445 5.18-.662 7.77h-5v12h-5c-1.263 5.07-2.27 9.73-2 15h-5l-1 12-5 1-2 17h-5v13h-7v7h-5v5h-8v12h6l1-5 12-3v-5h7v-5h5v-7h13l.688-3.19c1.154-4 3.01-6.2 6.312-8.81 2.812-.81 2.812-.81 5-1 .227-.89.454-1.77.688-2.69 1.598-4.03 2.762-5.77 6.312-8.31 3.666-.7 7.273-.93 11-1v-5h7v-8h8v-5l10-2v-5h7l.625-3.19c1.295-4.53 3.494-6.22 7.375-8.81 2.875-.81 2.875-.81 5-1v-5l12-2v-5h8v-5h5v-8h7v-5l10-2v-5h8l.688-3.19c1.154-4 3.01-6.2 6.312-8.81 2.812-.81 2.812-.81 5-1 .227-.89.454-1.77.688-2.69 1.598-4.03 2.762-5.77 6.312-8.31 3.666-.7 7.273-.93 11-1v-5h2v-3h5v-5h8v-5h5v-7h7l1-5 9-3v-5h8l.75-3.25c1.278-3.834 2.015-5.414 5.25-7.75 3.25-.75 3.25-.75 6-1v-5h8v-8h5v-5l12-2v-5h5v-5h8v-8h7v-5h5v-7h13c.34-1.578.34-1.578.69-3.188 1.15-4.007 3.01-6.201 6.31-8.812 2.81-.812 2.81-.812 5-1v-5l3.69-.438c3.14-.39 6.22-.886 9.31-1.562v-5h7v-5h5v-8h13l2-6c2.49-3.023 4.03-4.719 7.81-5.812L1099 875l1-5 12-3v-5h5v-5h7v-7h8v-6l3.88-.438c2.38-.268 3.96-.484 6.12-1.562v-5h7v-5h8v-7h12v-5h5v-8h13c.37-1.609.37-1.609.75-3.25 1.26-3.787 2.17-5.322 5.25-7.75 3.01-1.003 5.54-1.303 8.69-1.562l3.01-.254 2.3-.184v-5l3.88-.438c2.38-.268 3.96-.484 6.12-1.562v-5h7v-5l3.69-.438c3.14-.39 6.22-.886 9.31-1.562v-5h7l1-5 9-3v-5h8v-5l12-2v-5h13c.23-1.052.45-2.104.69-3.188 1.22-4.087 2.75-6.294 6.31-8.812 3.33-.689 6.6-.927 10-1v-5l3.69-.438c3.14-.39 6.22-.886 9.31-1.562v-5h12v-5h8v-8h12v-5h12l1-7h12v-5h13v-8h12v-5h13v-7h17l1-5 12-3v-5h20v-5l12-2v-5h13l1-5 19-3v-5h17v-5l2.63-.148 3.49-.227 3.45-.211c3.45-.417 6.27-.959 9.43-2.414l1-4h23l1-5 3.39-.402 4.42-.536 2.24-.263c3.12-.381 5.96-.803 8.95-1.799v-5h25v-5l3.18-.184c7.3-.431 14.56-.909 21.82-1.816v-5h25l1-5 2.31-.168c3.46-.253 6.92-.511 10.38-.77l3.63-.263 3.5-.264 3.23-.238c2.7-.272 5.29-.711 7.95-1.297v-5h38v-5l1.75.035c9.34.099 18.62-.488 27.94-1.035l5.05-.289c4.09-.234 8.17-.471 12.26-.711v-5h58v-5h200v-3h88v3h88v5h42v5c7.46 1.833 14.47 2.252 22.12 2.125l3.19-.027c2.57-.024 5.13-.056 7.69-.098v5h37v5c7.36 3.247 14.47 3.129 22.38 3.062l3.09-.013c2.51-.012 5.02-.028 7.53-.049v5h22v5c6.06 2.135 11.55 2.239 17.94 2.125l2.94-.027c2.37-.024 4.75-.057 7.12-.098v5h23l1 6 1 2h17v5h13v5c2.4.337 4.79.67 7.19 1 .67.095 1.34.191 2.04.289 3.62.494 7.12.824 10.77.711v5h17v5l17 3 1 5h13l1 6c1.21 1.444 1.21 1.444 4.82 1.098 1.58-.007 3.16-.019 4.74-.036l2.45-.013c1.99-.012 3.99-.03 5.99-.049v5h13v8h12v5h13v7h12v5h13v8h12v5h13v7h12v5h13v8h7v5h10v7h8v5h12v8h8v5h10v7h7v5h13v8h12v5h8v5l10 2v5h7v5c6.4 1.749 6.4 1.749 13 2v6c1.07.248 2.14.495 3.25.75 3.83 1.278 5.41 2.015 7.75 5.25l1 6h13v8h5v5h7v5l13 2v5c.78.083 1.57.165 2.38.25.86.248 1.73.495 2.62.75.68 1.325 1.35 2.659 2 4 3.41 1.841 6.16 2.219 10 2v6h8v7h5v5h7v5c6.4 1.749 6.4 1.749 13 2v6c1.07.248 2.14.495 3.25.75 3.83 1.278 5.41 2.015 7.75 5.25.75 3.25.75 3.25 1 6h8v5l10 2 2 6h5v7h5v5h8v5c4.12 1.292 7.67 2.263 12 2v6h6c.14.969.29 1.939.44 2.938.24 2.927.24 2.927 1.56 4.062 1.67.041 3.33.043 5 0v5h5l2 8h5v5h8v5h5v7h7v5h5v8h8v5h5v7h12v8h5v5h8v7h5v5h7v8h8v5h5c.04 1.05.08 2.1.12 3.19.88 3.83 1.75 5.58 4.92 7.94 3.82 1.69 7.88 1.23 11.96.87v8h8v5l5 1 2 6h5v5h8v5l9 3c.5 2.47.5 2.47 1 5h7v5l13 2v5h7v5c3.62 1.32 6.1 2 10 2v6l13 1 2 6h5v5h13v5c4.12 1.29 7.67 2.26 12 2v6h13v5l12 2v5h8v5l12 2v6h5v5h5v7h8v8h5c.1.7.2 1.4.3 2.12.22 1.36.22 1.36.45 2.76.14.9.28 1.8.42 2.74.58 2.55.58 2.55 2.85 3.39.65.33 1.31.65 1.98.99.5 2.47.5 2.47 1 5h12v-11h-5l-2-13h-6v-12h-5v-13h-7v-20h-5l-2-17h-6v-25h-5c-.06-.98-.12-1.95-.18-2.96-.09-1.27-.17-2.54-.26-3.85-.08-1.27-.16-2.53-.24-3.83-.19-3.35-.19-3.35-1.32-6.36l-5-1v-15h-5l-2-17h-6v-13h-5v-12h-7v-13h-5l-2-12h-6v-12c-1.26-.577-2.52-1.155-3.81-1.75-3.38-1.553-5.29-3.01-7.19-6.25-.51-2.578-.51-2.578-.69-5.25-.06-.892-.13-1.784-.2-2.703-.03-.676-.07-1.351-.11-2.047h-5v-8h-8v-12c-.89-.227-1.77-.454-2.69-.688-3.99-1.58-5.73-2.869-8.31-6.312-.98-3.3-1.56-6.591-2-10l-4-1v-7h-8v-8h-5v-5h-7v-12h-8v-5h-5v-8c-.89-.227-1.77-.454-2.69-.688-3.84-1.521-5.71-3.121-8.31-6.312-.81-2.812-.81-2.812-1-5-1.3-.309-1.3-.309-2.62-.625-4.13-1.681-6.72-3.812-9.38-7.375-.88-2.875-.88-2.875-1-5-.89-.227-1.77-.454-2.69-.688-3.84-1.521-5.71-3.121-8.31-6.312-.81-2.812-.81-2.812-1-5h-8v-5h-5v-8h-7v-5h-5v-7h-13v-8h-5v-5h-7v-7h-5v-5h-8v-8h-7v-5h-5v-5l-7-2v-5l-2.2-.008c-8.88-.355-8.88-.355-12.42-3.68-2.45-2.902-3.2-5.488-3.38-9.312h-8v-5c-3.62-1.316-6.1-2-10-2v-5h-7v-8h-8l-2-5h-8v-7h-7v-5h-8v-6l-10-2v-5h-7l-.06-1.812c-.83-2.565-.83-2.565-4.19-3.938-3.27-1.089-5.37-1.557-8.75-1.25v-5h-7v-6l-10-2v-5h-8v-5c-4.12-1.292-7.67-2.263-12-2v-5h-8v-6l-12-2v-5l-10-1-2-6h-6v-5h-12v-8h-13v-5h-7v-5c-6.4-1.749-6.4-1.749-13-2v-5h-10c-.14-.949-.29-1.897-.44-2.875-.39-3.018-.39-3.018-1.56-5.125h-10v-5h-8v-5c-4.12-1.292-7.67-2.263-12-2v-5h-13v-6l-12-2v-5h-13v-5c-4.12-1.292-7.67-2.263-12-2v-5h-18l-1-6-1-2h-10v-5h-13v-5c-5.07-1.263-9.73-2.27-15-2v-5h-17v-8h-13v-5h-12v-5c-6.74-1.258-13.13-2.264-20-2v-5h-18v-8h-12v-5h-18v-5c-6.74-1.258-13.13-2.264-20-2v-5h-17v-5c-1.54-1.537-3.12-1.323-5.25-1.535l-2.59-.264-2.72-.263-2.73-.276c-2.24-.225-4.47-.445-6.71-.662v-5h-25v-5c-8.39-1.253-16.5-2.36-25-2v-5h-25v-6c-3.69-.338-7.37-.67-11.06-1l-3.15-.289c-5.29-.47-10.48-.831-15.79-.711v-5h-33v-5c-10.07-1.351-19.82-2.319-30-2v-5h-32v-6c-4.52-.289-9.03-.574-13.55-.854-1.53-.096-3.06-.193-4.6-.292-8.29-.53-16.54-.986-24.85-.854v-5h-57v-5c-12.54-.713-25.07-1.255-37.62-1.562l-2.53-.065c-19.95-.497-39.9-.474-59.85-.373v-5h-141Zm1229 1274v6c-.98.06-1.95.12-2.96.18-1.27.09-2.54.17-3.85.26-1.27.08-2.53.16-3.83.24-3.35.19-3.35.19-6.36 1.32v5h-5l-1 13c-3.96.5-3.96.5-8 1v16h-5l-1 45c-2.47.5-2.47.5-5 1-.77 6.38-1.28 12.71-1.56 19.12-.07 1.41-.07 1.41-.13 2.83-.44 10.68-.41 21.36-.31 32.05h-5l-1 132-4 1c-1.11 10.67-1.31 21.34-1.54 32.06-.04 1.95-.08 3.91-.13 5.86-.09 4.09-.17 8.18-.26 12.27-.11 5.15-.22 10.31-.34 15.46-.5 22.12-.9 44.22-.73 66.35h-5v254h5c-.01.64-.02 1.29-.04 1.95-.11 12.14.52 24.24 1.04 36.36.1 2.3.19 4.61.29 6.91.23 5.59.47 11.19.71 16.78l5 1 1 32h5c.12 1.15.25 2.31.38 3.5.79 7.18 1.71 14.34 2.62 21.5h4v17h5v13h7v12h8v5h5v8l5 1 2 6h5v3c.87.37 1.73.74 2.62 1.12 3.83 2.13 6.79 4.34 9.38 7.88.88 3.38.88 3.38 1 6h7v5l10 2v5h8v5c3.65 1.27 7.19 2.33 11 3l1 5h18v5c2.21.34 4.42.67 6.62 1 1.23.19 2.46.37 3.73.56 3.27.39 6.37.52 9.65.44v5h12v-5l2.45-.18c1.07-.09 2.14-.17 3.24-.26 1.05-.08 2.11-.16 3.2-.24 2.76-.28 5.4-.72 8.11-1.32v-5h8l1-5c.71-.13 1.42-.27 2.15-.4.92-.18 1.84-.36 2.79-.54.91-.17 1.83-.35 2.77-.52 2.24-.32 2.24-.32 3.29-1.54.04-1.67.04-3.33 0-5h8v-5h5v-7h7v-5h5v-8h8v-7h5v-11c.97-.14 1.94-.29 2.94-.44 2.92-.24 2.92-.24 4.06-1.56.04-1.67.04-3.33 0-5h5v-12h5c1.75-6.4 1.75-6.4 2-13h6v-18l6-1c1.31-1.09 1.31-1.09 1.1-3.72-.01-1.1-.03-2.21-.04-3.34l-.02-3.35-.04-2.59h5v-322h-5v-1.95c.06-40.99-.08-81.98-.37-122.97-.03-4.48-.06-8.95-.1-13.43-.1-14.87-.2-29.74-.31-44.61-.01-.78-.01-1.57-.02-2.38-.01-.79-.01-1.58-.02-2.39l-.27-38.8c-.09-13.4-.18-26.81-.28-40.21l-.15-22.44-.15-20.93-.06-7.67c-.02-3.48-.04-6.96-.07-10.44-.01-1.02-.01-2.03-.02-3.08-.04-4.67-.22-9.1-1.18-13.7h-5v-25h-5c-.06-.98-.12-1.95-.18-2.96-.09-1.27-.17-2.54-.26-3.85-.08-1.27-.16-2.53-.24-3.83-.19-3.35-.19-3.35-1.32-6.36h-5v-8h-5l-2-12h-6v-8h-5v-5h-7v-5c-1.42-.34-2.83-.67-4.25-1-.79-.19-1.58-.37-2.39-.56-2.62-.56-2.62-.56-6.36-.44v-5h-12v-5c-8.32-1.38-16.58-2.42-25-3v-5h-112Zm-2445 8v5h-17v5l-13 2v5h-7v5h-5v8h-5c-1.292 4.12-2.263 7.67-2 12h-6v6c-.969.14-1.939.29-2.938.44-2.927.24-2.927.24-4.062 1.56-.072 2.02-.084 4.04-.062 6.06l.027 3.35.035 2.59h-5v30h-5c-3.21 8.56-3.136 16.98-3.062 26l.013 3.21c.012 2.6.028 5.19.049 7.79l-4 1v157h5v280l-4 1c-.89 9.52-1.139 18.96-1.114 28.52v4.53c0 4.05.006 8.11.013 12.16.006 4.26.006 8.51.008 12.76.003 8.04.011 16.07.021 24.11.011 9.16.017 18.31.022 27.47.01 18.82.028 37.63.05 56.45h5v33h7v20h5l2 17h6v8h5l.684 6.05c.229 2.02.229 2.02 1.316 3.95h5v7h5l2 8h6v5h7v5l10 2v4l8 1v5c4.12 1.29 7.668 2.26 12 2v6h13v5c5.836 1.68 10.945 2.26 17 2.12l2.348-.02c1.884-.03 3.768-.06 5.652-.1v5h36v-5l20-2v-5h13v-6c1.279-.14 2.558-.29 3.875-.44 2.382-.27 3.97-.48 6.125-1.56v-5h7v-5l8-2v-5h5v-6c.969-.14 1.939-.29 2.938-.44 2.927-.24 2.927-.24 4.062-1.56.041-1.67.043-3.33 0-5h5v-13h8v-7h5v-18h5c.337-3.04.67-6.08 1-9.12l.289-2.6c.479-4.45.829-8.79.711-13.28h5v-37h5c1.12-58.36 1.552-116.73 2.013-175.1l.1-12.58c.571-71.34 1.003-142.67 1.075-261.41-.001-3.86 0-7.71.001-11.57.002-14.57-.001-29.13-.015-43.7-.004-4.4-.007-8.79-.007-13.18-.001-5.05-.007-10.09-.017-15.14-.003-1.82-.004-3.64-.004-5.45.306-15.61.306-15.61-2.196-30.92-1.286-4.7-1.201-9.29-1.145-14.14l.008-2.86c.011-2.98.036-5.97.062-8.95.01-2.04.019-4.07.027-6.11.022-4.96.057-9.93.098-14.89h-5v-38l-5-1c-.17-.84-.34-1.69-.516-2.55l-.734-3.33-.703-3.3c-.729-2.96-.729-2.96-3.109-3.82l-1.938-1c-.609-2.82-.609-2.82-.75-6.12l-.172-3.33L874 1731h-5l-2-10h-5v-8c-1.578-.34-1.578-.34-3.188-.69-4.007-1.15-6.201-3.01-8.812-6.31-.812-2.81-.812-2.81-1-5h-7v-5c-4.326-1.58-8.429-2.45-13-3v-5h-17v-5h-9v-2c-8.576-1.12-17.129-1.16-25.762-1.17-1.519 0-3.038 0-4.557-.01-3.173 0-6.346-.01-9.519-.01-4.022 0-8.045-.01-12.068-.03-3.136-.01-6.271-.01-9.407-.01-1.481 0-2.962 0-4.443-.01-16.339-.1-16.339-.1-32.244 3.24Zm2853 175v5h-15v5l-13 2v5h-10l-2 13h-5v5l-8 2v5h-5v13h-5c-2.76 10.5-2.19 21.24-2 32h-5v68h-5c-1.24 7.48-2.16 14.89-2.56 22.46l-.12 2.36c-.4 8-.47 16-.47 24.01 0 1.59 0 3.18-.01 4.77 0 4.26-.01 8.52-.01 12.78v8.02c-.01 9.37-.02 18.73-.02 28.09.01 8.68-.01 17.35-.02 26.03-.01 7.5-.02 14.99-.02 22.49 0 4.46 0 8.91-.01 13.37-.01 4.19-.01 8.38 0 12.58 0 1.52-.01 3.04-.01 4.57-.19 17.48-.19 17.48 3.25 34.47h5v33h5c-.02 1.15-.02 1.15-.03 2.32-.04 3.48-.07 6.95-.09 10.43l-.06 3.66-.02 3.51-.03 3.24c.23 2.82.77 4.45 2.23 6.84h6v19l5 1v12h7v13c1.58.34 1.58.34 3.19.69 4 1.15 6.2 3.01 8.81 6.31.81 2.81.81 2.81 1 5 1.33.31 1.33.31 2.69.62 4.13 1.72 5.7 3.79 8.31 7.38.37.95.74 1.9 1.12 2.88 1.7 2.4 1.7 2.4 4.51 2.43 2.81 0 5.57-.1 8.37-.31v7h17v5h13v6c6.91 2.13 13.3 2.24 20.5 2.12 1.11 0 2.22-.01 3.36-.02 2.71-.03 5.43-.06 8.14-.1v5h17v-5c.92.02.92.02 1.86.05 2.8.06 5.59.1 8.39.14.97.02 1.94.05 2.93.07 1.41.02 1.41.02 2.84.03 1.28.03 1.28.03 2.6.05 2.98-.43 4.32-1.15 6.38-3.34v-5h10c.99-2.47.99-2.47 2-5 .7-.06 1.4-.12 2.12-.18.91-.09 1.82-.17 2.76-.26.9-.08 1.8-.16 2.74-.24 2.39-.19 2.39-.19 4.38-1.32v-5h8v-5h7l1-7 10-1 2-6 5-1v-10h7l1-7 4-1v-7h6l2-10h5v-13l5-2c1.91-3.37 2.22-6.17 2-10h5v-20h8v-20h5v-43h5v-156h-5v-63h-5l.03-1.7c.04-2.54.07-5.07.09-7.61l.06-2.67c0-.85.01-1.7.02-2.57l.03-2.37c-.1-2.39-.1-2.39-2.23-5.08h-5v-13h-6c-.06-.7-.12-1.4-.18-2.12-.13-1.36-.13-1.36-.26-2.76-.08-.9-.16-1.8-.24-2.74-.19-2.39-.19-2.39-1.32-4.38h-5v-8h-5l-2-12h-5c.19-1.02.19-1.02.38-2.06-.57-4.45-2.93-7.16-6.38-9.94-3.72-1.05-3.72-1.05-7-1v-5l-12-2v-5h-8v-5l-11-3-1-5h-18v-7h-12v-5h-25v-8c-8-.07-15.99-.12-23.99-.16-3.72-.01-7.43-.03-11.14-.07-3.59-.03-7.17-.05-10.76-.05-1.37-.01-2.73-.02-4.1-.04-1.92-.02-3.83-.02-5.75-.02-1.09-.01-2.18-.01-3.3-.02-3.44.42-5.32 1.12-7.96 3.36Zm-3170 0v5h-38v5l-17 2-2 5h-13v6c-1.237.08-2.475.16-3.75.25-3.149.39-4.151.67-6.75 2.69-1.696 1.9-1.696 1.9-1.5 4.06h-6v5l-12 2v5h-5c-1.257 2.91-2 4.8-2 8h-6v10h-7v7h-5v13h-8v12h-5v13h-5l-2 17h-5v25h-5c-1.232 11.04-2.365 21.88-2 33h-5v80h-5v14h5v13h-5v5h5v70h5l-.07 2.27c-.408 10.1-.408 10.1 2.07 19.73l5 2v18h5l.184 2.41c.613 7.83.613 7.83 1.816 15.59l6 2v13h5l.312 3.81c.333 2.69.492 3.93 2.126 6.13 1.589 1.13 1.589 1.13 3.562 2.06.414 2.29.414 2.29.625 5.06l.227 2.79.148 2.15h5v8h8v7h5l.312 3.81c.323 2.4.58 3.99 1.75 6.13 3.165 1.73 6.362 1.77 9.938 2.06v6h8v7h5v5h7v8h8v5h12v5l25 2v5c2.874.33 2.874.33 6 0l1.177-1.98c1.823-2.02 1.823-2.02 5.541-2.53 1.547-.03 3.094-.04 4.641-.03 1.234-.02 1.234-.02 2.493-.03 2.633-.04 5.265-.05 7.898-.05 2.619-.02 5.237-.04 7.855-.08 1.628-.02 3.257-.03 4.885-.02 4.869-.05 8.886-.74 13.51-2.28v-5h20v-6c.687-.06 1.374-.12 2.082-.18 1.352-.13 1.352-.13 2.73-.26.894-.08 1.787-.16 2.708-.24 2.607-.25 2.607-.25 5.48-1.32v-5h12v-5h5v-7h8v-5h5v-8h7v-12h5v-13h5c1.726-12.45 1.726-12.45 2-25h6v-42h5c1.618-15.56 2.286-30.92 2.188-46.56l-.022-7.21c-.145-39.36-.634-78.72-1.057-118.08-.123-11.49-.243-22.99-.363-34.49-.245-23.55-.494-47.11-.746-70.66l-5-1-1-42h-5l-.184-2.96c-.125-1.91-.125-1.91-.254-3.85l-.246-3.83c-.188-3.35-.188-3.35-1.316-6.36h-5v-13h-5v-7l-7-1-1-12h-7v-5l-10-2v-5h-20v-5h-49Zm1575 1542v5c-.73-.02-1.46-.03-2.22-.05-3.32-.06-6.64-.1-9.97-.14-1.15-.02-2.3-.05-3.48-.07l-3.37-.03c-1.02-.02-2.05-.03-3.1-.05-3.39.4-5.24 1.13-7.86 3.34v5h-15v5l-13 2v5h-12v5h-5v8h-8v5h-5v7h-7v13h-5v12h-5c-1.75 6.4-1.75 6.4-2 13h-6v49h6c.06.69.12 1.37.18 2.08.09.9.17 1.8.26 2.73.08.9.16 1.79.24 2.71.25 2.61.25 2.61 1.32 5.48h5v12h5l2 8h5v5h6c.14.97.29 1.94.44 2.94.24 2.92.24 2.92 1.56 4.06 1.67.04 3.33.04 5 0v5h7v5c3.62 1.32 6.1 2 10 2v6h13v5l15 2v5h74v-5c1.1.02 1.1.02 2.22.03 3.32.04 6.64.07 9.97.09l3.48.06c1.12 0 2.23.01 3.37.02 1.53.01 1.53.01 3.1.03 2.99-.24 5.15-.97 7.86-2.23v-5h25v-6c.96-.06 1.93-.12 2.92-.18 1.27-.09 2.53-.17 3.83-.26 1.88-.12 1.88-.12 3.8-.24 2.63-.25 4.93-.56 7.45-1.32v-5h15v-5l12-2v-5h13v-5h5v-8h7v-5h5v-7h8v-5h5v-8c.78-.06 1.57-.12 2.38-.19 2.76-.54 2.76-.54 3.93-2.87 1.55-6.63.52-13.45-.31-20.13-1.14-9.35-1.14-9.35-1-13.81h-6v-12h-5v-13h-7v-7h-5l-2-10h-6v-8h-5v-7h-7v-5c-1.05-.21-2.1-.41-3.19-.62-4.53-1.3-6.22-3.5-8.81-7.38-.81-2.88-.81-2.88-1-5h-7v-5l-13-2v-5h-12v-5c-7.52-3.68-14.83-3.29-23-3v-5h-81Z"/><path fill="#000" d="M1892 1082h178v5h68v5c.8.03 1.61.05 2.44.08 15.86.49 31.71 1.04 47.56 1.92l1 6h29v5c.61-.02 1.22-.05 1.84-.07 8.52-.18 16.75.89 25.16 2.07v5h23v5l20 2v6h12v5l3.94-.12c4.9-.02 9.34.87 14.06 2.12v5h15v5l17 2v6h13v7h12v5h13v8h12v5h13v5c.7.06 1.4.12 2.12.18.91.09 1.82.17 2.76.26.9.08 1.8.16 2.74.24 2.38.32 2.38.32 4.38 1.32v5h13v8h12v5h8v5c1.92.22 1.92.22 3.88.44 2.38.27 3.96.48 6.12 1.56v5h7v8h8v5h10v7h7v5h8v5l10 2v6h7v7h13v5c1.05.06 2.1.12 3.19.19 4.56.97 6.1 2.04 8.81 5.81.31 3.81.31 3.81 0 7h13v7h5v5h7v8h5v5h8v7h5v5h7v8h5v5h8v7h5v5h7v8h5v5h8v7h5c1.32 3.62 2 6.1 2 10h5v8c1.03-.14 2.06-.29 3.12-.44 4.84.55 5.89 1.97 8.81 5.62 1.07 1.82 1.07 1.82 1.07 4.82l5 2v8h7v10h5v7h8v8h5c1.32 3.62 2 6.1 2 10l5 2v5h6l2 13h5v7h5c.26 1.05.26 1.05.52 2.12.24.91.48 1.82.73 2.76l.7 2.74c.85 2.53.85 2.53 3.16 3.7.62.22 1.25.45 1.89.68v6h5v12h8v8h5c1.32 3.62 2 6.1 2 10l5 2v13h6c.13 1.05.13 1.05.26 2.12.14.91.28 1.82.43 2.76.13.9.25 1.8.38 2.74.31.78.62 1.57.93 2.38l5 2v13h5c1.32 3.62 2 6.1 2 10l5 2v18h5v12h8v18h5c1.26 6.74 2.26 13.13 2 20h5v12h6l2 18h5v20h5c1.25 8.39 2.36 16.5 2 25h5v20h6l2 25h5v30h5c1.26 16.68 2.35 33.26 2 50h5v100h-5c.01.75.01 1.5.02 2.28.14 24.59-.18 49.18-2.02 73.72h-5v50h-5c-.06.87-.11 1.75-.17 2.65-.2 3.23-.42 6.46-.63 9.69l-.27 4.19-.39 6.03c-.08 1.21-.16 2.42-.24 3.66-.3 2.78-.3 2.78-1.3 3.78h-5v32h-5c.02.66.05 1.31.07 1.99.18 9.45-.91 18.65-2.07 28.01h-5v20h-5l-2 20h-6v13h-5l-.18 2.7c-.13 1.76-.13 1.76-.26 3.55-.08 1.16-.16 2.32-.24 3.52-.25 2.54-.6 4.79-1.32 7.23h-5v13h-5l-2 17h-6v8h-5l-.18 2.7c-.13 1.76-.13 1.76-.26 3.55-.08 1.16-.16 2.32-.24 3.52-.25 2.54-.6 4.79-1.32 7.23h-5v13h-8v7h-5v13h-7v12h-5v8l-5 1-3 9h-5v7h-5l-.18 2.08c-.09.9-.17 1.8-.26 2.73-.08.9-.16 1.79-.24 2.71-.32 2.48-.32 2.48-1.32 5.48h-5v7h-5c-.13 1.22-.27 2.43-.4 3.68l-.54 4.76c-.08.8-.17 1.6-.26 2.43-.69 6.02-.69 6.02-1.8 7.13-1.67.04-3.33.04-5 0v7h-5c-.14 1.28-.29 2.56-.44 3.88-.27 2.38-.48 3.96-1.56 6.12h-5v8h-5l-.18 1.86c-.09.81-.17 1.62-.26 2.45-.08.8-.16 1.6-.24 2.43-.32 2.26-.32 2.26-1.32 5.26h-6v13h-5l-.18 1.86c-.09.81-.17 1.62-.26 2.45-.08.8-.16 1.6-.24 2.43-.32 2.26-.32 2.26-1.32 5.26h-5v13h-8v5h-5v7h-5l-.18 2.08c-.09.9-.17 1.8-.26 2.73-.08.9-.16 1.79-.24 2.71-.32 2.48-.32 2.48-1.32 5.48h-5v12h-8v13h-5v5c-.62.22-1.25.45-1.89.68-2.83 1.77-3.04 3.26-3.86 6.44-.24.92-.48 1.83-.73 2.76-.26 1.05-.26 1.05-.52 2.12h-5v13l-4 2c-1.13 2.39-1.13 2.39-1.75 5.12-.24.92-.48 1.83-.73 2.76-.26 1.05-.26 1.05-.52 2.12h-6v8h-5c.04 1.05.08 2.1.12 3.19-.11 3.55-.59 5.66-2.12 8.81h-5v13h-5l-.18 1.86c-.09.81-.17 1.62-.26 2.45-.08.8-.16 1.6-.24 2.43-.32 2.26-.32 2.26-1.32 5.26l-6 2v16l-5 2-.18 2.92c-.13 1.9-.13 1.9-.26 3.83-.08 1.25-.16 2.51-.24 3.8-.25 2.63-.56 4.93-1.32 7.45h-5v30h-5l-.18 3.7c-.48 9.45-1.02 18.87-1.82 28.3h-6v17h6c.29 4.14.57 8.29.85 12.43l.3 4.22c.14 2.04.27 4.07.41 6.1.09 1.22.17 2.44.26 3.7.18 3.52.21 7.02.18 10.55h5v29h-5c-.09 1.74-.09 1.74-.18 3.52-.47 8.84-1.01 17.66-1.82 26.48h-6v24h5v133h-5v43h-5c.02.66.05 1.31.07 1.99.18 9.45-.91 18.65-2.07 28.01h-5v15h-5l-2 10h-5v7h-6c-.14.95-.29 1.9-.44 2.88-.56 3.12-.56 3.12-1.56 5.12h-5v5h-14v-8h-12v-5h-13v-5l-1.86-.18c-.81-.09-1.62-.17-2.45-.26-.8-.08-1.6-.16-2.43-.24-2.26-.32-2.26-.32-5.26-1.32v-5h-8l-1-5-9-3v-5h-7v-7h-5v-5h-8l-1-5-6-2v-6h-5v-5c-.9-.09-.9-.09-1.83-.18-.8-.09-1.6-.17-2.42-.26-.79-.08-1.58-.16-2.39-.24-2.18-.3-4.24-.74-6.36-1.32v-5c-.68.14-1.36.29-2.06.44-4.03-.6-5.71-2.57-8.58-5.32-1.36-2.12-1.36-2.12-1.36-8.12h-13v-7h-5v-5h-7v-8h-5v-5h-8v-5l-7-2v-5c-.64.07-1.28.14-1.94.21-4.83.3-8.22.29-12.12-2.77-3.2-3.15-3.85-5.93-3.94-10.44h-12v-7h-5v-5h-8v-5l-11-2-2-6h-7v-5h-5l-2-7h-10v-8h-8v-5c-1.09.1-1.09.1-2.2.21-7.63.43-7.63.43-10.87-1.33-1.73-1.61-2.89-2.75-3.93-4.88v-6h-13v-8h-5v-5h-7v-5c-.9-.09-.9-.09-1.83-.18-.8-.09-1.6-.17-2.42-.26-.79-.08-1.58-.16-2.39-.24-2.18-.3-4.24-.74-6.36-1.32v-5h-7v-5l-10-2v-6h-8v-5l-1.86-.18c-.81-.09-1.62-.17-2.45-.26-.8-.08-1.6-.16-2.43-.24-2.26-.32-2.26-.32-5.26-1.32v-5h-13v-8h-12v-5h-18l-2-4c-3.09-1.14-3.09-1.14-6.62-1.75-1.19-.24-2.38-.48-3.61-.73-1.37-.26-1.37-.26-2.77-.52v-5h-17v-8h-18v-5h-32v-5c-1.03.25-1.03.25-2.08.5-3.3.57-6.32.55-9.67.45l-1.96-.06c-2.1-.06-4.19-.13-6.29-.2-.71-.03-1.42-.05-2.16-.07-12-.39-23.91-1.24-35.84-2.62v-5h-67v-5l-2.02.03c-13.73.19-27.35-.01-41.04-.97-1.26-.08-2.52-.17-3.82-.26-8.85-.66-8.85-.66-11.12-1.8v-5h-35v-5c-.55.02-1.1.05-1.67.07-10.16.22-20.24-1.01-30.33-2.07v-5h-20v-5c-.94-.08-.94-.08-1.9-.17-2.82-.25-5.65-.51-8.48-.77-.98-.08-1.96-.17-2.98-.26-.94-.09-1.88-.18-2.85-.26-.87-.08-1.74-.16-2.64-.24-2.15-.3-2.15-.3-4.15-1.3v-5h-20v-5l-3.5.12c-7.22.03-14.36-1.14-21.5-2.12v-5h-17l-2-5c-2.36-1-2.36-1-5.06-1.25-4.89-.7-4.89-.7-5.94-1.75v-5h-15v-5c-.89-.06-1.78-.12-2.7-.18-1.76-.13-1.76-.13-3.55-.26-1.16-.08-2.32-.16-3.52-.24-2.54-.25-4.79-.6-7.23-1.32v-5h-13v-8h-12v-5h-13v-5l-1.86-.18-2.45-.26c-.8-.08-1.6-.16-2.43-.24-2.26-.32-2.26-.32-5.26-1.32v-5h-13v-8h-12v-5h-8v-5l-10-2v-5c-.81.03-1.62.07-2.45.11-1.07.02-2.14.05-3.24.08-1.05.03-2.11.07-3.2.1-3.53-.33-5.3-1.17-8.11-3.29-2.3-3.73-3-5.57-3-10h-12v-7h-8v-5c-.66.05-1.33.09-2.01.14-7.27.3-7.27.3-10.99-1.95-3.85-4.21-4-5.05-4-11.19h-13v-7h-5v-5h-7v-5c-1.28-.2-1.28-.2-2.59-.4-1.1-.18-2.21-.36-3.35-.54-1.65-.26-1.65-.26-3.34-.52-2.72-.54-2.72-.54-3.72-1.54-.04-1.67-.04-3.33 0-5-1.3.19-1.3.19-2.62.38-4.14-.46-5.52-1.65-8.26-4.65-1.68-2.59-1.55-4.74-1.12-7.73h-8l-1-5-9-3-2-10c-1.28-.14-2.56-.29-3.88-.44-2.38-.27-3.96-.48-6.12-1.56v-5h-8v-8h-5v-5h-7v-7h-5v-5h-8v-8h-5v-5h-7v-7h-5v-5h-8v-8h-5v-5h-7v-7h-5v-5h-8v-13h-6c-2.6-1.51-4.37-3.48-6-6-.38-3.38-.38-3.38 0-6h-5l-3-12-5-1v-12h-5c-3.13-2.11-4.9-3.85-7-7-.2-2.7-.2-2.7-.12-5.69.01-.99.03-1.99.05-3.01.02-.76.05-1.52.07-2.3h-5v-7h-8v-13h-5l-2-12h-5v-13h-6c-3.17-2.09-4.88-3.83-7-7-.2-3.14-.2-3.14-.12-6.69.01-1.18.03-2.36.05-3.57.02-.91.05-1.81.07-2.74h-5c-.09-.7-.17-1.4-.26-2.12-.42-2.72-.88-5.26-1.74-7.88-2.46-1.76-2.46-1.76-5-2v-10h-5l-3-12-5-1v-12h-5c-.34-1.42-.67-2.83-1-4.25-.19-.79-.37-1.58-.56-2.39-.44-2.36-.44-2.36-.44-6.36h-5v-12h-5l-3-12-5-1v-15h-5c-.09-.7-.17-1.4-.26-2.12-.14-.91-.28-1.82-.43-2.76-.13-.9-.25-1.8-.38-2.74-.31-.78-.62-1.57-.93-2.38l-5-2v-18h-5v-12h-8v-25h-5l-2-18-5-2v-25h-5c-1.19-7.99-2.3-15.96-3-24l-5-1v-30h-5c-.34-4.46-.67-8.92-1-13.38-.1-1.25-.19-2.5-.29-3.79-.51-6.96-.86-13.85-.71-20.83h-5v-42h-5c-1.1-4.61-1.31-9.16-1.54-13.87-.06-1.29-.06-1.29-.13-2.62l-.39-8.39c-.05-.94-.09-1.88-.14-2.86-.66-14.1-1.08-28.14-.8-42.26h-5v-46h5c.03-1.13.03-1.13.07-2.28l.66-21.4c.12-3.67.23-7.33.34-11l.33-10.64.18-5.98c.24-7.27.66-14.47 1.42-21.7h5v-40h5l2-17h5v-25h8v-18h5v-20h7v-12h5v-20l5-1c1.49-8.41 1.49-8.41 3-17h5v-12h5c.06-.8.12-1.59.18-2.41.84-10.53.84-10.53 1.82-15.59h5v-12l5-1c.13-.84.27-1.69.4-2.55.18-1.1.36-2.2.54-3.33.17-1.09.35-2.18.52-3.3.54-2.82.54-2.82 1.54-4.82h5v-18h7v-12h5v-13h8v-12h5v-8h5l2-12h5v-11l6-2c.14-1.28.29-2.56.44-3.88.27-2.38.48-3.96 1.56-6.12h5v-7h5l.18-1.83c.09-.8.17-1.6.26-2.42.12-1.18.12-1.18.24-2.39.3-2.18.74-4.24 1.32-6.36h5v-7l5-1c1.49-4.45 1.49-4.45 3-9h5v-8h5l2-12h5c-.22-1.27-.22-1.27-.44-2.56.57-4.44 2.29-6 5.32-9.12 2.12-1.32 2.12-1.32 8.12-1.32v-12h7v-5h5v-8h6c.14-.97.29-1.94.44-2.94.56-3.06.56-3.06 1.56-4.06h5v-10h7v-8h5c-.14-.68-.29-1.36-.44-2.06.61-4.06 2.55-5.8 5.48-8.56 2.71-1.91 4.74-1.93 7.96-1.38-.1-.89-.21-1.77-.31-2.69.41-4.35 2.06-5.52 5.31-8.31l2-2c2.62-.12 2.62-.12 5 0v-7h5v-5h8v-8h5v-5h7v-7h5v-5h8v-8h5v-5h7v-7h5v-5h8c-.1-.89-.21-1.77-.31-2.69.41-4.35 2.06-5.52 5.31-8.31l2-2c2.62-.12 2.62-.12 5 0-.14-.68-.29-1.36-.44-2.06.61-4.06 2.55-5.8 5.48-8.56 2.71-1.91 4.74-1.93 7.96-1.38v-6l12-2v-5h8v-5h5v-7h7v-5c1.29-.5 2.58-1 3.88-1.5 1.07-.42 1.07-.42 2.17-.84 1.95-.66 1.95-.66 3.95-.66v-5h8c-.12-.87-.25-1.73-.38-2.62.45-4.03 1.39-5.55 4.31-8.26 4.06-2.2 8.6-1.55 13.07-1.12v-5h8v-8h12v-5c8.43-2.29 8.43-2.29 13-2v-5h12v-5c4.33-1.58 8.43-2.45 13-3v-5h12v-5c8.43-2.29 8.43-2.29 13-2v-5h12v-5h13v-8h17v-5c8.43-2.29 8.43-2.29 13-2v-5h15v-6l17-2v-5h20v-5c16.71-2.3 16.71-2.3 25-2v-5h30v-5c1.95-1.95 5.58-1.39 8.25-1.54.74-.04 1.47-.08 2.23-.13 1.56-.09 3.12-.17 4.68-.26 2.37-.13 4.73-.27 7.1-.41 1.52-.08 3.04-.17 4.56-.26.7-.04 1.39-.08 2.12-.12 4.69-.26 9.36-.31 14.06-.28v-5h75v-5Zm-4 101v5h-43v5l-3.7.18c-9.45.48-18.87 1.02-28.3 1.82v5h-25v6c-.96.06-1.93.12-2.92.18-1.27.09-2.53.17-3.83.26-1.25.08-2.51.16-3.8.24-2.63.25-4.93.56-7.45 1.32v5h-20v5h-12v7h-20v6c-1.24.08-2.48.16-3.75.25-3.15.39-4.15.67-6.75 2.69-1.7 1.9-1.7 1.9-1.5 4.06h-13v5c-.7.09-1.4.17-2.12.26-.91.14-1.82.28-2.76.43-1.35.19-1.35.19-2.74.38-.78.31-1.57.62-2.38.93l-2 5h-13v6c-1.92.22-1.92.22-3.88.44-2.38.27-3.96.48-6.12 1.56v5h-8v5h-12v7h-13c-.04 1.05-.08 2.1-.12 3.19-1.17 5.05-2.67 5.94-6.88 8.81-1.49.5-1.49.5-3 1l-.88 1.94c-1.12 2.06-1.12 2.06-3.24 3.25-3.64 1.02-7.13 1.43-10.88 1.81v5h-7v5h-5v8h-8v5l-10 2v5h-7v5h-8v8h-10l-2 6-5 1v5h-8v5h-5v8h-7v5h-5v7h-8v5h-5v8h-7v5h-5v7h-8v5h-5v8c-.72-.08-1.44-.16-2.19-.25-3.7.33-5.14 1.73-7.81 4.25-2.15 3.23-2.2 4.28-2 8h-5c-1.75 6.4-1.75 6.4-2 13h-6v5h-7v7h-5v5h-8v8h-5l-1 5-6 2v5h-5v13h-8v5h-5v7h-5l-2 13h-5v7h-5c-1.32 3.62-2 6.1-2 10h-6v8h-7v12h-5v8h-4c-.51 1.44-1 2.87-1.5 4.31-.28.8-.56 1.6-.84 2.43-.8 2.35-.8 2.35-.66 5.26h-6v11l-5 2c-1.03 2.39-1.03 2.39-1.31 5.12-.14.92-.28 1.83-.43 2.76-.13 1.05-.13 1.05-.26 2.12h-5v7h-5c-1.75 6.4-1.75 6.4-2 13h-6v12h-5l-2 13h-5v12h-5c-.1.92-.2 1.83-.3 2.77-.15 1.19-.3 2.38-.45 3.61-.14 1.18-.28 2.36-.42 3.58-.83 3.04-.83 3.04-2.78 4.39-1.02.32-1.02.32-2.05.65l-2 1v9h-5l-2 18h-5v15h-5c-3.51 7.31-3.3 13.99-3 22h-5v15h-5c-2.24 5.38-2.24 10.16-2.12 15.88 0 .87.01 1.75.02 2.66.03 2.15.06 4.31.1 6.46h-5v35h-5c-3.2 8.74-3.14 16.95-3.1 26.15 0 1.26.01 2.51.01 3.81 0 3.31.01 6.63.02 9.94.01 3.4.02 6.79.02 10.18.01 6.64.03 13.28.05 19.92h-5v50h5c-.01.98-.01 1.96-.02 2.97-.01 3.63-.03 7.27-.03 10.91l-.03 4.72c-.01 2.26-.01 4.53-.02 6.79 0 .7-.01 1.4-.01 2.13 0 3.3.08 6.32 1.11 9.48h2v18h5v40h5l2 37h6v30l4 1c-.03 1.31-.07 2.63-.11 3.98-.02 1.74-.05 3.47-.08 5.21-.02.86-.05 1.73-.07 2.62-.13 6.65-.13 6.65 3.26 12.19h5v20h5l-.03 1.68c-.04 2.52-.07 5.05-.09 7.57l-.06 2.64c0 .85-.01 1.69-.02 2.56l-.03 2.35c.26 2.46 1.01 4.07 2.23 6.2h6v15h5c.06.98.12 1.95.18 2.96.09 1.27.17 2.54.26 3.85.08 1.27.16 2.53.24 3.83.19 3.35.19 3.35 1.32 6.36h5v13h5v12h8v13h5v12h7v13h5v12h8v13h5v12h7v13h5l2 12h6v8h5c.23 2.02.46 4.04.68 6.05.23 2.02.23 2.02 1.32 3.95h5v7h5l2 13h6v7h5v5h7v8h5c.23 1.28.45 2.56.69 3.88.47 2.19.47 2.19 1.31 4.12 2.48 1.6 2.48 1.6 5 2l1 7c.89.23 1.77.45 2.69.69 3.86 1.53 5.73 3.06 8.31 6.31.81 3.31.81 3.31 1 6 .78.08 1.57.16 2.38.25.86.25 1.73.5 2.62.75.46.96.46.96.94 1.94.96 2.42.96 2.42 4.18 3.31 1.43.37 1.43.37 2.88.75v5c.89.23 1.77.45 2.69.69 3.86 1.53 5.73 3.06 8.31 6.31.81 3.31.81 3.31 1 6l5 1 2 6h6v4c.54.24 1.09.48 1.64.73 7.48 3.51 7.48 3.51 9.36 7.27.69 3.25.69 3.25 1 6l5 1 2 6h6v5h7v5c3.62 1.32 6.1 2 10 2v6h8v7h5v5h7v6l12 2 1 5c1.07.23 2.14.45 3.25.69 4.2 1.47 5.48 2.55 7.75 6.31l1 5h13v8h5v3l7 1v6l13 2v5h5c.34 1.18.34 1.18.69 2.38 1.08 2.77 1.08 2.77 3.62 3.93 2.69.69 4.93.85 7.69.69v6h8v5l12 2v5h13v8h12v5h13v7h12v4c2.64 1.32 4.68 1.1 7.62 1.06 1.01-.01 2.01-.02 3.04-.02.77-.02 1.55-.03 2.34-.04v8h12v5h13v5c2.4.34 4.79.67 7.19 1 .67.1 1.34.19 2.04.29 3.62.49 7.12.82 10.77.71v5l22 1 2 4c3.26.71 3.26.71 7.06.88 4.96.44 8.63 1.09 12.63 4.24 5.06 4 10.12 3.45 16.31 2.88v5c8.39 1.25 16.5 2.36 25 2v5h27v5c1.51 1.51 2.88 1.2 4.99 1.3l2.58.12 2.8.12c.95.04 1.9.08 2.88.13 2.03.09 4.05.17 6.07.26 3.07.13 6.14.27 9.21.41 1.97.08 3.94.17 5.9.26l2.75.12c5.95.25 11.87.33 17.82.28v5h55v5c.84 0 1.68 0 2.54-.01 7.92-.02 15.83-.03 23.75-.04 4.07-.01 8.14-.01 12.2-.03 3.93-.01 7.86-.01 11.79-.01 1.5-.01 3-.01 4.49-.02h6.31c1.19-.01 2.39-.01 3.62-.01 3.19.12 6.16.54 9.3 1.12 9.67.84 19.3 1.15 29 1v5h25v5c1.64 1.64 3.65 1.34 5.92 1.54 1.01.08 2.01.17 3.05.26 1.06.09 2.12.17 3.22.26 1.56.14 1.56.14 3.16.28 4.89.41 9.73.79 14.65.66v5h20v5l12 2v5h13v5l9 3 1 5h7v5l13 2v5h5c.23.78.45 1.57.69 2.38 1.08 2.77 1.08 2.77 3.62 3.93 2.69.69 4.93.85 7.69.69v6h8v7h5v5h7v8h8v5h5v5l12 2v5c1.05.21 2.1.41 3.19.62 4.53 1.3 6.22 3.5 8.81 7.38.81 2.88.81 2.88 1 5h7v5l10 2 1 5h7v5c4.12 1.29 7.67 2.26 12 2v6h13v5l12 2v5h13v5c4.12 1.29 7.67 2.26 12 2v6h13v7h5v5h7v8h8v5h5v5l12 2v5h8v5h9l.03-2.19c.13-9.18.27-18.37.41-27.56l.03-2.22c.29-19 .59-37.99 1.23-56.98.3-9.35.35-18.69.3-28.05h5v-108h5v-29h-5v-6h5v-1h-5v-6h5c1.23-11.04 2.37-21.88 2-33h5v-12h6l2-18h5v-7h5c1.26-2.91 2-4.8 2-8l5 1v-3h6l2-13h5v-7h5c1.75-6.4 1.75-6.4 2-13h5v-7h6l2-10h5v-8h7v-7h5v-10h8v-8h5c.25-1.07.5-2.14.75-3.25 1.28-3.83 2.02-5.41 5.25-7.75 3.25-.75 3.25-.75 6-1l1-7 5-1 2-10h5v-7h7l1-7 4-1 1-9 7-1v-7h5v-13h7l1-4 4-1c.1-.88.2-1.76.3-2.67.15-1.16.3-2.32.45-3.52.21-1.72.21-1.72.42-3.48.94-3.75 2.11-5.61 4.83-8.33 3.75-1.31 3.75-1.31 7-2v-12h5c1.75-6.4 1.75-6.4 2-13h5v-12h8v-13h5v-12h5c1.75-6.4 1.75-6.4 2-13h5v-12h6l2-13h5v-12h5c1.75-6.4 1.75-6.4 2-13h5l.04-3.61.15-4.7c0-.79.01-1.57.02-2.38.08-2.21.2-4.18.79-6.31 2.47-1.66 2.47-1.66 5-3 1.03-2.93 1.03-2.93 1.31-6.19.14-1.08.28-2.17.43-3.29.08-.83.17-1.66.26-2.52h5v-18h5c1.3-5.76 2.26-11.09 2-17h5v-28h6l2-25h5v-30h5c1.2-12.35 2.39-24.58 2-37h5v-43h6l.78-22.69c.12-3.52.24-7.03.37-10.54.14-4.06.28-8.12.41-12.18.05-1.24.09-2.47.14-3.74.28-8.62.35-17.23.3-25.85h5v-86h-5l.03-3.05c.04-3.79.06-7.57.08-11.35.01-1.63.02-3.26.04-4.89.09-8.84.06-17.08-2.15-25.71h-5v-25h-5c.03-.98.03-.98.07-1.98.15-7.42.32-16.24-3.07-23.02h-5v-20h-5v-18h-7v-25h-6c-.06-.7-.12-1.4-.18-2.12-.09-.91-.17-1.82-.26-2.76-.08-.9-.16-1.8-.24-2.74-.19-2.39-.19-2.39-1.32-4.38h-5v-18h-5l-2-12h-5v-15h-6c-.04-.61-.07-1.23-.11-1.86-.07-.81-.13-1.62-.2-2.45-.06-.8-.12-1.6-.18-2.43-.6-2.66-1.41-3.57-3.51-5.26l-2-1c-.41-2.72-.41-2.72-.62-6.06-.08-1.11-.15-2.21-.23-3.35l-.15-2.59h-5l-2-10h-6v-8h-5c-.06-.7-.12-1.4-.18-2.12-.09-.91-.17-1.82-.26-2.76-.08-.9-.16-1.8-.24-2.74-.19-2.39-.19-2.39-1.32-4.38h-5v-8h-5v-5h-8v-12c-.93-.31-1.86-.62-2.81-.94-6.19-2.06-6.19-2.06-7.31-3.75-1.04-2.74-1.48-5.41-1.88-8.31h-5l-2-12h-6v-8h-5v-5h-7v-7h-5c-1.33-3.33-2.67-6.67-4-10h-4v-8h-7v-5h-5v-7c-1.3-.31-1.3-.31-2.62-.62-4.13-1.69-6.72-3.82-9.38-7.38-.88-2.88-.88-2.88-1-5-.93-.31-1.86-.62-2.81-.94-2.07-.68-4.13-1.37-6.19-2.06-.74-2-.74-2-1.31-4.44-.68-2.45-.68-2.45-1.69-4.56-2.82-1.28-2.82-1.28-6-2-3.35-2.5-5.65-4.85-6.88-8.88l-.12-2.12c-.93-.31-1.86-.62-2.81-.94-2.07-.68-4.13-1.37-6.19-2.06-.95-2.07-.95-2.07-1.69-4.56-.25-.83-.5-1.66-.76-2.51-.18-.63-.36-1.27-.55-1.93h-8v-5h-5v-8h-12v-7h-5v-5h-8v-8h-5v-5h-7v-5c-2.91-1.26-4.8-2-8-2v-5h-10v-8h-7v-5h-8v-5c-3.62-1.32-6.1-2-10-2v-5h-7v-8h-13v-5c-.93-.31-1.86-.62-2.81-.94-2.07-.68-4.13-1.37-6.19-2.06-1.34-2.91-2.09-5.92-3-9h-13v-8h-12v-5h-8v-5c-3.62-1.32-6.1-2-10-2v-5c-.83-.01-1.66-.03-2.52-.04-1.09-.05-2.17-.1-3.29-.15-1.08-.03-2.16-.07-3.27-.1-2.92-.71-2.92-.71-4.48-3.18-.48-.83-.95-1.67-1.44-2.53-2.47-1.02-2.47-1.02-5.19-1.31-.9-.14-1.8-.28-2.73-.43-.69-.08-1.37-.17-2.08-.26v-5h-7v-5c-6.07-1.23-11.8-2.28-18-2v-5c-.83-.01-1.66-.03-2.52-.04-1.09-.05-2.17-.1-3.29-.15-1.08-.03-2.16-.07-3.27-.1-2.92-.71-2.92-.71-4.48-3.18-.48-.83-.95-1.67-1.44-2.53-2.47-1.02-2.47-1.02-5.19-1.31-.9-.14-1.8-.28-2.73-.43-.69-.08-1.37-.17-2.08-.26v-5h-15v-5c-5.76-1.3-11.09-2.26-17-2v-5h-13v-6l-17-2v-5h-20v-5c-8.39-1.25-16.5-2.36-25-2v-5h-25v-6c-7.91-2.19-15.38-2.23-23.56-2.12l-3.93.02c-3.17.03-6.34.06-9.51.1v-5h-50v-5h-162Z"/><path fill="#FFBF00" d="M1958.83 1771.57c1.65-.01 3.3-.01 4.94-.02 3.43-.01 6.85-.01 10.27 0 4.35.02 8.7 0 13.05-.03 3.39-.02 6.78-.02 10.17-.02 1.61 0 3.21 0 4.81-.01 9.98-.07 18.46 1.1 27.93 4.51 5.58 1.53 11.21 2.83 16.86 4.09 29.94 6.75 51.28 19.64 74.14 39.91.97.85 1.93 1.71 2.93 2.59 7.51 6.68 14.24 13.48 20.55 21.32 2.78 3.41 5.64 6.76 8.52 10.09 3.54 4.1 7.03 8.23 10.44 12.44 3.51 4.33 7.14 8.55 10.81 12.75 16.75 19.25 31.96 39.09 43.75 61.81.49.93.49.93.98 1.88 5.45 10.41 8.09 20.28 6.02 32.12-1.65 3.01-3.46 5.02-5.86 7.46-2.54 3.02-3.78 6.13-5.08 9.79-2.24 6.21-5.18 11.37-8.88 16.82-2.22 3.29-3.89 6.37-5.18 10.12-1.88 5.26-5.16 8.91-8.79 13.1-2.02 2.48-3.51 4.84-5.02 7.65-2.39 4.19-5.34 7.38-8.81 10.68-8 7.64-14.21 16.53-20.61 25.5-4.92 6.8-10.35 12.75-16.16 18.79-5.92 6.24-10.86 12.94-15.61 20.09l-2 3c-.97.1-1.94.21-2.94.31-1.01.23-2.02.46-3.06.69-1.66 2.73-1.66 2.73-3 6-5.34 7.84-13.69 11.85-22 16-4.99 2.62-5.8 4.84-8 10-1.82 1.03-1.82 1.03-4.18 1.89-.9.34-1.81.68-2.74 1.02-1.01.36-2.03.72-3.08 1.09-1.66.6-1.66.6-3.36 1.21-24.69 8.72-47.36 13-73.64 12.92-2.2-.01-4.39 0-6.59.01-22.68.01-22.68.01-27.41-3.14-1.59-.46-3.2-.85-4.81-1.19-1.47-.33-1.47-.33-2.97-.66-1.07-.24-2.13-.47-3.22-.71-9.75-2.25-19.26-4.96-28.75-8.13-1.15-.38-2.29-.76-3.48-1.15-9.8-3.34-9.8-3.34-13.77-6.16-.69-1.76-.69-1.76-1.4-3.55-1.25-3.69-1.25-3.69-4.58-4.77-1.2-.27-2.4-.53-3.64-.8-9.32-2.53-15.74-8.07-23.11-14.08-3.96-3.14-8.09-6.06-12.21-8.99-1.51-1.07-3.02-2.15-4.52-3.23-.64-.45-1.28-.9-1.93-1.37-1.61-1.21-1.61-1.21-3.61-3.21-.12-3.62-.12-3.62 0-7-.74.09-1.48.18-2.24.27-3.72-.36-4.59-1.69-6.95-4.52-.67-.79-1.35-1.58-2.04-2.39-2.94-3.92-4.04-6.43-3.77-11.36-1.11.14-1.11.14-2.24.29-2.76-.29-2.76-.29-4.87-2.17-22.06-28.44-22.06-28.44-22.89-43.12-.76.08-1.52.16-2.3.25-2.7-.25-2.7-.25-4.4-1.84-13.57-20.6-23.86-43.09-21.3-68.41 1.22-4.55 3.08-8.71 5-13 1.3-3.09 2.56-6.2 3.81-9.31.52-1.27.52-1.27 1.04-2.56 2.25-5.59 4.16-11.22 5.95-16.97 3.2-10.22 7.1-19.3 12.42-28.59 4.19-7.33 7.83-14.83 11.34-22.51.54-1.17 1.07-2.34 1.63-3.55 1.07-2.34 2.14-4.69 3.21-7.03 2.57-5.58 5.2-11.13 7.85-16.67.47-.98.93-1.96 1.41-2.97.43-.89.85-1.78 1.29-2.7.38-.78.75-1.56 1.13-2.36.92-1.78.92-1.78 1.92-2.78h5l2-12h6l.81-2.67c4.46-12.51 14.46-22.91 25.92-29.35 2.87-1.24 5.18-1.47 8.27-.98v-5c8.4-3.79 16.73-6.47 25.69-8.63 1.14-.28 2.28-.57 3.45-.86 15.32-3.77 29.92-5.98 45.69-5.94ZM1938 1880c-1.28 3.09-1.28 3.09-2 6-1.7.69-3.41 1.37-5.14 1.99-3.86 2.1-5.68 6.33-7.86 10.01-1.24 1.96-2.49 3.92-3.75 5.87-.57.91-1.14 1.81-1.73 2.75-1.15 1.81-2.33 3.6-3.52 5.38-.62 2.38-.62 2.38-1.04 5.05-.16 1-.33 2-.51 3.04-.25 1.59-.25 1.59-.51 3.22-.18 1.09-.35 2.17-.54 3.29-1.23 7.8-2.15 15.5-2.4 23.4l-.12 2.39c-.79 27.12 6.9 58.02 25.61 78.21 11.21 11.54 25.85 18.65 40.89 23.84 1.1.39 1.1.39 2.23.78 8.87 2.91 15.35 1.88 23.89-1.34l2.64-.97c1.78-.66 3.56-1.32 5.33-1.98 2.29-.84 4.59-1.64 6.9-2.41 9.51-3.26 17.45-7.69 25.63-13.52.88-.62 1.76-1.25 2.66-1.89 11.59-8.61 17.77-20.32 23.65-33.24.34-.72.68-1.45 1.03-2.2 3.8-8.58 4.97-17.12 4.96-26.46.01-1.35.01-1.35.01-2.72.01-1.9.01-3.79.01-5.68-.01-2.84.02-5.68.04-8.52.05-14.45-.66-28.99-6.73-42.35-.31-.7-.62-1.4-.93-2.13-2.19-4.9-4.31-9.62-7.7-13.81-2.72-.67-2.72-.67-5 0l.06-3c-.71-4.81-3.72-7.07-7.36-10.02-28.9-21.17-79.01-25.24-108.7-2.98Zm139 71v19h2v-19h-2ZM2416.61 1771.68c3.15.01 6.31-.02 9.46-.04 15.3-.05 29.5 1.33 44.23 5.65 5.54 1.46 11.23 2.19 16.89 3.09 27.63 4.61 55.85 15.81 74.81 37.62.1.83.21 1.65.31 2.5.34 1.24.34 1.24.69 2.5 1.98 1.04 3.99 2.03 6 3 21.24 15.88 29.23 44.8 36.81 68.94.56 1.77.56 1.77 1.13 3.58 3.33 10.83 6.01 21.69 7 32.98.44 4.78.99 9.45 2.07 14.13 5.49 24.14 5.85 53.23-.01 77.37-.17.73-.34 1.46-.52 2.21-3.48 14.34-10.07 26.68-17.64 39.23-2.23 3.71-4.32 7.43-6.23 11.31-.58 1.16-.58 1.16-1.17 2.35-.73 1.48-1.44 2.96-2.13 4.46-1.77 3.56-3.14 5.73-6.83 7.42-3.48 1.02-3.48 1.02-7.48 1.02-.25.87-.49 1.73-.75 2.63-7.52 20.29-30.83 31.89-48.25 42.37-.91.55-1.82 1.11-2.75 1.68-.89.54-1.77 1.07-2.68 1.63-.8.48-1.6.97-2.42 1.47-5.75 3.26-11.44 3.45-17.89 3.49-3.34.75-4.75 1.65-7.47 3.62-4.96 3.5-9.63 4.59-15.54 5.67-6.22 1.27-12.12 2.54-18 5-5.11 2.14-10.17 3.5-15.56 4.69-.74.16-1.49.33-2.25.49-19.77 4.17-41.8 4.16-61.44-.74-1.2-.3-1.2-.3-2.43-.6-11.98-3.07-22.77-7.41-33.57-13.4-.64-.35-1.29-.7-1.95-1.06-13.01-7.07-13.01-7.07-18.05-11.94-.38-1.66-.72-3.32-1-5-1.85-1.5-1.85-1.5-4.19-2.5-4.21-2.16-7.49-4.1-10.81-7.5-.27-1.15-.54-2.31-.81-3.5-1.39-4.08-2.01-4.27-5.69-6.12-.8-.4-1.61-.79-2.43-1.19-2.07-1.19-2.07-1.19-3.63-3.81-.44-2.38-.44-2.38-.44-5.38-1.3-.37-1.3-.37-2.62-.75-9.31-3.45-12.8-10.08-17.38-18.25-.37-.65-.74-1.29-1.12-1.96-8.17-14.32-13.93-29.04-17.69-45.1-.29-1.24-.29-1.24-.59-2.5-4.09-18.72-3.95-37.61-3.92-56.66.01-3.14 0-6.29-.02-9.43-.15-26.68.95-50.32 13.46-74.52 3.89-7.62 6.13-15.41 7.98-23.74 6.59-29.53 22.2-57.72 47.4-75.59 1.47-.88 2.98-1.71 4.5-2.5 1.06-.56 2.12-1.11 3.21-1.69 27.99-14.1 58.53-16.69 89.4-16.63ZM2372 1901c-.77.53-1.54 1.05-2.34 1.59-7.44 5.43-9.53 13.98-11.06 22.68-4.73 31.55.68 60.08 19.72 85.94 1.21 1.61 2.45 3.2 3.68 4.79.73.94 1.46 1.88 2.21 2.85 5.89 7.38 12.3 14.29 18.79 21.15.55.61 1.09 1.23 1.65 1.86 2.23 1.88 4.57 1.33 7.35 1.14-.23 1.3-.23 1.3-.46 2.62.52 3.78.85 4.13 3.64 6.45 1.41 1.04 2.83 2.06 4.26 3.06.69.51 1.37 1.02 2.08 1.55 9.89 7.15 19.28 10.06 31.48 9.32 7.11-1.52 12.57-7.98 16.5-13.75 9.02-14.98 14.33-31.18 15.77-48.53.07-.78.13-1.56.2-2.36.06-.7.11-1.39.17-2.11.36-2.25.36-2.25 1.38-5.1 1.08-3.46 1.24-6.28 1.25-9.9v-3.84c0-1.31-.01-2.62-.02-3.97.01-1.32.02-2.63.02-3.98v-3.84c-.01-1.72-.01-1.72-.01-3.49-.26-3.14-1.04-5.25-2.26-8.13-.27-2.18-.27-2.18-.31-4.38-.02-.83-.04-1.66-.07-2.51l-.06-2.67c-.92-24.66-5.11-52.27-23.56-70.44-27.88-13.47-68.51 6.6-90 24ZM1554.96 1779.19c2.98.04 5.97.08 8.95.1 42.02.37 76.76 8.86 110.94 34.39 3.71 2.73 7.55 5.21 11.45 7.65 1.7 1.67 1.7 1.67 1.96 4.37-.09.76-.17 1.52-.26 2.3.89.25 1.78.49 2.7.75 11.18 4.23 20.09 17.24 27.11 26.5 12.86 16.92 26.82 31.02 44.17 43.37 6.71 4.85 13.57 10.17 16.02 18.38.21 2.85.33 5.6.34 8.45 0 .81.01 1.62.02 2.46.01 1.72.01 3.44.01 5.15 0 2.6.04 5.2.08 7.8.13 18.36.13 18.36-4.45 24.14-4.3 2.2-8.32 2.31-13.06 2.25-1.12-.01-1.12-.01-2.26-.01C1744 1967 1744 1967 1738 1964l.87 3.66c3.48 15.04 3.95 26.95.5 42.03-.23 1.04-.47 2.09-.71 3.17-1.28 5.2-2.8 9.68-5.51 14.32-3.82 6.6-5.94 13.6-8.22 20.84-7.88 24.92-17.89 48.34-31.57 70.69-1.98 3.34-3.67 6.79-5.36 10.29h-6c-.19.82-.37 1.65-.56 2.5-3.86 9.4-11.59 14.18-20.44 18.5-11.22 4.54-22.51 6.47-34.44 8.12-2.53.36-5.05.72-7.58 1.1-1.55.22-3.11.44-4.66.65-3.7.54-6.98 1.3-10.45 2.7-3.54 1.41-6.5 1.78-10.34 1.72l-3.48-.03c-1.17-.02-2.34-.05-3.55-.07-1.2-.02-2.41-.03-3.65-.04-2.95-.04-5.9-.09-8.85-.15l-1-4c-.8.46-.8.46-1.63.94-8.5 3.8-17.44 2.06-26.06-.19-7.38-1.86-14.75-3.43-22.25-4.75-21.48-3.94-38.83-13.97-56.06-27-.6-.45-1.2-.9-1.81-1.36-1.46-1.14-2.83-2.38-4.19-3.64-.38-3.31-.38-3.31 0-6-1.33-.41-1.33-.41-2.69-.82-28.84-10.27-48.79-43.25-61.44-69.37-9.02-19.14-14.44-37.65-15.62-58.79-.32-3.87-1.24-7.28-2.25-11.02-1.19-7.96-1.22-15.94-1.24-23.97-.01-2.33-.04-4.65-.07-6.97-.06-7.9.4-14.87 2.62-22.51.96-3.55 1.13-6.81 1.25-10.49.29-8.18.29-8.18 2.44-12.06 1.87-1.36 1.87-1.36 4-2.31.7-.33 1.4-.65 2.12-.99 1.88-.7 1.88-.7 3.88-.7l.15-2.34c.07-1.05.15-2.09.22-3.16.07-1.02.14-2.04.22-3.09 1.85-15.24 10.79-28.29 18.41-41.29.66-1.14 1.33-2.28 2.01-3.45 4.62-7.78 9.57-15.25 15.99-21.67.81-.11 1.62-.23 2.46-.34 2.67-.41 2.67-.41 3.99-2.63.41-.83.82-1.67 1.24-2.53 3.42-6.14 7.86-10.15 13.31-14.5.77-.62 1.54-1.23 2.34-1.87 5.97-4.46 12.36-7.48 19.12-10.5 2.87-1.32 5.48-2.73 8.16-4.38 20.1-11.55 50.98-7.4 73.34-7.06Zm-57.63 110.92c-17.4 21.63-14.92 56.46-13.06 82.55 1.34 11.94 5.4 23.06 10.55 33.86 1.1 2.32 2.08 4.67 3.05 7.04 4.62 10.3 12.38 18.42 20.13 26.44.69.71 1.37 1.43 2.08 2.16 18.61 19.38 18.61 19.38 42.92 29.84 6.25-.33 10.4-2.89 15-7 1.73-2.12 3.39-4.23 5-6.44 3.09-4.19 6.28-7.89 10-11.56 2.92-3.37 5-6.67 6.94-10.69.51-1.04 1.02-2.09 1.54-3.17.5-1.03 1-2.07 1.52-3.14.91-1.83 1.83-3.67 2.75-5.5.39-.77.77-1.55 1.17-2.34 1.08-2.16 1.08-2.16 2.15-3.89 1.46-3.56 1.67-7.22 2.05-11.02.09-.79.18-1.59.27-2.4.21-1.95.41-3.9.61-5.85 2.47-.5 2.47-.5 5-1 7.51-26.36 12.57-57.54-1-83-3.62-5.62-7.76-10.83-12-16-1.19-1.46-1.19-1.46-2.39-2.96-11.25-13.19-26.25-21.57-43.61-23.04-4.9-.22-9.79-.28-14.69-.31-1.93-.05-1.93-.05-3.89-.09-16.82-.11-30.46 5.31-42.09 17.51ZM1733 1956v7h4v-7h-4Z"/></svg>