<svg xmlns="http://www.w3.org/2000/svg" fill="none" viewBox="0 0 4000 4000"><path fill="#000" d="M395 1212h55v5l25 2v6h13v7h12v5h8v5l12 2v6c1.195-.1 1.195-.1 2.414-.21 8.375-.43 8.375-.43 11.719 1.33 1.734 1.61 2.859 2.73 3.867 4.88v6h12v8h5v5h8v5c.699.06 1.397.12 2.117.18.91.09 1.82.17 2.758.26 1.357.12 1.357.12 2.742.24C573 1281 573 1281 575 1282v5h5v8h8v5c.866-.12 1.733-.25 2.625-.38 4.134.46 5.513 1.65 8.25 4.65 1.685 2.59 1.553 4.74 1.125 7.73 1.268-.22 1.268-.22 2.562-.44 4.457.57 6.103 2.26 9.09 5.48 1.871 2.72 1.895 4.76 1.348 7.96.866-.12 1.733-.25 2.625-.38 4.134.46 5.513 1.65 8.25 4.65 1.685 2.59 1.553 4.74 1.125 7.73h5v8h8v10h5v7h7v8h6l2 10h5v7h5c2.286 8.43 2.286 8.43 2 13h5v7h6l.516 2.12.734 2.76c.232.9.464 1.8.703 2.74.959 2.87.959 2.87 5.047 4.38v11h5c1.292 4.12 2.263 7.67 2 12h5v8h5v12h8v13h5v12h7v13h5v12h8v13h5c1.298 5.76 2.257 11.09 2 17h5v20h6c1.036 5.05 1.103 9.87 1 15h2v5h5c.214 59.55.214 59.55-1 81h-5l-2 25h-6v20h-5l.032 1.68c.32 19.5.32 19.5-2.032 28.32l-5 1v36h-5l.035 1.79c.114 11.33-.519 22.64-1.035 33.96l-.289 6.48c-.234 5.26-.471 10.51-.711 15.77h-6v104h5v13h8v7h5v5h7v8h5v5h8v7h5v5h7v8h8v5h5v5c.699.06 1.397.12 2.117.18.91.09 1.82.17 2.758.26.905.08 1.81.16 2.742.24C798 2006 798 2006 800 2007v5c.846-.14 1.691-.29 2.562-.44 4.457.57 6.103 2.26 9.09 5.48 1.871 2.72 1.895 4.76 1.348 7.96h7v5h5v7h13v8h5v5h7v7h8v5h10v8h7v5h8v5h5v7h12v8h5v5h8v5c.699.06 1.397.12 2.117.18.91.09 1.82.17 2.758.26.905.08 1.81.16 2.742.24C923 2106 923 2106 925 2107v5c.846-.14 1.691-.29 2.562-.44 4.434.57 6.001 2.29 9.118 5.32C938 2119 938 2119 938 2125h12v7h5v5h8v8h5v5h7v7h5v5h8v8h5v5h7v7h5v5h8v8h7v5h10v7h8v5c1.05.06 2.1.12 3.19.19 4.54.97 6.08 2.09 8.81 5.81.31 3.31.31 3.31 0 6l3.12.12c4.73 1.07 7.26 2.8 9.88 6.88.38 3.38.38 3.38 0 6 1.05.06 2.1.12 3.19.19 4.56.97 6.1 2.04 8.81 5.81.31 3.81.31 3.81 0 7 1.03-.14 2.06-.29 3.12-.44 4.79.54 5.85 1.87 8.81 5.42 1.07 2.02 1.07 2.02 1.07 7.02h12v8h5v5h13l2 5c1.28.14 2.56.29 3.88.44 2.38.27 3.96.48 6.12 1.56v5h8v5l12 2v6h13v7h12v5h8v5l12 2v6h13v5c1.46.09 1.46.09 2.96.18 1.27.09 2.54.17 3.85.26 1.27.08 2.53.16 3.83.24 3.36.32 3.36.32 6.36 1.32v5h13v5l20 2v6h17v7h18v5h20v8h25v5h12v5c1.66.09 1.66.09 3.36.18 1.46.09 2.93.17 4.39.26l2.21.12c3.47.2 6.69.53 10.04 1.44v5h18v8h17v5h13v5l2.12.18c.91.09 1.82.17 2.76.26.9.08 1.8.16 2.74.24 2.38.32 2.38.32 4.38 1.32v5h15v5l13 2v6c.74-.06 1.47-.12 2.23-.18 8.07-.37 8.07-.37 11.89 2.62.62.84 1.24 1.69 1.88 2.56l1 1v6h13v8h7v5h5v5l2.08.18c.9.09 1.8.17 2.73.26.9.08 1.79.16 2.71.24 2.48.32 2.48.32 5.48 1.32v5h7v5l10 2v6h8v7h12v5h5v5c.76.14 1.53.29 2.31.44 2.69.56 2.69.56 5.69 1.56v6c.85-.11 1.7-.22 2.57-.34 4.73.47 6.83 2.64 10.24 5.78.59.51 1.17 1.03 1.77 1.56 3.68 3.26 3.68 3.26 5.42 5 .04 1.67.04 3.33 0 5h5v5h5c.25 1 .51 2 .77 3.03.35 1.3.69 2.6 1.04 3.91.17.66.33 1.32.5 2 .56 2.13.56 2.13 1.69 5.06l3 1c.06.7.12 1.4.18 2.12.09.91.17 1.82.26 2.76.08.9.16 1.8.24 2.74.19 2.39.19 2.39 1.32 4.38.91.25 1.81.5 2.75.75 4.37 1.68 5.66 3.36 8.25 7.25.31 2.88.31 2.88 0 5h5v8h7v10h5v7h8v13h5v7h7v13h6c.13 1.05.13 1.05.26 2.12.14.91.28 1.82.43 2.76.13.9.25 1.8.38 2.74.31.78.62 1.57.93 2.38l5 2v13h5c1.3 5.76 2.26 11.09 2 17h5v13h6l2 17h5v15h5v18h7v25h6c.34 2.67.67 5.33 1 8 .1.74.19 1.49.29 2.25.6 4.96.8 9.76.71 14.75h5v25h5c1.27 12.37 2.35 24.56 2 37h5v45h6c.29 6.31.58 12.62.85 18.93l.3 6.41c.65 14.23.98 28.41.85 42.66h5v167h5c1.25 19.35 2.36 38.6 2 58h5v36l6 1 2 18h5v12h5v8h7v12h6c2.93 1.83 5.05 4.16 7 7 .44 3.44.44 3.44 0 6h7v5c1.28.14 2.56.29 3.88.44 2.38.27 3.96.48 6.12 1.56v5h8v8h5v5h7v7h5v5h8v13h5c1.3 5.76 2.26 11.09 2 17h5v33h6c.02.61.05 1.23.07 1.86.24 6.44.48 12.88.73 19.33l.27 7.19.39 10.39.12 3.21.12 3.09c.04.88.07 1.76.1 2.67.17 2.78.43 5.53.72 8.3.59 6.43.59 12.82.53 19.27 0 1.29-.01 2.58-.02 3.9-.01 3.51-.04 7.01-.06 10.52-.03 2.96-.04 5.92-.06 8.89l-.15 21.08c-.05 6.36-.09 12.72-.13 19.08-.37 68.3-.37 68.3-2.63 99.22h-6v30l-5 1c-.06 1.04-.12 2.07-.18 3.14-.09 1.37-.17 2.74-.26 4.11-.04.68-.08 1.36-.12 2.07-.21 3.32-.46 6.48-1.44 9.68h-5v18l-4 2c-1.13 2.39-1.13 2.39-1.75 5.12-.24.92-.48 1.83-.73 2.76-.26 1.05-.26 1.05-.52 2.12h-6v7h-5c-.14.95-.29 1.9-.44 2.88-.56 3.12-.56 3.12-1.56 5.12h-5v5h-5v5h-8v7h-17v6l-20 2v5h-50v5c-73.53.81-147.06 1.2-220.6 1.54-1.19 0-2.39.01-3.62.01-29.73.14-59.46.27-89.19.4-19.16.08-38.32.16-57.49.25l-3.85.02-3.84.02-7.67.03c-1.26.01-2.52.01-3.82.02-19.78.09-39.56.17-59.34.26l-21.22.09-33.5.15c-5.08.02-10.15.05-15.23.07-19.87.09-39.75.16-59.62.16h-2.5c-15.34.01-30.67-.11-46-.3l-5.04-.06-2.56-.03c-3.57-.04-7.15-.09-10.72-.13l-25.31-.3-25.85-.3-22.511-.27-13.307-.15c-18.754-.22-37.477-.53-56.212-1.48v-5h-62v-5c-.722-.06-1.444-.11-2.187-.17-3.251-.25-6.501-.51-9.751-.77-1.136-.08-2.272-.17-3.443-.26-1.619-.13-1.619-.13-3.271-.26-1.001-.08-2.001-.16-3.031-.24C838 3731 838 3731 837 3730a99.222 99.222 0 0 1 0-5h-5v-7h-7v-5h-5v-5l-8-2v-11h-5v-6c-3.465-.5-3.465-.5-7-1v-13h-5c-2.215-2.22-1.688-7.95-1.898-11.1-.192-2.43-.192-2.43-1.102-5.9-.833-.35-1.667-.71-2.525-1.07-2.475-1.93-2.475-1.93-2.918-4.01-.138-2.84-.118-5.65-.045-8.49l.021-3.15c.028-3.33.091-6.65.155-9.97.025-2.25.047-4.5.068-6.75.055-5.52.139-11.04.244-16.56h-5v-189h5v-50h5l2-20h5v-20h6l-.125-3.19c.116-3.55.597-5.66 2.125-8.81h5l-.246-2.16c-.501-7.6-.501-7.6 1.629-11.13 2.747-2.89 4.554-4.55 8.555-5.15.68.15 1.361.29 2.062.44v-7h6l.438-3.88c.268-2.38.484-3.96 1.562-6.12h5v-8h7v-5h5v-7h8v-5h5v-8h6l.438-2.94C869 3243 869 3243 870 3242c1.666-.04 3.334-.04 5 0l-.176-2.23c-.373-8.06-.373-8.06 2.551-11.83L880 3226l2-2c2.625-.12 2.625-.12 5 0v-7h5l2-10h6v-8h5l2-12h5v-24h-5v-8h-7v-12h-5c-1.316-3.62-2-6.1-2-10h-6v-8c-.866.12-1.733.25-2.625.38-4.134-.46-5.513-1.65-8.25-4.65-1.685-2.59-1.553-4.74-1.125-7.73-.846.14-1.691.29-2.562.44-4.457-.57-6.103-2.26-9.09-5.48-1.871-2.72-1.895-4.76-1.348-7.96-.866.12-1.733.25-2.625.38-4.134-.46-5.513-1.65-8.25-4.65-1.685-2.59-1.553-4.74-1.125-7.73-.846.14-1.691.29-2.562.44-4.457-.57-6.103-2.26-9.09-5.48-1.871-2.72-1.895-4.76-1.348-7.96h-7v-5h-5v-7h-8l-1-5-9-3v-5h-7v-7h-5v-5h-8v-8h-5v-5h-7v-5c-.949-.14-1.897-.29-2.875-.44C769 3019 769 3019 767 3018v-5h-5v-5l-12-2v-6h-5v-7h-8v-5c-.681.14-1.361.29-2.062.44-4.062-.61-5.796-2.55-8.555-5.48-1.916-2.71-1.933-4.74-1.383-7.96h-8v-5h-5v-7h-7v-5h-5v-8h-13v-7h-5v-5h-7v-8h-5v-5h-8v-7h-7v-5h-5l-.062-2.31c-.735-3.1-.735-3.1-4.5-4.5-1.135-.39-2.269-.79-3.438-1.19v-5h-10v-7h-7v-5c-.846.14-1.691.29-2.562.44-4.457-.57-6.103-2.26-9.09-5.48-1.871-2.72-1.895-4.76-1.348-7.96-1.299.19-1.299.19-2.625.38-4.134-.46-5.513-1.65-8.25-4.65-1.685-2.59-1.553-4.74-1.125-7.73h-8v-5h-5v-8h-7v-5c-1.258-.1-2.516-.21-3.812-.31-2.401-.32-3.992-.58-6.126-1.75-1.735-3.17-1.769-6.36-2.062-9.94h-6v-8h-7v-5c-1.258-.1-2.516-.21-3.812-.31-2.401-.32-3.992-.58-6.126-1.75-1.735-3.17-1.769-6.36-2.062-9.94-.71-.13-1.421-.27-2.152-.4-.919-.18-1.839-.36-2.786-.54-.916-.17-1.833-.35-2.777-.52C533 2806 533 2806 532 2805a99.222 99.222 0 0 1 0-5h-7v-7h-5v-5h-8v-8h-5v-5h-7v-7h-5l-3-9-5-1v-8h-8v-5h-5v-7h-7v-5h-5v-8c-.846.14-1.691.29-2.562.44-4.474-.57-6.098-2.31-9.09-5.55-1.348-1.89-1.348-1.89-1.786-4.83L449 2713c-.681.14-1.361.29-2.062.44-4.062-.61-5.796-2.55-8.555-5.48-1.916-2.71-1.933-4.74-1.383-7.96-.846.14-1.691.29-2.562.44-4.474-.57-6.098-2.31-9.09-5.55-1.348-1.89-1.348-1.89-1.786-4.83L424 2688h-5l-2-13h-5v-7h-5v-5h-8v-13l-3.188-.12c-3.833-.88-5.578-1.75-7.945-4.92-1.687-3.82-1.23-7.88-.867-11.96h-5v-8h-8v-12h-5c-3.194-1.7-5.211-3.87-7-7-.583-4.4-.418-8.59 0-13h-5c-1.316-3.62-2-6.1-2-10h-6v-13h-5l-2-12h-5v-8h-5v-12h-8v-18h-5c-.086-.92-.173-1.83-.262-2.77l-.426-3.61-.386-3.58c-.458-1.51-.458-1.51-.926-3.04l-5-2v-12h-5v-18h-8v-25h-5l-2-25h-5l-1-27-4-2c-.729-1.96-.729-1.96-1.047-4.37l-.372-2.67-.331-2.84-.372-2.86c-.833-6.79-1.26-13.42-.878-20.26h-5v-38h-5c-1.323-15.03-2.327-29.91-2-45h-5v-104h-5v-322h5l-.038-2.22c-.571-33.57-1.064-67.14-1.087-100.72l-.008-3.9c-.005-3.62-.004-7.25 0-10.87l-.006-3.22c.031-9.85.031-9.85 1.139-14.07.99-.43.99-.43 2-.88l2-1.12c1.254-6.89 1.288-13.9 1.5-20.89l.25-7.52.375-11.8c.121-3.81.248-7.62.375-11.43l.107-3.57.112-3.32.092-2.92A30.71 30.71 0 0 1 270 1649h5v-57h5l-.032-1.68c-.26-16.2.63-32.18 2.032-48.32h5v-48h5l.168-3.18c.206-3.89.418-7.78.632-11.66.091-1.69.181-3.37.27-5.06.128-2.41.261-4.83.395-7.25l.117-2.29c.304-5.33.304-5.33 1.418-7.56h5v-38h5l-.07-1.67c-.221-10.16 1.013-20.24 2.07-30.33h5v-30h5l.168-2.19c.252-3.25.51-6.5.77-9.75l.263-3.44.264-3.27.238-3.03C319 1333 319 1333 320 1332h5v-26l4-2c1.138-2.86 1.138-2.86 1.75-6.12l.734-3.33c.171-.84.341-1.68.516-2.55h5v-18h8v-12h5v-13h7v-5h5v-7l2.312-.06c3.102-.74 3.102-.74 4.5-4.5L370 1229h5v-5h7v-5c1.415-.34 2.832-.67 4.25-1 .789-.19 1.578-.37 2.391-.56C391 1217 391 1217 395 1217v-5Zm68 158v5h-12v5h-8v8h-5v12h-5c-1.258 6.74-2.264 13.13-2 20h-5v30h-6c-.288 4.96-.573 9.92-.854 14.89l-.292 5.05c-.141 2.44-.279 4.87-.416 7.31l-.133 2.24c-.288 5.18-.341 10.33-.305 15.51h-5v60h-5c-1.258 15.02-2.355 29.92-2 45h-5v50h-6c-.289 6.88-.573 13.77-.854 20.65l-.292 7.01c-.781 17.66-.781 17.66-.854 35.34h-5v95h-5c-.266 14.48-.527 28.96-.782 43.43-.119 6.73-.24 13.46-.364 20.19-.602 32.8-1.019 65.58-.854 98.38h-5v87h5v13h-5v4h5l-.016 3.89c-.148 40.07-.245 80.15 3.016 120.11l4 1v68h5l.076 2.76c.503 18.08 1.059 36.16 1.924 54.24h6v38h5l-.07 1.7c-.211 9.83.992 19.54 2.07 29.3l5 1v30h5l2 25h6v13h5l.184 2.96.254 3.85.246 3.83c.188 3.35.188 3.35 1.316 6.36h5v15h5l2 18h6v12h5l.184 2.08.254 2.73.246 2.71c.251 2.61.251 2.61 1.316 5.48h5v7h5l.262 2.08c.425 2.73.886 5.29 1.738 7.92.846.5 1.691.99 2.562 1.5.805.5 1.609.99 2.438 1.5.761 3.32.93 6.6 1 10h5v7h7v13h5v7h8v11l6 2 1 5h5v7h5v5h8v8h5v5h7v7h5v5h8v8h5l1 5h6v7h5v5h8v8h5v5h7v7h5v5h8v8h5v5h7v7h5v5h8v8h5v5h7v7h5v5h8v8h5v5h7v7h8v5h5v8h5v5h7v5c2.906 1.26 4.796 2 8 2v5h5v6l12 2v5c1.052.23 2.104.45 3.188.69 4.007 1.15 6.201 3.01 8.812 6.31.812 2.81.812 2.81 1 5 .887.23 1.774.45 2.688.69 3.865 1.53 5.73 3.06 8.312 6.31.812 3.31.812 3.31 1 6h8v5c3.62 1.32 6.096 2 10 2v5h7v8h5v5h8v7h5v5h7v8h5v5h8v7h5v5h7v8h8v5h5v5l3.75 1c.696.19 1.392.37 2.109.56 2.43.57 2.43.57 6.141.44v5c.887.23 1.774.45 2.688.69 3.862 1.53 5.69 3.11 8.312 6.31.309 1.05.619 2.1.938 3.19.35.93.701 1.85 1.062 2.81 2.85 1.12 2.85 1.12 6 2 3.023 2.49 4.719 4.03 5.812 7.81L863 2949c.887.23 1.774.45 2.688.69 3.862 1.53 5.69 3.11 8.312 6.31.309 1.05.619 2.1.938 3.19.35.93.701 1.85 1.062 2.81 2.85 1.12 2.85 1.12 6 2 3.023 2.49 4.719 4.03 5.812 7.81L888 2974c.887.23 1.774.45 2.688.69 3.862 1.53 5.69 3.11 8.312 6.31.309 1.05.619 2.1.938 3.19.35.93.701 1.85 1.062 2.81 2.892 1.41 2.892 1.41 6 2l3 1c.738 2 .738 2 1.312 4.44.678 2.45.678 2.45 1.688 4.56 2.858 1.34 2.858 1.34 6 2 3.194 2.61 4.766 4.2 5.938 8.19.35.93.701 1.85 1.062 2.81 2.892 1.41 2.892 1.41 6 2l3 1c.738 2 .738 2 1.312 4.44.678 2.45.678 2.45 1.688 4.56 2.858 1.34 2.858 1.34 6 2 2.812 2.56 2.812 2.56 5 5l1 1c.233 1.68.413 3.37.562 5.06l.254 2.79.184 2.15h5v7h7v8h5l2 10h6v7c.887.23 1.774.45 2.688.69 4.021 1.59 5.695 2.84 8.312 6.31 1.272 3.61 2.194 7.26 3 11h3v7h8v13h5c.06.7.12 1.4.18 2.12.09.91.17 1.82.26 2.76.08.9.16 1.8.24 2.74.19 2.39.19 2.39 1.32 4.38h5v13h5c.09.69.17 1.37.26 2.08.14.9.28 1.8.43 2.73.13.9.25 1.79.38 2.71.72 2.72.72 2.72 3.46 3.92 2.47 1.56 2.47 1.56 3.18 4.48l.1 3.27c.05 1.08.1 2.17.15 3.29.01.83.03 1.66.04 2.52h5l2 30h5v7l12 1 1 7h25v5h32v5c10.75.27 21.5.53 32.25.78 4.99.12 9.99.24 14.98.37 27.6.68 55.17.99 82.77.85v5h208v5h83v-5h58v-5l2.92-.18c1.9-.13 1.9-.13 3.83-.26 1.25-.08 2.51-.16 3.8-.24 3.8-.33 3.8-.33 7.45-1.32.46-.99.46-.99.94-2l1.06-2c2.62-.75 2.62-.75 5-1v-5h5c1.65-6.53 2.33-12.56 2.41-19.29l.06-2.85c.06-2.97.11-5.95.15-8.92l.12-6.09c.1-4.95.18-9.9.26-14.85l4-1v-53l-4-1c-.02-1.15-.05-2.3-.07-3.49l-.66-33.08c-.11-5.67-.23-11.33-.34-16.99-.52-26.15-1.08-52.3-1.93-78.44h-5v-92h-5l-.08-2.12c-.49-13.64-1.03-27.26-1.92-40.88h-6v-32h-4c-.05-.87-.1-1.74-.15-2.64-.49-7.9-1.38-15.58-2.85-23.36h-5v-20h-5v-17h-7v-18h-6c-.06-.7-.12-1.4-.18-2.12-.09-.91-.17-1.82-.26-2.76-.08-.9-.16-1.8-.24-2.74-.19-2.39-.19-2.39-1.32-4.38h-5v-13h-5l-2-12h-5v-8h-5v-12h-8v-8h-5l-2-10h-5v-7l-5-1-3-12h-5v-7h-5v-5h-7v-8h-6c-.23-2.02-.46-4.04-.68-6.05-.23-2.02-.23-2.02-1.32-3.95h-5v-7h-7v-5h-5v-8c-1.24-.23-2.48-.45-3.75-.69-3.18-.8-4.22-1.28-6.69-3.62-1.54-2.66-2.21-4.66-2.56-7.69h-7v-5c-3.62-1.32-6.1-2-10-2v-6h-8v-7h-12v-5h-8v-5c-3.62-1.32-6.1-2-10-2v-6h-7v-5l-13-2v-5h-12v-8h-13v-5h-20v-5c-3.69-.34-7.37-.67-11.06-1-1.04-.1-2.08-.19-3.15-.29-5.29-.47-10.48-.83-15.79-.71v-5h-25v-5c-10.03-1.25-19.87-2.36-30-2v-6h-20v-5l-25-2v-5h-17v-5c-6.74-1.26-13.13-2.26-20-2v-6l-18-1-2-4c-3.1-.92-3.1-.92-6.62-1.25-1.19-.15-2.38-.3-3.61-.45-.91-.1-1.83-.2-2.77-.3v-5h-12v-5c-6.4-1.75-6.4-1.75-13-2v-6h-12v-5l-13-2v-5l-1.98-.04c-8.04-.44-8.04-.44-11.58-3.08-2.87-3.38-3.27-5.51-3.44-9.88h-13v-7h-7v-5l-2.27-.15c-.98-.07-1.97-.15-2.98-.23-1.46-.1-1.46-.1-2.95-.21-2.72-.4-4.48-.96-6.8-2.41-2.1-3.1-2.5-6.33-3-10h-7v-5l-10-2v-5h-8v-8h-5v-5h-7v-7h-5v-5h-8v-8h-5v-5h-7v-7h-5v-5h-8v-8h-5v-5h-7v-7h-5v-5h-8v-13h-7v-5h-5v-7h-8v-5h-5v-8c-1.072-.25-2.145-.5-3.25-.75-3.834-1.28-5.414-2.02-7.75-5.25-.75-3.25-.75-3.25-1-6h-6l-.938-2.88c-.936-2.98-.936-2.98-2.062-5.12h-4v-5l-5-1-2-6h-5v-5h-6l-.438-2.88c-.391-3.01-.391-3.01-1.562-5.12h-5v-5l-5-1-2-6h-5v-5h-6l-.438-2.88c-.391-3.01-.391-3.01-1.562-5.12h-5v-5l-5-1-2-6h-5v-5h-6l-.438-2.88c-.391-3.01-.391-3.01-1.562-5.12h-5v-5h-12v-7h-5v-5h-8v-8h-7v-5h-5l.25-2.19c-.329-3.7-1.727-5.14-4.25-7.81-3.421-2.28-4.682-2.22-8.688-2.12-1.49.02-1.49.02-3.011.05-.759.02-1.519.05-2.301.07v-8h-7v-5h-5v-7h-8l.141-2.23c.31-6.2.31-6.2-1.953-11.83-3.353-2.97-4.585-3.94-9.188-3.94v5l-2.438-.06c-2.496-.24-2.496-.24-3.562 1.06-.232 2.57-.404 5.12-.535 7.69l-.13 2.36c-.091 1.66-.179 3.31-.265 4.97-.131 2.51-.269 5.02-.408 7.53l-.26 4.83-.123 2.25c-.246 4.8-.314 9.57-.279 14.37h-5v20h-5c-3.888 11.92-4.37 25.74-2 38h-5v41h5l-.07 1.91c-.159 7.86.805 15.35 2.07 23.09h5v18h5l2 12h6v13h5v7h7v13l5 1 2 6h6v5h5l.184 2.08.254 2.73.246 2.71c.251 2.61.251 2.61 1.316 5.48h5v7h5v5h8v13h5l.438 2.94c.238 2.92.238 2.92 1.562 4.06 1.666.04 3.334.04 5 0v5h5v8h8v5h5v7h7v5h5l2 13h11v7h7v5h5l2 13h6l-.375 2.62c.459 4.14 1.647 5.52 4.641 8.26 2.597 1.68 4.741 1.55 7.734 1.12v5h5v8h8v7h5v5h7v8h5v5h8v7h5v5h7v8h5v5h8v7h5v5h7v8h5v5h8v7h5v5h7v8h5v5h8v12h5l.188 2.88.812 3.12c1.652.7 3.319 1.37 5 2 .812 2.62.812 2.62 1 5 1.052.23 2.104.45 3.188.69 4.087 1.22 6.294 2.75 8.812 6.31.69 3.33.93 6.6 1 10h5v8h7v7h5c.13 1.22.27 2.43.4 3.68l.54 4.76c.13 1.2.13 1.2.26 2.43.11 3.89.11 3.89 1.8 7.13h5v25h5v26h-5v17h-5c-1.57 5.03-2.45 9.76-3 15h-5l-.04 2.23c-.39 7.98-.39 7.98-3.15 11.83-2.9 2-5.41 3.07-8.81 3.94v8h-5v5l-8-1-1-4c-5.318-1.24-10.582-2.31-16-3l-1-5h-13l-2-8h-5v-5h-13v-7h-5v-5h-7v-8h-8v-5h-5v-5l-6-2-1-5h-5v-8l-6 1v-5h-7v-8h-5v-5h-8v-7h-5v-5h-7v-8h-5v-5h-8v-12h-7v-5h-5v-8h-8v-5h-5v-7c-.887-.23-1.774-.45-2.688-.69-3.865-1.53-5.73-3.06-8.312-6.31-.812-3.31-.812-3.31-1-6h-5v-7h-8v-11l-6-2-1-5h-5v-5h-5v-7h-8v-8h-5v-5h-7v-7h-5l-2-10h-6v-8c-.887-.23-1.774-.45-2.688-.69-3.839-1.52-5.715-3.12-8.312-6.31-.812-2.81-.812-2.81-1-5-.887-.23-1.774-.45-2.688-.69-3.862-1.53-5.69-3.11-8.312-6.31-1.312-3.31-1.312-3.31-2-6h-5l-.184-2.12-.254-2.76-.246-2.74c-.186-2.39-.186-2.39-1.316-4.38h-5v-8h-5v-5h-8v-7h-5l-.684-6.05c-.229-2.02-.229-2.02-1.316-3.95h-5v-8c-1.052-.23-2.104-.45-3.188-.69-4.007-1.15-6.201-3.01-8.812-6.31-.812-2.81-.812-2.81-1-5h-5l-1-8h-6v-10h-5v-7h-8v-8h-5l-.25-3.75c-.385-3.15-.673-4.15-2.688-6.75-1.907-1.7-1.907-1.7-4.062-1.5v-5h-5l-2-13h-6v-7h-5l-.684-6.05c-.229-2.02-.229-2.02-1.316-3.95h-5v-8h-5l-2-12h-6v-13h-5v-12h-7v-20h-5l-.184-3.52c-.471-8.84-1.003-17.66-1.816-26.48h-6l1-76 5-1c.288-3.98.573-7.97.854-11.95.143-2.01.289-4.03.435-6.04.447-6.35.841-12.64.711-19.01h5v-20l5-2c1.952-1.95 1.71-5.45 2.062-8.06l.536-3.91.402-3.03 5-1v-20h5l2-10h5v-7h13v-5h8v5h4v-5h18l2-8h4l1-6h-5v-5h-20v-5c-4.308-1.35-7.42-2-12-2v-13h-5l.016-3.33c.018-4.15.03-8.3.039-12.45.005-1.79.012-3.57.02-5.35.055-11.34-.194-22.56-1.075-33.87h-2v-7l-4-1-1-161h5l.06-3.1c.439-22.02 1.215-43.94 2.94-65.9l5-1 1-17 4-2c.731-1.91.731-1.91.828-4.13l.234-2.44.188-2.55.234-2.58c.189-2.1.355-4.2.516-6.3h5v-62h-5l-2-25h-5v-25h-6l-.184-2.96-.254-3.85c-.121-1.9-.121-1.9-.246-3.83-.188-3.35-.188-3.35-1.316-6.36h-5v-20h-5l-.184-2.41c-.252-3.2-.531-6.4-.816-9.59l-.312-3.62c-.227-.79-.454-1.57-.688-2.38l-4-2-1-18h-5v-12h-8v-13h-5l-2-12h-5v-13l-3.188-.12c-3.845-.89-5.516-1.75-7.878-4.92-1.793-3.77-1.844-7.84-1.934-11.96h-5v-8h-7v-7h-5v-5h-8v-8h-5v-5h-7v-7h-5v-5h-8v-8h-12v-5h-13v-5h-24Zm546 1963v5h-41v5l-18 2v5h-12c-.309 1.09-.619 2.19-.938 3.31-1.894 6.58-1.894 6.58-3.75 7.81-2.746 1.04-5.409 1.48-8.312 1.88v12h-7v13h-5v20h-5c-.817 5.19-1.266 10.31-1.535 15.56l-.13 2.39c-.136 2.5-.267 4.99-.397 7.49l-.276 5.1c-.224 4.16-.444 8.31-.662 12.46h-4v161h5l.617 2.39c1.164 2.87 1.164 2.87 4.203 3.75 1.091.22 2.181.45 3.305.67 1.096.24 2.191.47 3.32.71.843.16 1.686.32 2.555.48l1 4h467v5h249v-5h45v-5c1.09-.06 2.17-.12 3.29-.18 1.44-.09 2.89-.17 4.33-.26l2.17-.12c4.13-.24 8.13-.67 12.21-1.44v-5l8-1v-4l12-2v-5h6l2-18h5v-20h5v-66h-5v-50h-5c-.06-1.05-.12-2.1-.18-3.18-.44-7.3-.91-14.56-1.82-21.82h-5c-.03-1.1-.05-2.19-.08-3.32-.05-1.46-.11-2.91-.17-4.37-.01-.72-.03-1.44-.04-2.18-.24-5.1-1.37-7.16-4.71-11.13-.61-3.11-.61-3.11-.75-6.31-.06-1.07-.11-2.14-.17-3.24-.03-.81-.05-1.62-.08-2.45h-7v-12h-5l-2-13h-6v-5c-5.76-1.3-11.09-2.26-17-2v-5l-32-1-1-5c-62.02-.59-124.04-1.12-186.06-1.56-.77-.01-1.54-.01-2.33-.02-63.87-.45-127.74-.54-191.61-.42v-5h-195v-3c-7.33-.29-14.66-.57-21.98-.85l-7.47-.3c-3.6-.14-7.19-.27-10.78-.41-1.1-.05-2.2-.09-3.33-.14-7.15-.27-14.28-.35-21.44-.3ZM3532 1212h61l2 5c3.09 1.04 3.09 1.04 6.62 1.31 1.19.14 2.38.28 3.61.43 1.37.13 1.37.13 2.77.26v6c.74-.06 1.47-.12 2.23-.18 8.07-.37 8.07-.37 11.89 2.62.62.84 1.24 1.69 1.88 2.56l1 1c.04 2 .04 4 0 6h6l2 13h5v7h5c.17.7.34 1.4.52 2.12.24.91.48 1.82.73 2.76l.7 2.74c.96 2.87.96 2.87 5.05 4.38v18h6l2 25h5v25h5c1.25 10.03 2.36 19.87 2 30h5v33h6c.29 4.14.57 8.29.85 12.43l.3 4.22c.14 2.04.27 4.07.41 6.1.09 1.22.17 2.44.26 3.7.18 3.52.21 7.02.18 10.55h5c.03.75.05 1.5.08 2.28.11 3.42.23 6.85.36 10.28l.12 3.58c.2 5.7.56 11.23 1.44 16.86.06 1.81.09 3.63.06 5.44l-.02 2.62c-.02.64-.03 1.28-.04 1.94h3c1.26 15.02 2.35 29.92 2 45h5v62h6l.78 22.69c.12 3.52.24 7.03.37 10.54.14 4.06.28 8.12.41 12.18.05 1.24.09 2.47.14 3.74.28 8.62.35 17.23.3 25.85h5v95h5c2.02 32.62 2.18 65.33 2 98l5 2v306h-5c.01 1.05.01 2.1.02 3.19.15 33.94-.02 67.92-2.02 101.81h-5v62h-5l-.08 2.19c-.49 14.28-1.04 28.55-1.92 42.81h-6v50h-5c.02.55.05 1.1.07 1.66.18 7.93-.9 15.52-2.07 23.34h-3c.02.61.05 1.21.07 1.84.14 6.31-.61 12.02-2.07 18.16h-5l-.18 2.75c-.47 6.77-1.01 13.51-1.82 20.25h-6v20l-4 2c-.79 2.62-1.33 4.95-1.75 7.62-.19 1.06-.19 1.06-.38 2.15-.3 1.74-.59 3.48-.87 5.23h-5c.03.88.07 1.76.11 2.67.02 1.16.05 2.32.08 3.52.03 1.15.07 2.29.1 3.48-.32 3.66-1.08 5.43-3.29 8.33-3 2-3 2-9 2v13h-8v12h-5c.14.85.29 1.69.44 2.56-.57 4.46-2.34 6.02-5.42 9.12-2.02 1.32-2.02 1.32-7.02 1.32v12h-8v8h-5c.1 1.09.1 1.09.21 2.2.43 7.63.43 7.63-1.33 10.87-2.71 2.92-4.23 3.86-8.26 4.31-.86-.13-1.73-.25-2.62-.38v8h-6c-.14 1.28-.29 2.56-.44 3.88-.27 2.38-.48 3.96-1.56 6.12h-5v7h-7v5h-5v8h-6l-.18 2.12c-.09.91-.17 1.82-.26 2.76-.08.9-.16 1.8-.24 2.74-.32 2.38-.32 2.38-1.32 4.38h-5v5h-7v8h-5c-.04 1.05-.08 2.1-.12 3.19-.88 3.81-.88 3.81-3.57 6.75-3.55 2.21-5.22 2.55-9.31 2.06.1.89.21 1.77.31 2.69-.41 4.35-2.06 5.52-5.31 8.31l-2 2h-4l.06 3.75c.01 2.91-.13 5.46-1.06 8.25h-8v5h-5v8h-7v5h-5v7h-8v5h-5v8h-7v5h-5v7h-8v5h-5v8h-7v5h-5v7h-8v5h-5v8h-7v5h-5v7h-8v5h-5v8h-7v5l-4 1-1 6h-8v5h-5v8h-7v5h-5v7h-8v5h-5v8h-7v5l-10 2v5h-8c.14.85.29 1.69.44 2.56-.57 4.48-2.31 6.1-5.55 9.09-1.89 1.35-1.89 1.35-4.83 1.79-.68-.15-1.36-.29-2.06-.44.14.68.29 1.36.44 2.06-.61 4.06-2.55 5.8-5.48 8.56-2.71 1.91-4.74 1.93-7.96 1.38.14.85.29 1.69.44 2.56-.57 4.48-2.31 6.1-5.55 9.09-1.89 1.35-1.89 1.35-4.83 1.79-.68-.15-1.36-.29-2.06-.44v5h-6l-2 7h-5v5h-7v8h-11c-.14.97-.29 1.94-.44 2.94-.56 3.06-.56 3.06-1.56 4.06-1.67.04-3.33.04-5 0v5h-5v5h-7v8h-8v5h-5v7h-7v5h-5v8h-8v5c-3.62 1.32-6.1 2-10 2v5h-7v8h-5v5h-8v7h-5v5h-7l-.12 3.12c-1.07 4.73-2.8 7.26-6.88 9.88-3.38.38-3.38.38-6 0v5h-7v7h-11c-.14.95-.29 1.9-.44 2.88-.56 3.12-.56 3.12-1.56 5.12h-5v5h-7v5h-5v7h-8v5h-5v8h-7v7h-5c.06.69.12 1.37.18 2.08.13 2.71.18 5.23-.18 7.92-1.63 1.06-3.3 2.05-5 3-1.36 3.25-2.21 6.57-3 10h-3c-.1.92-.2 1.83-.3 2.77-.15 1.19-.3 2.38-.45 3.61-.14 1.18-.28 2.36-.42 3.58-.28 1-.55 2.01-.83 3.04-1.97 1.09-1.97 1.09-4 2-1.13 2.39-1.13 2.39-1.75 5.12-.24.92-.48 1.83-.73 2.76-.26 1.05-.26 1.05-.52 2.12h-5c.05.83.09 1.66.14 2.52.04 1.09.07 2.17.11 3.29l.14 3.27c-.39 2.92-.39 2.92-2.36 4.51-1 .7-1 .7-2.03 1.41-.69 2.26-.69 2.26-.75 4.69-.08 1.42-.16 2.84-.25 4.31l12 2v6h18v7h12v5h13v8h5v5h7v5c.95.14 1.9.29 2.88.44 3.12.56 3.12.56 5.12 1.56v5h5v8h5v5h7v12h6c3.15 2.08 5.19 4.71 7 8 .55 3.43.44 6.57 0 10h5c.17.7.34 1.4.52 2.12.24.91.48 1.82.73 2.76l.7 2.74c.96 2.87.96 2.87 5.05 4.38v20h5c.43 3.96.86 7.93 1.28 11.9.22 2 .43 4 .65 6 .72 6.74 1.25 13.32 1.07 20.1h5v62h5v96h-5v1.9c.02 15.26.04 30.51.05 45.77.01 7.38.01 14.75.03 22.13.01 6.43.01 12.86.01 19.28.01 3.41.01 6.81.02 10.22v11.39c.01 1.13.01 2.27.01 3.44v5.84c-.12 2.03-.12 2.03-1.12 3.03-1.67.04-3.33.04-5 0 .02 1.1.05 2.19.07 3.32.22 15.62-.9 31.11-2.07 46.68h-5v20h-7l-1 5h-4v7h-8v5c-5.76 1.3-11.09 2.26-17 2l.06 2.44c-.06 2.56-.06 2.56-1.06 3.56-2.86.07-5.7.09-8.56.06-.81 0-1.62-.01-2.45-.01-1.99-.01-3.99-.03-5.99-.05v5c-4.21.34-8.42.67-12.62 1-1.19.1-2.38.19-3.61.29-1.73.13-1.73.13-3.5.27-1.05.09-2.11.17-3.2.26-3.03.18-6.03.21-9.07.18v5h-81l-2 5h-6v-5h-11v5h-719v-5h-58v-5l-2.96-.18c-7.04-.45-14.04-.96-21.04-1.82-.5-2.47-.5-2.47-1-5h-7v-5h-5v-8h-8v-5h-5v-7c-.68.14-1.36.29-2.06.44-4.06-.61-5.8-2.55-8.56-5.48-1.91-2.71-1.93-4.74-1.38-7.96h-5v-12l-3.44.06c-3.56-.06-3.56-.06-4.56-1.06-.07-2.86-.09-5.7-.06-8.56 0-.81.01-1.62.01-2.45.01-1.99.03-3.99.05-5.99h-5l-2-20h-5v-57h-5v-176h5v-38h5l2-17h5v-18h6l.18-2.52c.09-1.09.17-2.17.26-3.29.08-1.08.16-2.16.24-3.27.32-2.92.32-2.92 1.32-5.92h5v-12h5l2-10h5v-8h8v-7h5v-10h7v-8h5v-5h8v-7h5c-.14-.85-.29-1.69-.44-2.56.57-4.46 2.34-6.02 5.42-9.12 2.02-1.32 2.02-1.32 7.02-1.32v-12h6c.06-.69.12-1.37.18-2.08.09-.9.17-1.8.26-2.73.12-1.34.12-1.34.24-2.71.32-2.48.32-2.48 1.32-5.48h5v-20h5l2-25h5v-122l5-1c.02-1.32.05-2.64.07-3.99l.66-37.64c.12-6.44.23-12.89.34-19.34l.33-18.73.12-7.07c.29-16.76.8-33.49 1.48-50.23h5v-115h5l2-22 5-1c-.02-.85-.02-.85-.05-1.71-.06-2.56-.1-5.11-.14-7.67-.02-.88-.05-1.77-.07-2.69-.02-1.28-.02-1.28-.03-2.58-.03-1.18-.03-1.18-.05-2.38.11-.65.22-1.3.34-1.97 3-2 3-2 6-2 .06-.95.12-1.91.18-2.89.09-1.25.17-2.51.26-3.8.08-1.24.16-2.48.24-3.76.26-2.93.67-5.68 1.32-8.55h5v-17h7v-12l5-1-.18-3.61c-.04-1.57-.09-3.14-.13-4.7-.07-1.18-.07-1.18-.13-2.38-.05-2.21-.04-4.16.44-6.31 2.41-1.66 2.41-1.66 5-3 1.24-2.92 1.24-2.92 1.81-6.19.24-1.08.47-2.17.71-3.29.16-.83.32-1.66.48-2.52h5v-13l5-1c1.49-4.45 1.49-4.45 3-9h4c-.03-.65-.07-1.3-.11-1.98-.16-5.45-.08-9.35 3.11-14.02 2.52-2.61 3.58-2.98 7.25-3.19.91.06 1.81.13 2.75.19v-8c1.21-.31 1.21-.31 2.44-.62.84-.46 1.69-.91 2.56-1.38.83-2.97.83-2.97 1-6l1-2h6v-7h5c.14-.95.29-1.9.44-2.88.56-3.12.56-3.12 1.56-5.12h5v-10h8v-7h5c-.22-1.55-.22-1.55-.44-3.12.54-4.79 1.87-5.85 5.42-8.81 2.02-1.07 2.02-1.07 7.02-1.07v-12h8v-5h5v-8h7v-5h5v-7h8v-5h5v-8h7v-5h5v-7h8v-6l10-2v-5h7c-.1-1.05-.21-2.1-.31-3.19.31-3.81.31-3.81 2.75-6.69.84-.7 1.69-1.4 2.56-2.12l1-1c1.69-.07 3.38-.08 5.06-.06.92.01 1.84.02 2.79.02.71.02 1.42.03 2.15.04l2-4h7v-8h13v-6c2.44-2.81 2.44-2.81 5-5l1-1c1.85-.07 3.71-.08 5.56-.06 1.01.01 2.03.02 3.07.02.78.02 1.56.03 2.37.04v-5h8v-8h12v-5c8.43-2.29 8.43-2.29 13-2v-5h12v-6l13-2v-5h12v-5c6.07-1.23 11.8-2.28 18-2v-5h15v-5h17v-8h20v-5c6.07-1.23 11.8-2.28 18-2v-5h17v-6l20-2v-5h18v-5c5.07-1.26 9.73-2.27 15-2v-5h17v-6l13-2v-5h12v-5c8.43-2.29 8.43-2.29 13-2v-5h12v-6c2.09-3.17 3.83-4.88 7-7 3.14-.2 3.14-.2 6.69-.12 1.18.01 2.36.03 3.57.05 1.36.03 1.36.03 2.74.07v-5c.7-.17 1.4-.34 2.12-.52.91-.24 1.82-.48 2.76-.73l2.74-.7c2.87-.96 2.87-.96 4.38-5.05h11v-5h7v-8h8v-5c1.92-.31 1.92-.31 3.88-.62 2.2-.46 2.2-.46 4.12-1.38 1.61-2.99 1.61-2.99 2-6l7-1 .12-2.12c1.23-4.02 3.48-6.46 6.88-8.88 2.88-.38 2.88-.38 5 0v-5c8.43-2.29 8.43-2.29 13-2v-6h5v-5h7v-7h8v-5h5v-8h7v-5h5v-7h8v-5h5v-8h12v-7h5v-5h8c-.14-.85-.29-1.69-.44-2.56.57-4.48 2.31-6.1 5.55-9.09 1.89-1.35 1.89-1.35 4.83-1.79.68.15 1.36.29 2.06.44v-5h8v-7h10l2-8h5v-5h8v-5h5v-7h7v-5h5v-8h13v-7h5v-5h7c-.08-.74-.15-1.47-.23-2.23.3-3.56 1.4-4.61 3.92-7.08.68-.7 1.37-1.4 2.07-2.12 2.65-1.86 4.07-1.9 7.24-1.57v-5l12-2v-5l5-1v-4h8v-8h7v-5h5v-7h8v-5c3.62-1.32 6.1-2 10-2v-6h7c-.14-.68-.29-1.36-.44-2.06.61-4.06 2.55-5.8 5.48-8.56 2.71-1.91 4.74-1.93 7.96-1.38-.14-.85-.29-1.69-.44-2.56.56-4.38 1.98-6.13 5.15-9.09 4.18-2.47 8.61-1.88 13.29-1.35.14-.97.29-1.94.44-2.94.56-3.06.56-3.06 1.56-4.06 1.67-.04 3.33-.04 5 0v-5h5v-5h7v-8h8v-5h5v-7h7v-5h5v-8h6c.06-.7.12-1.4.18-2.12.13-1.36.13-1.36.26-2.76.08-.9.16-1.8.24-2.74.32-2.38.32-2.38 1.32-4.38h5v-13h7v-12h5v-25h5v-106l-5-1v-35h-5l-2-25h-5v-32h-5c-1.25-8.39-2.36-16.5-2-25h-6v-56h6c-.02-.55-.05-1.1-.07-1.66-.18-7.93.9-15.52 2.07-23.34h5v-33h5l2-19 5-1v-22h6c.09-1.66.09-1.66.18-3.36.09-1.46.17-2.93.26-4.39l.12-2.21c.2-3.47.53-6.69 1.44-10.04h5v-18l4-2c1.13-2.39 1.13-2.39 1.75-5.12.24-.92.48-1.83.73-2.76.17-.7.34-1.4.52-2.12h5v-15h6l.18-2.08c.13-1.35.13-1.35.26-2.73.08-.9.16-1.79.24-2.71.32-2.48.32-2.48 1.32-5.48h5v-12h5l2-12 6-2-1-11h6c.14-1.28.29-2.56.44-3.88.27-2.38.48-3.96 1.56-6.12h5l-.18-2.63c-.41-10.6-.41-10.6 2.24-14.12 3.42-2.62 5.68-3.08 9.94-3.25-.01-.85-.02-1.71-.04-2.59l-.02-3.35c-.01-1.1-.03-2.2-.04-3.34.1-2.72.1-2.72 1.1-3.72 2.33-.04 4.67-.04 7 0v-5h5v-7h5l2-12 5-1 .12-2.62c1.14-4.38 3.11-6.88 6.88-9.38 3.38-.38 3.38-.38 6 0-.14-.85-.29-1.69-.44-2.56.57-4.48 2.31-6.1 5.55-9.09 1.89-1.35 1.89-1.35 4.83-1.79 1.02.22 1.02.22 2.06.44l.12-2.62c1.14-4.38 3.11-6.88 6.88-9.38 3.38-.38 3.38-.38 6 0-.14-.85-.29-1.69-.44-2.56.57-4.48 2.31-6.1 5.55-9.09 1.89-1.35 1.89-1.35 4.83-1.79 1.02.22 1.02.22 2.06.44l.12-2.62c1.14-4.38 3.11-6.88 6.88-9.38 3.38-.38 3.38-.38 6 0v-5c4.12-1.29 7.67-2.26 12-2l-.06-2.44c.06-2.56.06-2.56 1.06-3.56 2.33-.04 4.67-.04 7 0v-5h5v-7h12v-5h8v-8c.77-.03 1.54-.05 2.34-.08 1-.05 2-.11 3.04-.17.99-.05 1.99-.09 3.02-.14 2.74-.32 2.74-.32 3.84-2.58.25-.67.5-1.34.76-2.03 3-2.07 5.41-2.2 9-2v-5h13v-5h7l-.06-3.44c.06-3.56.06-3.56 1.06-4.56 2.02-.07 4.04-.08 6.06-.06 1.11.01 2.21.02 3.35.02l2.59.04v-5c2.4-.34 4.79-.67 7.19-1 .67-.1 1.34-.19 2.04-.29 3.62-.49 7.12-.82 10.77-.71v-5Zm-6 151v5l-12 2-1 5-7 1c-.07.62-.14 1.25-.21 1.89-.79 2.11-.79 2.11-2.86 3.16-1.23.34-1.23.34-2.49.7-.83.24-1.66.48-2.51.73-.63.17-1.27.34-1.93.52v5h-8c-.23 1.05-.45 2.1-.69 3.19-1.15 4-3.01 6.2-6.31 8.81-2.81.81-2.81.81-5 1l-1 4-7 1v7h-5v5l-13 2v5h-5l-2 8h-5v5h-5c-1.29 4.12-2.26 7.67-2 12h-6c-.04 1.05-.08 2.1-.12 3.19-1.12 4.85-2.77 6.12-6.88 8.81l-5 1v12h-8v8h-5c-.03.7-.05 1.4-.08 2.12-.05.91-.11 1.82-.17 2.76-.07 1.35-.07 1.35-.14 2.74-.2.78-.4 1.57-.61 2.38-1.33.68-2.66 1.34-4 2-.92 2.4-.92 2.4-1.25 5.12-.15.92-.3 1.83-.45 2.76-.1.7-.2 1.4-.3 2.12h-5v15h-5c-1.23 6.07-2.28 11.8-2 18h-6v30h-5c-.29 5.51-.57 11.03-.85 16.54l-.3 5.62c-.14 2.7-.28 5.41-.41 8.11-.05.83-.09 1.65-.14 2.5-.28 5.75-.35 11.48-.3 17.23h-5v44h5c.02.74.04 1.49.07 2.25.56 18.47 1.3 36.92 2.23 55.37.17 3.35.33 6.7.5 10.05.15 3.26.32 6.52.48 9.77.09 1.79.09 1.79.17 3.62.06 1.1.12 2.2.18 3.34.05.96.09 1.93.14 2.92.23 2.63.66 5.11 1.23 7.68h3v138h-5c-.31 11.4-.63 22.79-.94 34.19-.02.83-.04 1.67-.07 2.53-.67 24.43-1.33 48.85-1.99 73.28h-5v32h5v12l7 1 1 12h5l-.12 3.94c.01 4.71.17 9.71 2.12 14.06l4 2 1 17h5l.18 2.6c.43 5.84.88 11.62 1.82 17.4l5 1 1 22h5c-.03.82-.03.82-.07 1.66-.18 7.93.9 15.52 2.07 23.34h5v121h-5c-1.29 4.12-2.26 7.67-2 12h-5v13h-8v12h-5c-.23 1.05-.45 2.1-.69 3.19-1.15 4-3.01 6.2-6.31 8.81l-5 1v12h-8v8h-5v5h-5c-1.29 4.12-2.26 7.67-2 12h-5c-.25.89-.5 1.77-.75 2.69-1.35 3.56-2.52 5.65-5.25 8.31-3.75 1.31-3.75 1.31-7 2v7h-5v5h-7v8h-6l-2 10h-5v7h-7v5h-5v8h-8v5h-5v7h-7v5h-5v8h-8v7h-5v5h-5c-1.75 6.4-1.75 6.4-2 13h-5c-.23.89-.45 1.77-.69 2.69-1.53 3.86-3.06 5.73-6.31 8.31-3.31.81-3.31.81-6 1v8h-5c-1.32 3.62-2 6.1-2 10h-5v7h-8v5h-5v8h-7v5h-5v7h-8v5h-5v8h-7v5h-5v7h-8v8h-5v5h-5c-1.46 2.65-2 3.89-2 7h-5v5h-6l-2 13h-5v5h-7v7h-5c-.21 1.05-.41 2.1-.62 3.19-1.3 4.53-3.5 6.22-7.38 8.81-2.88.81-2.88.81-5 1-.25 1.07-.5 2.14-.75 3.25-1.28 3.83-2.02 5.41-5.25 7.75-3.25.75-3.25.75-6 1-.25.89-.5 1.77-.75 2.69-1.35 3.56-2.52 5.65-5.25 8.31-1.2.29-2.39.58-3.62.88-1.12.37-2.23.74-3.38 1.12-1.18 3.39-1.18 3.39-2 7-3.11 3.19-5.59 4.5-10 5-.25.89-.5 1.77-.75 2.69-1.35 3.56-2.52 5.65-5.25 8.31-1.2.29-2.39.58-3.62.88-1.12.37-2.23.74-3.38 1.12-1.18 3.39-1.18 3.39-2 7-3.11 3.19-5.59 4.5-10 5-.21 1.05-.41 2.1-.62 3.19-1.02 3.44-2.52 5.66-5.45 7.88-3.75 1.81-7.83 1.84-11.93 1.93v5h-6l-2 7-12 2v4c-4.04.2-8.08.38-12.12.56-1.15.06-2.29.11-3.47.17-1.1.05-2.21.1-3.36.15l-3.07.14c-3.1-.02-5.95-.43-8.98-1.02v-6h-8v-7h-5l-3-10h-4v-13h-5c-.09-.83-.17-1.66-.26-2.52-.14-1.09-.28-2.17-.43-3.29-.13-1.08-.25-2.16-.38-3.27-.31-.96-.62-1.93-.93-2.92-.83-.41-1.66-.81-2.52-1.23-2.48-1.77-2.48-1.77-3.1-5.03-.01-1.33-.01-2.67.03-4.01v-2.15c0-1.51.02-3.01.05-4.52.04-2.29.04-4.57.03-6.86.01-1.47.03-2.94.04-4.4v-2.05c.12-4.98 1.21-8.4 3.47-12.75 2.26-1.34 2.26-1.34 4.69-1.94l2.45-.65c.61-.14 1.23-.27 1.86-.41v-8h5c.17-.64.34-1.28.52-1.93l.73-2.51c.23-.82.46-1.64.7-2.49 1.05-2.07 1.05-2.07 3.16-2.86.62-.07 1.25-.14 1.89-.21v-7h8v-5h5v-8h7l1-4 4-1v-7h8v-5h5v-8h7l.18-1.89c.82-2.11.82-2.11 3.11-3.16l7.71-1.95 2-10 10-2v-6h7v-7h5v-5h8v-8h5v-5h7l1.25-3.25c1.43-3.3 2.81-5.56 5.75-7.75 3.25-.75 3.25-.75 6-1v-8h5v-5h7v-7h5v-5h8v-13h7l1-4 4-1v-7h8v-5h5v-8h7l1-4 4-1v-7h6l2-13h5c.23-.89.45-1.77.69-2.69 1.52-3.84 3.12-5.71 6.31-8.31 2.81-.81 2.81-.81 5-1l1-7 4-1 1-4 7-1v-12h7v-5h5l1-7 5-1 2-12 4-1c.45-.91.91-1.81 1.38-2.75 2.04-4.08 3.92-5.61 7.62-8.25l4-1v-12h8v-5h5v-8h5c1.46-2.65 2-3.89 2-7h5l.08-2.01c.35-5.52.71-9.03 4.92-12.99 3-2 3-2 8-3v-12h7l1-7 4-1v-17h8v-13h5v-25h5v-44h-5v-22h-5l-2-13-6-2v-18h-5l-1-6-10 1v5h-7v13h-8v5h-5v7h-11l-2 5c-1.79.84-1.79.84-3.91 1.14-.76.12-1.53.24-2.31.37-1.19.15-1.19.15-2.4.3-.81.12-1.61.24-2.43.37-1.98.29-3.97.56-5.95.82v5h-15v5l-10 2v5h-7l-1 5c-5.94 1.49-5.94 1.49-12 3v5h-7v5l-5 1v6l-13 1v7h-5v5h-7v7h-5v5h-8v6c-.97.14-1.94.29-2.94.44-2.92.24-2.92.24-4.06 1.56-.04 1.67-.04 3.33 0 5h-5v5l-8 2v5h-5v5h-7v8h-5v5l-8 1v2h-5v4h-5v5h-7v8l-7 1-1 4h-5v7h-7v5h-5v8h-8c-.08.78-.16 1.57-.25 2.38-.75 2.62-.75 2.62-2.81 3.93-.64.23-1.28.46-1.94.69v5h-7v5h-5v8h-8v5h-5v7h-7l-1 5c-4.45 1.49-4.45 1.49-9 3v5h-8v5l-7 2v5h-5v5h-13v8h-7v5l-10 2v5h-8v6l-2.62-.12c-3.5.12-6.13.88-9.38 2.12v5h-8v5l-16 2-1 6-13-1-1 5c-1.48.2-1.48.2-2.99.4-1.28.18-2.56.36-3.89.54-1.91.26-1.91.26-3.86.52-3.14.35-3.14.35-5.26 1.54v5h-20v5c-.86.06-1.71.12-2.6.18-5.84.43-11.62.88-17.4 1.82v5h-23v5h-20v8h-25v5c-.62-.02-1.23-.03-1.86-.05-2.8-.06-5.59-.1-8.39-.14-.97-.02-1.94-.05-2.93-.07l-2.84-.03c-.85-.02-1.71-.03-2.6-.05-2.95.42-4.3 1.21-6.38 3.34v4h-25v6c-1.11.06-2.22.12-3.36.18-1.46.09-2.93.17-4.39.26l-2.21.12c-3.47.2-6.69.53-10.04 1.44v5h-12v5h-18v7h-12l-1 5-12 3v5h-7v5c-.77.06-1.54.12-2.34.18-1 .09-2 .17-3.04.26-.99.08-1.99.16-3.02.24-2.58.17-2.58.17-4.6 1.32v5h-12l-1 5-9 3v5h-8v5h-12v7h-8v6c-1.28.14-2.56.29-3.88.44-2.38.27-3.96.48-6.12 1.56v5h-7v5l-8 2v5h-5v6c-.97.14-1.94.29-2.94.44-2.92.24-2.92.24-4.06 1.56-.04 1.67-.04 3.33 0 5h-5v7h-5v5h-8v8h-5c-1.32 3.62-2 6.1-2 10h-5v7h-8v5h-3l-2 8h-7v5h-5v7h-6l-2 8h-5c-.03.7-.05 1.4-.08 2.12-.05.91-.11 1.82-.17 2.76-.05.9-.09 1.8-.14 2.74-.3 1.18-.3 1.18-.61 2.38-1.33.68-2.66 1.35-4 2-.99 2.57-1.51 5.1-2.09 7.79-.3.73-.6 1.46-.91 2.21-2.09.81-2.09.81-4 1-.01.83-.03 1.66-.04 2.52-.05 1.09-.1 2.17-.15 3.29-.03 1.08-.07 2.16-.1 3.27-.24.96-.47 1.93-.71 2.92-1.66 1.01-3.33 2.01-5 3-1.03 2.93-1.03 2.93-1.31 6.19-.14 1.08-.28 2.17-.43 3.29-.08.83-.17 1.66-.26 2.52h-5v13h-5c-1.3 5.76-2.26 11.09-2 17h-5l-1 17-5 1c-.34 3.04-.67 6.08-1 9.12-.14 1.29-.14 1.29-.29 2.6-.48 4.45-.83 8.79-.71 13.28h-5v32h-5c-1.26 15.02-2.35 29.92-2 45h-5v80h-6l-.18 8.96-.06 2.89-.33 16.17c-.21 10.38-.42 20.76-.65 31.14-.72 32.92-.72 32.92-.78 65.84h-5c-.02 18.37-.04 36.73-.05 55.1-.01 8.53-.01 17.06-.03 25.58-.01 7.43-.01 14.86-.01 22.29-.01 3.94-.01 7.88-.02 11.81v11.1c0 2.02-.01 4.03-.01 6.05v6.74c-.14 2.29-.14 2.29 1.12 3.33 2.86.4 5.7.75 8.56 1.06 1.21.14 1.21.14 2.45.28l5.99.66v5h45v5c9.81.86 19.6 1.3 29.44 1.56.76.02 1.51.04 2.3.07 18.42.5 36.84.47 55.26.37v5h319v-5l3.28.02c19.5.08 38.98.09 58.47-.46l2.2-.06c9.37-.26 18.7-.75 28.05-1.5l1-4 12-1c.21-1.05.41-2.1.62-3.19 1.29-4.51 3.55-6.2 7.38-8.81l4-1 1-11 5-1 2-20h5v-18h7l1-11 4-1 1-12 4-1c1.14-1.97 1.14-1.97 1.75-4.38.24-.79.48-1.58.73-2.39.63-2.34.63-2.34.52-5.23h5v-13l5-1 2-1v-10h5l1-7 5-1 2-10h5v-7h7v-5h5l1-7 7-1v-5h5v-7h7v-5l10-2 1-5 7-1c.23-.89.45-1.77.69-2.69 1.52-3.84 3.12-5.71 6.31-8.31 2.81-.81 2.81-.81 5-1 .21-.87.41-1.73.62-2.62 1.69-4.13 3.82-6.72 7.38-9.38 2.88-.88 2.88-.88 5-1v-5h7v-7h5v-5h8v-8h5v-5l1.86-.18c.81-.09 1.62-.17 2.45-.26.8-.08 1.6-.16 2.43-.24 2.42-.27 2.42-.27 5.26-1.32v-5h6l2-6 5-1v-6h5v-5h7v-7h8v-5h5v-8h7l1-4 4-1v-7h8v-5c.96-.2.96-.2 1.93-.4.83-.18 1.66-.36 2.51-.54 1.23-.26 1.23-.26 2.49-.52 2.05-.35 2.05-.35 3.07-1.54.04-1.67.04-3.33 0-5h7l1.25-3.25c1.43-3.3 2.81-5.56 5.75-7.75 3.25-.75 3.25-.75 6-1 .21-1.05.41-2.1.62-3.19 1.29-4.51 3.55-6.2 7.38-8.81 1.08-.19 1.08-.19 2.19-.38.89-.3.89-.3 1.81-.62 1.05-2.31 2.04-4.65 3-7 2.35-3.08 3.44-3.87 7.25-4.75 1.36-.12 1.36-.12 2.75-.25.21-1.05.41-2.1.62-3.19 1.29-4.51 3.55-6.2 7.38-8.81 2.38-.81 2.38-.81 4-1v-5h8c.08-1.11.16-2.23.25-3.38.75-3.62.75-3.62 2.81-5.06.64-.18 1.28-.37 1.94-.56v-3h7v-8h11l2-6 5-1v-5h5c1.26-2.91 2-4.8 2-8h5v-5h8v-5h5v-7h7v-5h5v-8h8v-5h5v-7h7v-5h5v-8h8v-5h5v-7h7v-5h5v-8h5v-5h8v-7h5c1.26-2.91 2-4.8 2-8h5v-5h6l2-6 5-1v-5h5c1.75-6.4 1.75-6.4 2-13h5v-5h8v-7h5c.23-1.05.45-2.1.69-3.19 1.15-4 3.01-6.2 6.31-8.81 2.81-.81 2.81-.81 5-1v-7h6l2-10h5v-8h7v-7h5c.03-.66.05-1.33.08-2.01.35-5.52.71-9.03 4.92-12.99 2.92-1.95 4.63-2.45 8-3v-7h5c1.32-3.62 2-6.1 2-10h5v-8h6l2-12 5-1v-7h5c.17-.64.34-1.28.52-1.93.24-.83.48-1.66.73-2.51.23-.82.46-1.64.7-2.49.35-.69.69-1.37 1.05-2.07 2.07-.63 2.07-.63 4-1l.1-2.03c.17-3.06.38-6.11.59-9.16.05-1.05.1-2.11.16-3.19.35-4.79.58-7.8 3.36-11.8 2.79-1.82 2.79-1.82 8.79-2.82l1-13 11-3v-17l6-2 2-13h5v-13h5c1.3-5.76 2.26-11.09 2-17l6-2v-18h5c.34-2.9.67-5.79 1-8.69.1-.81.19-1.63.29-2.47.45-3.97.84-7.84.71-11.84h5v-32h5c1.16-13.99 2.27-27.98 3-42l4-1v-57h4c1.83-8.41 2.41-16.6 2.63-25.19.04-1.35.09-2.7.13-4.05.09-2.82.17-5.64.25-8.46.09-3.56.2-7.11.31-10.67.46-14.88.83-29.74.68-44.63h5v-251h-5l.02-3.69c.03-11.93-.14-23.84-.46-35.76-.04-1.77-.09-3.53-.13-5.3l-.36-13.71-.36-14.08c-.23-9.15-.47-18.31-.71-27.46h-5v-80h-6l.02-2.05c.08-13.12.03-26.21-.46-39.33l-.12-3.24c-.3-7.48-.82-14.93-1.44-22.38h-5v-78h-5l.02-2.95c.03-9.55-.14-19.07-.46-28.61-.04-1.41-.09-2.83-.13-4.24l-.36-10.97-.36-11.26c-.23-7.32-.47-14.65-.71-21.97h-5v-62l-5-1c-.06-1.28-.11-2.56-.17-3.88l-.63-14.37-.27-6.2-.39-8.95-.12-2.76c-.27-5.97-.77-11.9-1.42-17.84h-5v-20l-6-2c-4.65-3.72-4.96-4.78-6-11h-24ZM2313 3338v5c-1.07-.05-1.07-.05-2.17-.11-8.02-.21-15.1 1.02-22.83 3.11v5h-7v8l-2.44-.06c-2.49-.24-2.49-.24-3.56 1.06-.16 2.03-.32 4.06-.43 6.09-.28.95-.28.95-.57 1.91-.97.42-.97.42-1.96.84-1.01.57-1.01.57-2.04 1.16-.92 3.1-.92 3.1-1.25 6.62-.15 1.19-.3 2.38-.45 3.61-.15 1.37-.15 1.37-.3 2.77h-5v25h-5c-1.25 10.03-2.36 19.87-2 30h-5v80h-5v32h5v45h5v5h7v7h13v5h20v5c5.05 3.37 10 3.14 15.93 3.1.74 0 1.49-.01 2.26-.01 2.37 0 4.75-.01 7.12-.03 1.62 0 3.23-.01 4.85-.01 3.95-.01 7.89-.03 11.84-.05v5h170v5c91.95 1.26 183.89 2.05 357.36 2.25 11.78 0 23.55 0 35.33.01 16.52.02 33.04.02 49.57.01h7.38c5.63-.01 11.25 0 16.88 0 6.78.01 13.55.01 20.33 0 3.43-.01 6.85-.01 10.28 0 3.71 0 7.41-.01 11.12-.02 1.07.01 2.14.01 3.24.02 6.14-.03 11.56-.72 17.51-2.27v-5h25v-5h7v-8h5c.06-.76.12-1.53.19-2.31.27-.89.53-1.78.81-2.69.81-.42 1.63-.85 2.47-1.28 2.8-1.52 2.8-1.52 3.46-4.64.12-1.08.25-2.16.38-3.27.21-1.63.21-1.63.43-3.29.08-.83.17-1.66.26-2.52h3c2.31-15.4 2.27-30.75 2.2-46.28-.01-3.62-.01-7.24-.01-10.87-.01-6.83-.03-13.66-.05-20.49-.02-7.79-.03-15.58-.04-23.37-.02-16-.06-31.99-.1-47.99h-5l-.08-2.38c-.48-14.88-.98-29.76-1.92-44.62-2.47-.5-2.47-.5-5-1l-1-27h-5c-.03-.61-.05-1.23-.08-1.86-.22-5.08-.22-5.08-2.86-9.2-1.99-1.08-1.99-1.08-4.06-.94v-6h-6l-1-5-11-2v-5h-731Z"/><path fill="#FFBF00" d="m1838.02 256.866 3.38-.007c3.73-.006 7.47-.005 11.2-.004l8.04-.011c6.52-.008 13.05-.011 19.57-.011 5.32-.001 10.63-.003 15.95-.006 15.11-.009 30.21-.013 45.32-.012h4.93c13.17 0 26.33-.009 39.49-.024 13.55-.014 27.1-.021 40.64-.02 7.6 0 15.19-.002 22.78-.013 6.48-.009 12.95-.011 19.43-.005 3.29.004 6.58.003 9.88-.005 15.01-.033 29.83.478 44.79 1.805 6.89.596 13.74.671 20.65.567 2.14-.032 4.28-.048 6.43-.06 6.06-.039 12.13-.106 18.2-.177 3.77-.042 7.54-.07 11.31-.09 2.09-.015 4.18-.048 6.27-.082 8.55-.044 15.51.48 22.72 5.289 2.59.646 2.59.646 5.5 1.062l2.91.473c9.1 1.177 18.18 1.664 27.34 1.93l7.28.236c3.77.12 7.55.237 11.32.348 3.68.111 7.35.231 11.03.353l3.38.092c5.82.2 11.22.811 16.9 2.066 3.79.713 7.54.699 11.39.678l5.06.049c2.6.016 5.2.025 7.8.018 9.9-.01 17.67.442 26.85 4.535 6.34 2.271 13.13 2.104 19.8 2.285 21.36.685 21.36.685 30.84 4.956 3.26 1.153 6.02 1.175 9.48 1.192l4.04.063c2.09.022 4.19.039 6.28.045 8.02.038 14.96.555 22.44 3.675 3.31 1.326 6.31 1.735 9.86 2.131l3.85.45c3.99.397 7.98.759 11.99 1.019 2.8.362 5.46 1.028 8.19 1.737 4.83 1.187 9.71 2.13 14.57 3.12 2.16.439 4.31.881 6.46 1.325 7.26 1.494 14.52 2.979 21.78 4.435 51.17 10.258 51.17 10.258 69.9 16.478 4.78 1.586 9.57 3.131 14.36 4.679 8.34 2.697 16.67 5.42 24.99 8.159 4.57 1.499 9.15 2.954 13.75 4.354 8.64 2.636 17.02 5.766 25.41 9.119 1.05.418 1.05.418 2.13.845 65.52 26.029 65.52 26.029 77.06 40.843.68.873 1.37 1.745 2.08 2.644 2.22 2.923 4.37 5.892 6.46 8.915 1.47 1.849 1.47 1.849 3.86 2.804 4.15 2.943 5.83 7.165 8.1 11.637 3.65 7.291 3.65 7.291 8.75 13.578 4.25 4.68 4.5 10.625 5.37 16.672 1.46 8.953 3.24 17.057 6.37 25.566 2.43 7.799 3.24 16.288 3.07 24.434l6 2c1.27 14.024 2.35 27.913 2 42h5v219h-5c.01.997.01 1.994.02 3.021.15 33-.1 66.025-2.02 98.979h-2c-.46.959-.46.959-.94 1.937C2789 862 2789 862 2788 863a84.37 84.37 0 0 0-.16 5.029l-.03 3.262c-.01 1.179-.01 2.358-.02 3.572l-.09 7.51c-.04 3.94-.07 7.88-.1 11.82-.14 18.648-.67 36.898-5.95 54.909-1.55 6.941-1.72 13.807-1.48 20.889.27 9.099-.06 16.213-3.98 24.548-3.64 10.561-2.48 23.161-2.71 34.211-.03 1.23-.07 2.47-.1 3.74l-.08 3.36c-.39 4.04-1.49 7.52-3.3 11.15-.19 2.51-.33 5-.43 7.51-.07 1.56-.15 3.12-.22 4.68-.11 2.44-.22 4.89-.32 7.33-.56 13.11-1.99 25.59-5.63 38.24-1.62 5.65-2.21 11.27-2.78 17.11-.95 8.85-2.41 17.28-4.65 25.89-1.92 7.58-3.17 15.21-4.41 22.93-1.42 8.73-3.1 16.92-6.19 25.21-2.66 7.36-4.22 14.96-5.87 22.6-1.97 9.14-4.1 18.05-7.3 26.85-2.28 6.43-3.69 12.99-5.14 19.65-1.84 8.45-4.1 16.21-7.52 24.14-3.06 7.45-4.42 15.19-5.77 23.1-1.13 6.46-2.85 11.89-5.77 17.76-2.65 5.72-4.26 11.41-5.81 17.5-2.98 11.29-6.85 21.67-11.94 32.19-2.23 4.77-3.01 9.27-3.74 14.46-1.11 6.17-3.82 10.98-7.57 15.91-4.35 6.17-4.92 13.63-5.94 20.94h-5c-.14.72-.27 1.43-.41 2.17-.63 3.28-1.27 6.55-1.9 9.83-.22 1.13-.43 2.25-.65 3.41-1.2 6.11-2.35 11.95-5.04 17.59-.65.31-1.31.63-1.98.95-2.6 1.35-2.92 2.42-3.92 5.14-.33.86-.66 1.71-.99 2.59-.35.93-.69 1.86-1.05 2.82-4.8 12.38-10.69 24.11-16.78 35.89-2.25 4.58-3.58 8.79-4.53 13.8-1.77 7.83-4.5 14.43-11.07 19.27-5.24 4.36-7.22 10.57-9.74 16.73-3.59 8.54-7.32 16.78-11.94 24.81h-5c-.16.89-.32 1.79-.48 2.71-2.29 11.87-6.29 19.9-13.54 29.47-2.56 3.65-4.53 7.49-6.46 11.51-1.82 2.77-3.64 3.73-6.52 5.31-2.24 1.74-2.91 2.43-3.34 5.27l-.16 2.54c-.45 2.71-.45 2.71-1.5 5.19-2.43 1.6-2.43 1.6-5.38 2.94-4.27 1.92-4.27 1.92-7.02 5.55-.61 1.89-1.19 3.8-1.73 5.71-2.74 8.79-10.45 17.38-16.87 23.8-3.12.12-3.12.12-6 0 .06 1.03.12 2.06.19 3.12-.21 4.32-.82 6.29-3.19 9.88-1.03.78-2.06 1.57-3.12 2.37-3.95 3.14-5.92 6.95-8.26 11.32-3.83 7.16-8.2 13.23-13.62 19.31-.68.8-1.36 1.6-2.06 2.43-3.78 4.38-7.71 8.29-12.18 11.96-3.37 3.08-5.06 6.07-6.51 10.36-3.52 9.01-10.22 14.19-17.62 20.11-5.42 4.42-9.81 9.32-14.19 14.76-7.92 9.77-7.92 9.77-13.82 11.19-.86.06-1.73.13-2.62.19-.27.89-.54 1.77-.81 2.69-2.07 5.77-2.07 5.77-4.19 8.31-1.9.54-1.9.54-4.06.94-2.12.38-2.12.38-3.94 1.06-1.27 2.56-1.27 2.56-2 6-6.56 14.81-17.72 24.86-32 32-2 .04-4 .04-6 0-.19.8-.37 1.61-.56 2.44-6.37 15.77-22.86 26.33-36.13 35.88-5.57 4.06-10.93 8.38-16.31 12.68-.87.68-1.73 1.37-2.62 2.07-16.43 11.58-16.43 11.58-28.63 26.68-2.61 3.35-5.8 3.44-9.83 4.38-5.9 1.75-10.5 5.07-14.3 9.87-3.24 3.71-6.68 5.32-11.1 7.41-2.67 1.4-2.67 1.4-3.87 4.01-1.92 3-3.38 3.86-6.55 5.41-.97.49-1.94.97-2.93 1.47-1.03.5-2.05 1-3.11 1.51-15.11 7.49-15.11 7.49-28 18.19-7.36 7.78-17.57 12.43-27.09 17.07-2.72 1.77-3.74 2.82-5.59 5.33-4.06 4.97-9.57 6.51-15.44 8.66-2.47.95-4.93 1.91-7.39 2.87l-1.91.75c-6.54 2.61-12.79 5.77-19.08 8.94-18.41 9.17-37.7 16.23-56.96 23.41-2.64.99-5.29 1.98-7.93 2.98-1.7.64-3.4 1.27-5.1 1.91-.77.29-1.54.58-2.33.88-8.79 3.27-17.54 4.3-26.86 4.86-2.37.2-2.37.2-4.21 1.32-7.09 3.33-17.01 2.19-24.71 2.22l-3.23.02c-3.43.02-6.86.03-10.29.03h-3.54c-32.16-.03-59.35-4.95-89.69-15.34-2.38-.8-4.75-1.56-7.15-2.29-7.14-2.22-13.02-4.93-19.36-8.88-3.66-1.99-7.31-3.27-11.26-4.55-16.88-5.6-31.98-15.43-47.15-24.53-3.63-2.16-7.26-4.3-10.89-6.44-4.64-2.73-9.27-5.47-13.9-8.22-1-.6-2.01-1.19-3.04-1.81-20.68-12.27-41-24.96-60.76-38.67-2.8-1.93-5.6-3.86-8.4-5.78-1.96-1.35-3.93-2.7-5.89-4.06-2.66-1.83-5.33-3.65-8-5.46-11.52-7.82-22.47-16.07-33.04-25.12-5.2-4.43-10.59-8.59-16.04-12.71-2.04-1.55-4.08-3.1-6.11-4.66-.74-.56-1.47-1.13-2.23-1.7-1.48-1.14-2.96-2.27-4.44-3.41-3-2.31-6.01-4.59-9.1-6.79-5.84-4.21-5.84-4.21-6.51-8.02-.15-.93-.29-1.85-.44-2.81-3.08-1.75-3.08-1.75-5.5-2.77-14.62-7.22-26.68-21.25-38.1-32.66-1.06-1.05-2.11-2.11-3.16-3.16-2.19-2.17-4.37-4.35-6.54-6.53-2.79-2.79-5.59-5.57-8.38-8.35-2.17-2.15-4.33-4.31-6.49-6.47-1.03-1.03-2.06-2.06-3.1-3.08l-4.29-4.29c-.81-.81-1.62-1.63-2.46-2.46-3.2-3.6-3.98-5.35-3.98-10.23-.7.14-1.4.29-2.12.44-4-.61-5.2-2.65-7.65-5.71-2.39-3.35-2.32-5.66-2.23-9.73-.85.14-1.69.29-2.56.44-6.21-.79-9.86-6.61-13.62-11.32-1.05-1.37-2.09-2.74-3.13-4.12-.56-.74-1.12-1.47-1.7-2.23-4.06-5.4-7.84-10.94-11.54-16.6-3.5-5.33-7.36-10.27-11.45-15.17-12.96-15.58-24.35-32-35.68-48.78-4.99-7.39-10.05-14.71-15.32-21.91-11.13-15.26-20.59-31.34-29.86-47.77-2.39-4.23-4.8-8.44-7.23-12.65-11.91-20.68-23.61-41.38-33.44-63.15-3.45-7.62-7.12-15.1-10.91-22.55-10.88-21.56-20.25-43.66-29.24-66.06-4.2-10.45-8.59-20.77-13.33-30.98-5.19-11.23-10.04-22.5-14.25-34.13-.73-1.99-1.48-3.97-2.24-5.94-4.81-12.57-8.9-25.36-13.01-38.17-.52-1.61-1.04-3.22-1.55-4.83-.26-.79-.51-1.58-.77-2.39-1.47-4.56-2.98-9.11-4.54-13.64-3.57-10.34-6.49-20.48-8.7-31.2-1.3-5.95-3.19-11.13-5.87-16.6-4-8.2-6.04-16.51-7.89-25.43-1.12-5.35-2.37-10.58-4-15.8-3.12-10.02-4.77-20-6.17-30.4-1.69-12.46-4.06-24.39-7.42-36.52-2.66-9.66-4.08-19-4.89-28.98-1.02-11.12-1.02-11.12-4.69-21.56-3.95-8.28-4.25-16.98-4.89-26.05-.52-6.87-1.52-12.69-4.21-19.06-2.13-5.81-1.98-12.04-1.65-18.14.1-5.49-1.59-10.3-3.38-15.43-2.95-8.54-3.1-17.15-3.3-26.11-.17-4.63-.76-8.72-2.04-13.18-2.3-8.611-2.32-17.419-2.65-26.278-.11-2.608-.23-5.217-.34-7.825-.07-1.61-.14-3.219-.2-4.829-.21-5.258-.71-10.433-1.34-15.658l-4-1v-70h-5c-.73-14.675-1.27-29.341-1.55-44.031-.03-1.054-.05-2.108-.07-3.194-.61-31.86-.53-63.727-.51-95.592.01-5.961 0-11.922 0-17.883-.02-33.697 0-67.389.58-101.081.01-1.168.03-2.336.05-3.54.28-16.236.82-32.455 1.5-48.679h5v-60h5l.06-1.993c1.99-63.219 1.99-63.219 21.94-85.007.67-.732.67-.732 1.35-1.479 8.17-8.833 17.24-16.128 26.96-23.193 1.7-1.335 3.16-2.797 4.69-4.328 1.7-.887 1.7-.887 3.69-1.688 9.19-3.927 18.39-8.174 26.62-13.875 5.93-3.874 12.19-6.018 18.83-8.343 4.19-1.471 8.32-3.046 12.43-4.688 18.9-7.496 38.07-14.139 57.35-20.585 2.05-.685 4.09-1.372 6.13-2.06 16.56-5.568 33.17-10.67 50.1-15.021 2.63-.682 5.24-1.39 7.85-2.114 11.4-3.139 22.9-5.486 34.51-7.705 16.54-3.169 32.9-6.652 49.18-10.984 18.49-4.907 37.22-7.982 56.12-10.894 20.84-2.879 20.84-2.879 41.19-8.043 1.77-.193 3.54-.342 5.31-.465l3.27-.236 3.42-.237c6.92-.48 13.81-1.026 20.7-1.806 7.52-.847 15-1.459 22.56-1.748l2.6-.101c3.49-.132 6.97-.257 10.46-.361 9.55-.296 18.28-.942 27.5-3.532 17.37-4.686 36.27-3.844 54.12-4.014 25.89.144 25.89.144 51.52-3.01 4.87-.674 9.66-.631 14.56-.624ZM1908 373v2l-1.88-.018c-15.12-.148-30.25-.29-45.37-.425-7.32-.066-14.63-.133-21.95-.205-6.37-.063-12.75-.122-19.13-.177-3.38-.029-6.75-.06-10.12-.096-3.78-.038-7.55-.07-11.33-.101l-3.36-.039c-6.05-.041-11.86.285-17.86 1.061-2.26.133-4.52.24-6.79.316l-3.6.127-3.67.119A4589.107 4589.107 0 0 1 1750 376v1h25v3h-25v-2c-11.41.591-22.8 1.278-34.19 2.192-1.55.123-3.11.241-4.66.355-2.31.169-4.62.352-6.93.539l-2.06.142c-3.88.332-7.32 1.075-11.02 2.279-5.2 1.638-10.1 2.076-15.52 2.302l-5.94.317-3.09.153c-22.36 1.125-43.66 3.339-65.37 8.935-7.45 1.821-14.9 2.592-22.53 3.286-22.85 2.133-44.68 7.884-66.86 13.578l-5.49 1.399-2.68.683c-6.7 1.675-13.41 2.946-20.23 3.982-2.89.724-4.52 1.368-6.99 2.851-3.31 1.932-5.78 2.794-9.5 3.534l-3.39.703-3.55.707c-13.48 2.854-25.82 6.501-38.38 12.266-7.12 3.189-14.54 5.478-22.02 7.693-8.65 2.7-15.55 6.965-21.97 13.354-3.74 3.332-7.79 3.952-12.58 4.996-12.52 3.098-23.06 12.124-30.21 22.617-2.08 3.55-3.9 7.135-5.59 10.887-.27.594-.54 1.189-.82 1.801-5.02 11.857-7.08 24.299-8.49 37.011-.87 7.636-1.8 15.147-3.49 22.649-1.42 6.29-2.11 12.426-2.51 18.851-.16 2.162-.31 4.323-.47 6.485-.08 1.072-.15 2.143-.23 3.248-.37 5.012-.83 10.014-1.3 15.017-.12 1.307-.12 1.307-.24 2.639-.08.807-.16 1.613-.24 2.443-.06.7-.13 1.4-.19 2.121-.27 1.985-.27 1.985-.77 3.787-.57 2.486-.71 4.805-.81 7.354l-.12 3.104c-.04 1.106-.08 2.211-.11 3.35-.05 1.157-.09 2.315-.13 3.507-.38 11.223-.52 22.444-.59 33.673-.02 3.576-.05 7.152-.08 10.729-.06 7.598-.11 15.196-.16 22.793a30104.509 30104.509 0 0 1-.25 33.684c-.13 16.444-.48 32.851-1.15 49.282-.26 7.009-.3 14.021-.29 21.034 0 1.13 0 1.13.01 2.282.07 27.684 3.79 54.96 8.51 82.203 2.42 13.981 4.18 27.749 5.17 41.89 2.04 28.871 5.95 57.1 13.52 85.083 1.08 4.35 1.57 8.67 1.99 13.12l.54 5.27c.09.92.18 1.84.28 2.79 2 19.46 5.05 38.55 8.81 57.74.17.86.34 1.72.51 2.6.16.84.33 1.68.5 2.55 1.61 8.3 2.88 16.65 3.9 25.05.68 5.08 1.84 9.24 3.96 13.92 2.95 6.68 3.58 13.08 4.12 20.31.9 11.32 2.57 20.57 7.68 30.75 3.78 8.16 5.45 16.53 7.21 25.3 4.8 23.65 10.8 47.27 19.66 69.74 1.14 2.91 2.2 5.84 3.26 8.78.39 1.08.78 2.17 1.18 3.29 1.14 3.25 2.19 6.53 3.23 9.82 6.91 21.65 15.69 42.17 25.65 62.57 3.78 7.75 6.56 15.42 8.93 23.69 3.07 10.44 7.1 20.5 11.51 30.44.39.91.79 1.82 1.19 2.75 2.04 4.48 4.14 8.23 7.33 11.99 4.24 5.21 6.29 11.12 8.51 17.37 5.17 14.48 11.49 27.98 19.03 41.39.52.94 1.04 1.87 1.58 2.84 2.68 4.81 5.39 9.6 8.13 14.38 2.23 3.91 4.44 7.84 6.61 11.78 6 10.81 12.29 21.16 19.45 31.25 6.39 9.07 11.82 18.54 17.17 28.25 8.22 15.16 8.22 15.16 19.06 28.5 2.58.17 2.58.17 5 0 .16.54.32 1.08.48 1.64 1.86 5.96 4.35 11.24 7.4 16.67.47.86.95 1.72 1.44 2.6 5.44 9.65 11.5 18.9 17.68 28.09.43.65.86 1.29 1.31 1.96 6.98 10.46 14.49 20.03 23.51 28.8 2.22 2.28 4.16 4.66 6.12 7.18 6.52 8.33 14.07 15.17 22.31 21.76 5.32 4.45 10.15 9.46 14.83 14.58 1.9 2.05 1.9 2.05 5.17 1.97.91-.08 1.82-.17 2.75-.25l.21 2.1c1.01 3.72 2.99 6.31 5.35 9.27.45.57.9 1.14 1.36 1.73 5.33 6.73 5.33 6.73 12.08 11.9 2.65.22 2.65.22 5 0-.1.72-.21 1.45-.31 2.2.44 4 2.28 5.1 5.31 7.67.5.44 1.01.88 1.53 1.32 1.48 1.28 2.97 2.55 4.47 3.81 1.36 1.18 2.71 2.37 4.06 3.56.65.56 1.29 1.11 1.96 1.68 1.37 1.22 2.71 2.48 4.03 3.77 5.96 5.74 12.4 9.94 19.43 14.27 12.47 7.72 24.11 16.43 35.41 25.77 5.1 4.19 10.35 8.17 15.67 12.07 1.19.88 1.19.88 2.41 1.77 3.79 2.77 7.6 5.52 11.43 8.23.68.49 1.37.97 2.07 1.48 1.26.9 2.53 1.79 3.81 2.67 2.89 2.07 4.75 3.77 6.63 6.82 2.82 3.92 5.74 4.86 10.15 6.53 9.64 3.96 18.05 9.26 26.73 14.95 5.63 3.65 11.41 7.05 17.21 10.43.65.38 1.29.76 1.96 1.15 25.48 14.8 52.33 26.24 80.19 35.73 4.08 1.41 7.98 3.05 11.9 4.87 26.44 12.27 55.27 7.67 81.95-1.75 6.73-2.51 13.38-5.22 20-8l-.12-3.13c.4-2.64.85-3.63 2.88-5.42 7.39-4.55 15.51-7.92 23.43-11.45 1.44-.65 2.89-1.3 4.33-1.95 2.24-1 4.47-2 6.7-3 5.22-2.34 10.41-4.71 15.59-7.1 2.1-.97 4.2-1.93 6.29-2.9 1.34-.61 2.67-1.23 4.01-1.85 1.86-.86 3.72-1.72 5.59-2.57 1.05-.48 2.1-.97 3.18-1.47 3.39-1.26 6.54-1.77 10.12-2.16.08-.77.16-1.55.24-2.34.76-2.66.76-2.66 2.55-4.06.77-.37 1.54-.73 2.34-1.11.86-.42 1.72-.84 2.61-1.28.93-.44 1.86-.88 2.82-1.34 17.04-8.49 31.63-19.9 46.6-31.55 2.11-1.64 4.22-3.26 6.34-4.88.93-.74.93-.74 1.88-1.48 5.15-3.93 10.65-6.8 16.89-8.62 2.46-.68 2.46-.68 5.73-2.34 1.26-3.38 1.26-3.38 2-7 5.25-6.56 13.25-10.93 20.31-15.31 13.36-8.43 25.51-18.61 35.69-30.69 9.64-11.22 20.16-20.54 31.98-29.35 4.58-3.44 8.56-7.07 12.45-11.29 1.57-1.36 1.57-1.36 4.88-1.86 1.33-.25 1.33-.25 2.69-.5 1.46-3.3 1.46-3.3 2.18-5.76 2.58-7.05 8.73-12.3 14.2-17.18 6.72-6.14 13.02-12.35 18.31-19.81 5.72-7.83 13.22-14.79 20.69-20.94 5.35-4.54 8.89-10.52 12.56-16.44 1.74-2.43 3.34-4.15 5.5-6.18 12.37-12.08 22.33-27.58 30.95-42.52 4.7-8.12 10.02-16.59 18.08-21.76 4.03-3.84 5.59-8.77 7.72-13.85 3.05-7.01 5.92-13.33 10.87-19.19 7.02-8.35 10.7-18.41 14.94-28.37 1.36-3.15 2.74-6.3 4.12-9.44.32-.72.64-1.45.97-2.2 2.74-6.14 5.82-12.04 9.05-17.93 3.65-6.74 6.69-13.41 9.3-20.62 3.1-8.4 6.64-16.54 10.38-24.67 4.69-10.21 8.76-20.21 11.61-31.09 2.55-9.19 5.79-18.35 9.82-26.99 6.8-14.61 11.34-29.44 15.64-44.95.24-.87.49-1.74.74-2.63.45-1.64.9-3.27 1.34-4.91 1.45-5.21 3.46-9.82 6.03-14.57 3.19-6.02 3.77-11.97 4.47-18.67.53-3.33.53-3.33 2.53-6.33.44-2.29.78-4.61 1.08-6.92l.57-4.27c.1-.74.19-1.49.29-2.25 2.85-21.44 6.78-43.34 16.71-62.8 2.1-5.86 1.75-11.69 1.7-17.87.09-5.33.66-9.43 2.88-14.3 3.64-7.98 5.2-16.4 7.02-24.93 1.06-4.92 2.15-9.83 3.24-14.74.22-.96.43-1.92.65-2.9 1.68-7.41 3.63-14.69 5.86-21.96 3.19-10.47 4.93-20.17 5.28-31.13.36-10.96 1.35-20.07 6.26-30.06 2.12-4.92 2.45-10.15 3.02-15.43l.69-6.07c.1-.89.2-1.77.3-2.69.45-2.68.45-2.68 1.45-5.57 1.12-3.49 1.43-6.6 1.68-10.25.1-1.41.2-2.81.31-4.21.05-.72.1-1.45.16-2.2.91-12.438 2.37-24.44 5.08-36.631 1.74-8.043 2.62-16.003 3.14-24.212.31-4.694.86-8.985 2.12-13.517 1.63-6.722 1.71-13.809 1.97-20.692l.24-5.421c.12-2.809.24-5.617.35-8.426.11-2.739.23-5.477.35-8.215l.09-2.523c.23-4.905 1.08-9.086 2.51-13.813.31-2.289.56-4.588.75-6.891.05-.649.11-1.299.16-1.968.19-2.13.36-4.261.53-6.391.12-1.506.25-3.011.38-4.516.26-3.148.53-6.296.78-9.445.58-6.971 1.18-13.939 1.78-20.908.17-2.105.35-4.209.53-6.314.05-.629.11-1.259.16-1.907l.51-6.11c.26-2.907.56-5.8.92-8.695 1.99-16.85 1.81-33.738 1.8-50.676 0-3.492.01-6.985.01-10.477.01-8.266.01-16.532.01-24.797-.01-8.433 0-16.865.02-25.297.02-7.321.03-14.641.02-21.962 0-4.336 0-8.672.02-13.009.15-50.225-5.39-99.055-30.34-143.597-3.26-5.944-5.15-11.312-6.04-18.04h-5v-5c-1.62-.671-3.25-1.337-4.88-2-.9-.371-1.8-.743-2.74-1.125-2.27-.99-2.27-.99-4.38-.875-.12-1.258-.25-2.516-.38-3.813-.41-2.245-.41-2.245-1.62-4.187-3.21-1.634-6.46-2.374-10-3l.06-2.262c-.77-2.799-.77-2.799-2.8-3.807-2.37-1.013-4.76-1.897-7.2-2.744-.83-.311-1.67-.622-2.53-.943-4.16-1.646-4.16-1.646-8.53-2.244v-5c-5.82-2.303-11.72-4.183-17.75-5.846-4.17-1.233-7.72-2.911-11.5-5.072-5.79-3.254-11.64-5.231-18-7.082-1.11-.333-2.22-.667-3.37-1.01-11.05-3.273-22.2-6.2-33.38-8.99v-4c-16.11-4.886-32.17-8.236-48.74-10.999-11.23-1.874-22.28-3.928-33.27-6.96-14.88-4.075-30.09-5.75-45.41-7.195-9.34-.892-17.92-2.334-26.95-4.925-6.01-1.526-12.09-2.024-18.25-2.546-2.44-.215-4.87-.436-7.29-.664l-3.19-.272c-2.9-.439-2.9-.439-5.36-1.453-3.18-1.234-5.92-1.341-9.33-1.478l-4.01-.192-2.11-.094c-11.02-.498-21.6-1.413-32.36-3.963-8.01-1.781-15.64-1.223-23.73-.259v-3c-8.57-4.287-22.47-2.103-32-2v2h-36v-3h16v-1c-61.02-2.43-121.94-3.162-183-3v2h-75v-2h-12Z"/><path fill="#000" d="M2302.8 720.815c2-.003 4-.021 6-.04 18.81-.028 18.81-.028 26.01 5.037 3.83 2.49 7.51 4.155 11.81 5.688 7.28 2.666 12.97 6.03 17.38 12.5 4.63 14.725-2.29 32.476-8 46-.32.773-.64 1.547-.98 2.344-5.39 12.814-11.82 24.773-19.02 36.656-.87 1.444-.87 1.444-1.75 2.918a807.39 807.39 0 0 1-2.81 4.648 177.27 177.27 0 0 0-3.19 5.649c-7.07 12.981-16.17 23.998-26.25 34.785-.83.963-.83.963-1.68 1.945-2.56 2.855-3.81 3.998-7.7 4.43L2290 883c-.08.99-.17 1.98-.25 3-1.43 9.372-7.44 15.334-13.75 22-5.29 5.624-9.48 11.091-13.16 17.91-1.84 2.09-1.84 2.09-5.05 2.398L2255 928c-.25.866-.5 1.732-.76 2.625-4.02 10.924-13.26 20.111-20.83 28.751-2.02 2.333-3.97 4.725-5.91 7.124-6.79 8.358-13.78 16.564-21.06 24.5-4.45 4.903-8.5 10.07-12.55 15.3-1.93 2.48-3.88 4.94-5.87 7.37-1.01 1.23-2.01 2.47-3.02 3.7-.5.61-.99 1.22-1.5 1.85-4.29 5.35-8.12 10.96-11.76 16.77-3.18 4.87-3.18 4.87-6.38 5.68-.78.11-1.56.22-2.36.33-1.62 1.94-1.62 1.94-2.81 4.44-3.87 6.96-8.87 12.83-14 18.87-2.21 2.54-2.21 2.54-3.5 5.13-1.65 2.49-3.1 3.85-5.38 5.75-6.58 5.57-11.4 12.51-16.37 19.5-2.25 3.13-4.46 5.97-7.25 8.62-6.32 6-11.37 13.33-16.64 20.24-3.72 4.87-7.68 9.41-11.81 13.93-2.09 2.35-4.05 4.74-5.99 7.21-3.97 5.04-8.17 9.87-12.39 14.7-3.26 3.73-6.44 7.51-9.55 11.36-3.79 4.7-7.84 9.1-11.96 13.52-2.94 3.41-5.3 7.06-7.58 10.93-1.77 1.8-1.77 1.8-4.97 2.07-.93-.09-1.85-.18-2.8-.27-.23.84-.47 1.68-.71 2.54-1.51 4.04-3.55 7.24-5.98 10.77-.44.66-.89 1.31-1.35 1.99-.9 1.3-1.8 2.6-2.71 3.9-1.1 1.58-2.18 3.18-3.25 4.78-1.57 2.2-3.01 4.19-5 6.02-3.44.56-3.44.56-6 0-.06.82-.12 1.65-.19 2.5-2.65 11.44-13.11 19.28-21.64 26.62-6.14 5.32-12.16 10.75-17.78 16.61-6.28 6.52-12.24 12.28-20.05 16.92-4.81 2.89-9.04 6.25-13.34 9.85-6.99 5.82-14.19 10.86-22 15.5l-2.09 1.3c-16.27 9.23-39.2 9.32-56.85 4.7-30.06-8.72-54.45-28.14-76.99-49.17-2.18-2.02-4.39-3.99-6.64-5.94-.59-.53-1.19-1.05-1.8-1.59-1.14-1-2.28-2-3.44-2.98-3.92-3.49-4.82-6.38-6.19-11.32-2.05-1.85-2.05-1.85-4.63-3-8.42-4.25-14.29-10.68-19.81-18.19-.84-1.11-.84-1.11-1.69-2.25a514.79 514.79 0 0 1-7.35-10.02c-3.46-4.77-6.63-8.77-11.27-12.42-7.6-6.48-11.77-15.75-16.63-24.33-2.84-4.88-5.95-9.57-9.11-14.25-3.51-5.28-6.51-10.02-6.51-16.54-.76-.22-1.52-.44-2.31-.66-3.49-1.74-4.1-3.21-5.75-6.72-.29-.59-.57-1.19-.87-1.81-3.62-7.74-6.9-15.64-10.23-23.5-2.69-6.33-5.41-12.64-8.26-18.9-.28-.63-.56-1.25-.85-1.89-.57-1.24-1.14-2.49-1.7-3.73-4.31-9.48-8.46-18.95-11.85-28.81-1.47-4.25-3.22-8.19-5.29-12.2-5.98-11.93-6.54-26.06-2.89-38.78 1.69-4.23 3.11-6.63 7-9 2.51-.37 2.51-.37 5.33-.36 1.04 0 2.08 0 3.15-.01l3.33.06c1.12.01 2.24.01 3.39.02 8.4.12 16.53.78 24.8 2.29v5h13v5c1.26.19 2.52.37 3.81.56 6.29 1.43 10.96 4.8 16.19 8.44l5.82 4.02c1.37.95 2.75 1.9 4.12 2.85 4.25 2.94 8.56 5.68 13 8.32 8.27 5.03 14.58 10.78 20.33 18.56 1.71 2.23 3.55 4.21 5.48 6.25 4.32 4.77 7.61 10.05 11.03 15.47 5.07 7.98 10.72 15.41 16.83 22.62 1.95 2.38 3.6 4.68 5.2 7.28 4.41 6.71 9.98 11.74 16.25 16.69 11.73 9.26 11.73 9.26 12.38 14.38-.22 1.27-.22 1.27-.44 2.56 1.07.1 2.14.21 3.25.31 5.7.7 11.21 2.22 16.75 3.69v6c21.32 2.48 37.67-.79 57.03-9.17 2.89-1.22 5.84-2.3 8.78-3.39 9.83-3.79 17.59-7.37 24.8-15.16 2.67-2.55 5.39-4.24 8.58-6.09 13.65-8.08 23.73-19.11 33.81-31.19 2-2 2-2 3.95-2.2 2.01.07 4.03.13 6.05.2.31-1.45.31-1.45.62-2.94 2.7-9.23 10.53-18.73 18.84-23.46 3.14-1.98 5.28-4.45 7.6-7.29l1.41-1.69c4.84-5.88 9.38-11.97 13.9-18.09.45-.6.9-1.21 1.36-1.83 1.15-1.54 2.28-3.09 3.41-4.65 1.86-2.05 1.86-2.05 5.11-2.36.91.1 1.81.2 2.75.31.25-.87.5-1.75.76-2.65 3.37-9.1 10.85-16.14 17.71-22.77 6.61-6.479 12.42-13.826 17.09-21.83 1.89-3.19 4.13-5.508 6.81-8.063 3.95-3.823 6.75-7.693 9.59-12.375 10.19-16.534 21.94-32.249 34.25-47.257 5.47-6.681 9.51-13.077 13.16-20.899 2.21-4.281 4.94-8.024 8.63-11.156h2l2-6h6l.12-2.375c2.11-8.715 8.18-15.265 13.85-21.953 1.89-2.492 3-4.581 4.09-7.485 1.37-3.573 2.75-5.027 5.94-7.125 4.95-3.259 6.34-7.543 8-13.062h5c.35-1.141.35-1.141.7-2.305 1.78-5.057 3.95-9.917 6.11-14.82 2.75-6.238 5.46-12.468 7.94-18.813 2.8-6.776 7.05-11.746 11.94-17.125 2.32-2.582 3.38-4.128 4.68-7.437 3.7-7.948 11.7-12.307 18.95-16.719 2.62-1.741 4.74-3.604 6.99-5.781 14.39-13.191 34.74-16.188 53.49-16.185Z"/></svg>